<?xml version="1.0" encoding="UTF-8" standalone="no"?>
<!DOCTYPE svg PUBLIC "-//W3C//DTD SVG 1.1//EN"
 "http://www.w3.org/Graphics/SVG/1.1/DTD/svg11.dtd">
<!-- Generated by graphviz version 2.43.0 (0)
 -->
<!-- Title: %3 Pages: 1 -->
<svg width="1565pt" height="523pt"
 viewBox="0.00 0.00 1564.50 523.00" xmlns="http://www.w3.org/2000/svg" xmlns:xlink="http://www.w3.org/1999/xlink">
<g id="graph0" class="graph" transform="scale(1 1) rotate(0) translate(4 519)">
<title>%3</title>
<polygon fill="white" stroke="transparent" points="-4,4 -4,-519 1560.5,-519 1560.5,4 -4,4"/>
<!-- 2 -->
<g id="node1" class="node">
<title>2</title>
<polygon fill="#fff8dc" stroke="transparent" points="0,-103.5 0,-122.5 132,-122.5 132,-103.5 0,-103.5"/>
<polygon fill="none" stroke="black" points="0,-103.5 0,-122.5 132,-122.5 132,-103.5 0,-103.5"/>
<text text-anchor="start" x="10.5" y="-111.5" font-family="Courier,monospace" font-size="8.00">Config:</text>
<text text-anchor="start" x="42.5" y="-111.5" font-family="Courier,monospace" font-size="10.00"> ConvGruModel</text>
<polygon fill="#eeeeee" stroke="transparent" points="0,-84.5 0,-103.5 93,-103.5 93,-84.5 0,-84.5"/>
<polygon fill="none" stroke="black" points="0,-84.5 0,-103.5 93,-103.5 93,-84.5 0,-84.5"/>
<text text-anchor="start" x="4" y="-91.5" font-family="Courier,monospace" font-size="10.00">input_channels</text>
<polygon fill="none" stroke="black" points="93,-84.5 93,-103.5 132,-103.5 132,-84.5 93,-84.5"/>
<text text-anchor="start" x="97" y="-91.5" font-family="Courier,monospace" font-size="10.00">1</text>
<polygon fill="#eeeeee" stroke="transparent" points="0,-65.5 0,-84.5 93,-84.5 93,-65.5 0,-65.5"/>
<polygon fill="none" stroke="black" points="0,-65.5 0,-84.5 93,-84.5 93,-65.5 0,-65.5"/>
<text text-anchor="start" x="28" y="-72.5" font-family="Courier,monospace" font-size="10.00">num_blocks</text>
<polygon fill="none" stroke="black" points="93,-65.5 93,-84.5 132,-84.5 132,-65.5 93,-65.5"/>
<text text-anchor="start" x="97" y="-72.5" font-family="Courier,monospace" font-size="10.00">5</text>
<polygon fill="#eeeeee" stroke="transparent" points="0,-46.5 0,-65.5 93,-65.5 93,-46.5 0,-46.5"/>
<polygon fill="none" stroke="black" points="0,-46.5 0,-65.5 93,-65.5 93,-46.5 0,-46.5"/>
<text text-anchor="start" x="10" y="-53.5" font-family="Courier,monospace" font-size="10.00">noisy_decoder</text>
<polygon fill="none" stroke="black" points="93,-46.5 93,-65.5 132,-65.5 132,-46.5 93,-46.5"/>
<text text-anchor="start" x="97" y="-53.5" font-family="Courier,monospace" font-size="10.00">False</text>
</g>
<!-- 1 -->
<g id="node2" class="node">
<title>1</title>
<polygon fill="#90ee90" stroke="transparent" points="92,-384 92,-403 337,-403 337,-384 92,-384"/>
<polygon fill="none" stroke="black" points="92,-384 92,-403 337,-403 337,-384 92,-384"/>
<text text-anchor="start" x="129" y="-392" font-family="Courier,monospace" font-size="8.00">Config:</text>
<text text-anchor="start" x="161" y="-392" font-family="Courier,monospace" font-size="10.00"> NowcastLightningModule</text>
<polygon fill="#eeeeee" stroke="transparent" points="92,-365 92,-384 185,-384 185,-365 92,-365"/>
<polygon fill="none" stroke="black" points="92,-365 92,-384 185,-384 185,-365 92,-365"/>
<text text-anchor="start" x="138" y="-372" font-family="Courier,monospace" font-size="10.00">network</text>
<polygon fill="none" stroke="black" points="185,-365 185,-384 337,-384 337,-365 185,-365"/>
<polygon fill="#fff8dc" stroke="transparent" points="189,-369 189,-380 333,-380 333,-369 189,-369"/>
<polygon fill="none" stroke="black" points="189,-369 189,-380 333,-380 333,-369 189,-369"/>
<polygon fill="#eeeeee" stroke="transparent" points="92,-346 92,-365 185,-365 185,-346 92,-346"/>
<polygon fill="none" stroke="black" points="92,-346 92,-365 185,-365 185,-346 92,-346"/>
<text text-anchor="start" x="102" y="-353" font-family="Courier,monospace" font-size="10.00">ensemble_size</text>
<polygon fill="none" stroke="black" points="185,-346 185,-365 337,-365 337,-346 185,-346"/>
<text text-anchor="start" x="189" y="-353" font-family="Courier,monospace" font-size="10.00">2</text>
<polygon fill="#eeeeee" stroke="transparent" points="92,-327 92,-346 185,-346 185,-327 92,-327"/>
<polygon fill="none" stroke="black" points="92,-327 92,-346 185,-346 185,-327 92,-327"/>
<text text-anchor="start" x="96" y="-334" font-family="Courier,monospace" font-size="10.00">forecast_steps</text>
<polygon fill="none" stroke="black" points="185,-327 185,-346 337,-346 337,-327 185,-327"/>
<text text-anchor="start" x="189" y="-334" font-family="Courier,monospace" font-size="10.00">12</text>
<polygon fill="#eeeeee" stroke="transparent" points="92,-308 92,-327 185,-327 185,-308 92,-308"/>
<polygon fill="none" stroke="black" points="92,-308 92,-327 185,-327 185,-308 92,-308"/>
<text text-anchor="start" x="120" y="-315" font-family="Courier,monospace" font-size="10.00">loss_class</text>
<polygon fill="none" stroke="black" points="185,-308 185,-327 337,-327 337,-308 185,-308"/>
<text text-anchor="start" x="189" y="-315" font-family="Courier,monospace" font-size="10.00">&#39;crps&#39;</text>
<polygon fill="#eeeeee" stroke="transparent" points="92,-262 92,-308 185,-308 185,-262 92,-262"/>
<polygon fill="none" stroke="black" points="92,-262 92,-308 185,-308 185,-262 92,-262"/>
<text text-anchor="start" x="114" y="-282.5" font-family="Courier,monospace" font-size="10.00">loss_params</text>
<polygon fill="none" stroke="black" points="185,-262 185,-308 337,-308 337,-262 185,-262"/>
<polygon fill="#eeeeee" stroke="transparent" points="189,-285 189,-304 333,-304 333,-285 189,-285"/>
<polygon fill="none" stroke="black" points="189,-285 189,-304 333,-304 333,-285 189,-285"/>
<text text-anchor="start" x="248.5" y="-292" font-family="Courier,monospace" font-size="10.00">dict</text>
<polygon fill="#eeeeee" stroke="transparent" points="189,-266 189,-285 300,-285 300,-266 189,-266"/>
<polygon fill="none" stroke="black" points="189,-266 189,-285 300,-285 300,-266 189,-266"/>
<text text-anchor="start" x="193" y="-273" font-family="Courier,monospace" font-size="10.00">&#39;temporal_lambda&#39;</text>
<polygon fill="none" stroke="black" points="300,-266 300,-285 333,-285 333,-266 300,-266"/>
<text text-anchor="start" x="304" y="-273" font-family="Courier,monospace" font-size="10.00">0.01</text>
<polygon fill="#eeeeee" stroke="transparent" points="92,-243 92,-262 185,-262 185,-243 92,-243"/>
<polygon fill="none" stroke="black" points="92,-243 92,-262 185,-262 185,-243 92,-243"/>
<text text-anchor="start" x="114" y="-250" font-family="Courier,monospace" font-size="10.00">masked_loss</text>
<polygon fill="none" stroke="black" points="185,-243 185,-262 337,-262 337,-243 185,-243"/>
<text text-anchor="start" x="189" y="-250" font-family="Courier,monospace" font-size="10.00">True</text>
<polygon fill="#eeeeee" stroke="transparent" points="92,-224 92,-243 185,-243 185,-224 92,-224"/>
<polygon fill="none" stroke="black" points="92,-224 92,-243 185,-243 185,-224 92,-224"/>
<text text-anchor="start" x="126" y="-231" font-family="Courier,monospace" font-size="10.00">optimizer</text>
<polygon fill="none" stroke="black" points="185,-224 185,-243 337,-243 337,-224 185,-224"/>
<polygon fill="#ffa07a" stroke="transparent" points="189,-228 189,-239 333,-239 333,-228 189,-228"/>
<polygon fill="none" stroke="black" stroke-dasharray="5,2" points="189,-228 189,-239 333,-239 333,-228 189,-228"/>
<polygon fill="#eeeeee" stroke="transparent" stroke-dasharray="5,2" points="92,-205 92,-224 185,-224 185,-205 92,-205"/>
<polygon fill="none" stroke="black" points="92,-205 92,-224 185,-224 185,-205 92,-205"/>
<text text-anchor="start" x="108" y="-212" font-family="Courier,monospace" font-size="10.00">lr_scheduler</text>
<polygon fill="none" stroke="black" points="185,-205 185,-224 337,-224 337,-205 185,-205"/>
<polygon fill="#add8e6" stroke="transparent" points="189,-209 189,-220 333,-220 333,-209 189,-209"/>
<polygon fill="none" stroke="black" stroke-dasharray="5,2" points="189,-209 189,-220 333,-220 333,-209 189,-209"/>
</g>
<!-- 1&#45;&#45;2 -->
<g id="edge1" class="edge">
<title>1:c&#45;&#45;2:c</title>
<path fill="none" stroke="#cbc6b0" stroke-width="3" stroke-opacity="0.501961" d="M257.62,-368.99C238.04,-340.04 138.58,-192.89 91.19,-122.76"/>
</g>
<!-- 3 -->
<g id="node3" class="node">
<title>3</title>
<polygon fill="#ffa07a" stroke="transparent" points="150,-93.5 150,-112.5 234,-112.5 234,-93.5 150,-93.5"/>
<polygon fill="none" stroke="black" stroke-dasharray="5,2" points="150,-93.5 150,-112.5 234,-112.5 234,-93.5 150,-93.5"/>
<text text-anchor="start" x="158" y="-101.5" font-family="Courier,monospace" font-size="8.00">Partial:</text>
<text text-anchor="start" x="195" y="-101.5" font-family="Courier,monospace" font-size="10.00"> Adam</text>
<polygon fill="#eeeeee" stroke="transparent" stroke-dasharray="5,2" points="150,-74.5 150,-93.5 189,-93.5 189,-74.5 150,-74.5"/>
<polygon fill="none" stroke="black" points="150,-74.5 150,-93.5 189,-93.5 189,-74.5 150,-74.5"/>
<text text-anchor="start" x="172" y="-81.5" font-family="Courier,monospace" font-size="10.00">lr</text>
<polygon fill="none" stroke="black" points="189,-74.5 189,-93.5 234,-93.5 234,-74.5 189,-74.5"/>
<text text-anchor="start" x="193" y="-81.5" font-family="Courier,monospace" font-size="10.00">0.0001</text>
<polygon fill="#eeeeee" stroke="transparent" points="150,-55.5 150,-74.5 189,-74.5 189,-55.5 150,-55.5"/>
<polygon fill="none" stroke="black" points="150,-55.5 150,-74.5 189,-74.5 189,-55.5 150,-55.5"/>
<text text-anchor="start" x="154" y="-62.5" font-family="Courier,monospace" font-size="10.00">fused</text>
<polygon fill="none" stroke="black" points="189,-55.5 189,-74.5 234,-74.5 234,-55.5 189,-55.5"/>
<text text-anchor="start" x="193" y="-62.5" font-family="Courier,monospace" font-size="10.00">True</text>
</g>
<!-- 1&#45;&#45;3 -->
<g id="edge2" class="edge">
<title>1:c&#45;&#45;3:c</title>
<path fill="none" stroke="#cb8061" stroke-width="3" stroke-opacity="0.501961" d="M259.01,-227.77C251.19,-211.17 222.15,-149.51 204.97,-113.04"/>
</g>
<!-- 4 -->
<g id="node4" class="node">
<title>4</title>
<polygon fill="#add8e6" stroke="transparent" points="252,-103.5 252,-122.5 406,-122.5 406,-103.5 252,-103.5"/>
<polygon fill="none" stroke="black" stroke-dasharray="5,2" points="252,-103.5 252,-122.5 406,-122.5 406,-103.5 252,-103.5"/>
<text text-anchor="start" x="256" y="-111.5" font-family="Courier,monospace" font-size="8.00">Partial:</text>
<text text-anchor="start" x="293" y="-111.5" font-family="Courier,monospace" font-size="10.00"> ReduceLROnPlateau</text>
<polygon fill="#eeeeee" stroke="transparent" stroke-dasharray="5,2" points="252,-84.5 252,-103.5 338,-103.5 338,-84.5 252,-84.5"/>
<polygon fill="none" stroke="black" points="252,-84.5 252,-103.5 338,-103.5 338,-84.5 252,-84.5"/>
<text text-anchor="start" x="309" y="-91.5" font-family="Courier,monospace" font-size="10.00">mode</text>
<polygon fill="none" stroke="black" points="338,-84.5 338,-103.5 406,-103.5 406,-84.5 338,-84.5"/>
<text text-anchor="start" x="342" y="-91.5" font-family="Courier,monospace" font-size="10.00">&#39;min&#39;</text>
<polygon fill="#eeeeee" stroke="transparent" points="252,-65.5 252,-84.5 338,-84.5 338,-65.5 252,-65.5"/>
<polygon fill="none" stroke="black" points="252,-65.5 252,-84.5 338,-84.5 338,-65.5 252,-65.5"/>
<text text-anchor="start" x="297" y="-72.5" font-family="Courier,monospace" font-size="10.00">factor</text>
<polygon fill="none" stroke="black" points="338,-65.5 338,-84.5 406,-84.5 406,-65.5 338,-65.5"/>
<text text-anchor="start" x="342" y="-72.5" font-family="Courier,monospace" font-size="10.00">0.5</text>
<polygon fill="#eeeeee" stroke="transparent" points="252,-46.5 252,-65.5 338,-65.5 338,-46.5 252,-46.5"/>
<polygon fill="none" stroke="black" points="252,-46.5 252,-65.5 338,-65.5 338,-46.5 252,-46.5"/>
<text text-anchor="start" x="285" y="-53.5" font-family="Courier,monospace" font-size="10.00">patience</text>
<polygon fill="none" stroke="black" points="338,-46.5 338,-65.5 406,-65.5 406,-46.5 338,-46.5"/>
<text text-anchor="start" x="342" y="-53.5" font-family="Courier,monospace" font-size="10.00">10</text>
</g>
<!-- 1&#45;&#45;4 -->
<g id="edge3" class="edge">
<title>1:c&#45;&#45;4:c</title>
<path fill="none" stroke="#8aacb7" stroke-width="3" stroke-opacity="0.501961" d="M263.26,-208.76C270.34,-195.49 292.56,-153.82 309.23,-122.58"/>
</g>
<!-- 0 -->
<g id="node5" class="node">
<title>0</title>
<polygon fill="#ffc0cb" stroke="transparent" points="414,-496 414,-515 521,-515 521,-496 414,-496"/>
<polygon fill="none" stroke="black" points="414,-496 414,-515 521,-515 521,-496 414,-496"/>
<text text-anchor="start" x="418" y="-504" font-family="Courier,monospace" font-size="8.00">Config:</text>
<text text-anchor="start" x="450" y="-504" font-family="Courier,monospace" font-size="10.00"> Experiment</text>
<polygon fill="#eeeeee" stroke="transparent" points="414,-477 414,-496 491,-496 491,-477 414,-477"/>
<polygon fill="none" stroke="black" points="414,-477 414,-496 491,-496 491,-477 414,-477"/>
<text text-anchor="start" x="432" y="-484" font-family="Courier,monospace" font-size="10.00">pl_module</text>
<polygon fill="none" stroke="black" points="491,-477 491,-496 521,-496 521,-477 491,-477"/>
<polygon fill="#90ee90" stroke="transparent" points="495,-481 495,-492 517,-492 517,-481 495,-481"/>
<polygon fill="none" stroke="black" points="495,-481 495,-492 517,-492 517,-481 495,-481"/>
<polygon fill="#eeeeee" stroke="transparent" points="414,-458 414,-477 491,-477 491,-458 414,-458"/>
<polygon fill="none" stroke="black" points="414,-458 414,-477 491,-477 491,-458 414,-458"/>
<text text-anchor="start" x="462" y="-465" font-family="Courier,monospace" font-size="10.00">data</text>
<polygon fill="none" stroke="black" points="491,-458 491,-477 521,-477 521,-458 491,-458"/>
<polygon fill="#ff8c00" stroke="transparent" points="495,-462 495,-473 517,-473 517,-462 495,-462"/>
<polygon fill="none" stroke="black" points="495,-462 495,-473 517,-473 517,-462 495,-462"/>
<polygon fill="#eeeeee" stroke="transparent" points="414,-439 414,-458 491,-458 491,-439 414,-439"/>
<polygon fill="none" stroke="black" points="414,-439 414,-458 491,-458 491,-439 414,-439"/>
<text text-anchor="start" x="444" y="-446" font-family="Courier,monospace" font-size="10.00">trainer</text>
<polygon fill="none" stroke="black" points="491,-439 491,-458 521,-458 521,-439 491,-439"/>
<polygon fill="#adff2f" stroke="transparent" points="495,-443 495,-454 517,-454 517,-443 495,-443"/>
<polygon fill="none" stroke="black" points="495,-443 495,-454 517,-454 517,-443 495,-443"/>
</g>
<!-- 0&#45;&#45;1 -->
<g id="edge4" class="edge">
<title>0:c&#45;&#45;1:c</title>
<path fill="none" stroke="#73be73" stroke-width="3" stroke-opacity="0.501961" d="M497.89,-480.97C474.12,-466.24 402.22,-421.67 336.73,-381.08"/>
</g>
<!-- 5 -->
<g id="node7" class="node">
<title>5</title>
<polygon fill="#ff8c00" stroke="transparent" points="423,-351 423,-370 590,-370 590,-351 423,-351"/>
<polygon fill="none" stroke="black" points="423,-351 423,-370 590,-370 590,-351 423,-351"/>
<text text-anchor="start" x="427" y="-359" font-family="Courier,monospace" font-size="8.00">Config:</text>
<text text-anchor="start" x="459" y="-359" font-family="Courier,monospace" font-size="10.00"> SourceDataDataModule</text>
<polygon fill="#eeeeee" stroke="transparent" points="423,-332 423,-351 539,-351 539,-332 423,-332"/>
<polygon fill="none" stroke="black" points="423,-332 423,-351 539,-351 539,-332 423,-332"/>
<text text-anchor="start" x="444" y="-339" font-family="Courier,monospace" font-size="10.00">dataset_factory</text>
<polygon fill="none" stroke="black" points="539,-332 539,-351 590,-351 590,-332 539,-332"/>
<polygon fill="#8fbc8f" stroke="transparent" points="543,-336 543,-347 586,-347 586,-336 543,-336"/>
<polygon fill="none" stroke="black" stroke-dasharray="5,2" points="543,-336 543,-347 586,-347 586,-336 543,-336"/>
<polygon fill="#eeeeee" stroke="transparent" stroke-dasharray="5,2" points="423,-313 423,-332 539,-332 539,-313 423,-313"/>
<polygon fill="none" stroke="black" points="423,-313 423,-332 539,-332 539,-313 423,-313"/>
<text text-anchor="start" x="468" y="-320" font-family="Courier,monospace" font-size="10.00">train_ratio</text>
<polygon fill="none" stroke="black" points="539,-313 539,-332 590,-332 590,-313 539,-313"/>
<text text-anchor="start" x="543" y="-320" font-family="Courier,monospace" font-size="10.00">0.7</text>
<polygon fill="#eeeeee" stroke="transparent" points="423,-294 423,-313 539,-313 539,-294 423,-294"/>
<polygon fill="none" stroke="black" points="423,-294 423,-313 539,-313 539,-294 423,-294"/>
<text text-anchor="start" x="480" y="-301" font-family="Courier,monospace" font-size="10.00">val_ratio</text>
<polygon fill="none" stroke="black" points="539,-294 539,-313 590,-313 590,-294 539,-294"/>
<text text-anchor="start" x="543" y="-301" font-family="Courier,monospace" font-size="10.00">0.15</text>
<polygon fill="#eeeeee" stroke="transparent" points="423,-275 423,-294 539,-294 539,-275 423,-275"/>
<polygon fill="none" stroke="black" points="423,-275 423,-294 539,-294 539,-275 423,-275"/>
<text text-anchor="start" x="474" y="-282" font-family="Courier,monospace" font-size="10.00">batch_size</text>
<polygon fill="none" stroke="black" points="539,-275 539,-294 590,-294 590,-275 539,-275"/>
<text text-anchor="start" x="543" y="-282" font-family="Courier,monospace" font-size="10.00">16</text>
<polygon fill="#eeeeee" stroke="transparent" points="423,-256 423,-275 539,-275 539,-256 423,-256"/>
<polygon fill="none" stroke="black" points="423,-256 423,-275 539,-275 539,-256 423,-256"/>
<text text-anchor="start" x="468" y="-263" font-family="Courier,monospace" font-size="10.00">num_workers</text>
<polygon fill="none" stroke="black" points="539,-256 539,-275 590,-275 590,-256 539,-256"/>
<text text-anchor="start" x="543" y="-263" font-family="Courier,monospace" font-size="10.00">8</text>
<polygon fill="#eeeeee" stroke="transparent" points="423,-237 423,-256 539,-256 539,-237 423,-237"/>
<polygon fill="none" stroke="black" points="423,-237 423,-256 539,-256 539,-237 423,-237"/>
<text text-anchor="start" x="474" y="-244" font-family="Courier,monospace" font-size="10.00">pin_memory</text>
<polygon fill="none" stroke="black" points="539,-237 539,-256 590,-256 590,-237 539,-237"/>
<text text-anchor="start" x="543" y="-244" font-family="Courier,monospace" font-size="10.00">True</text>
</g>
<!-- 0&#45;&#45;5 -->
<g id="edge6" class="edge">
<title>0:c&#45;&#45;5:c</title>
<path fill="none" stroke="#cb6f00" stroke-width="3" stroke-opacity="0.501961" d="M506,-461.69C506,-448.54 506,-407.56 506,-370.8"/>
</g>
<!-- 7 -->
<g id="node9" class="node">
<title>7</title>
<polygon fill="#adff2f" stroke="transparent" points="958,-349 958,-368 1105,-368 1105,-349 958,-349"/>
<polygon fill="none" stroke="black" points="958,-349 958,-368 1105,-368 1105,-349 958,-349"/>
<text text-anchor="start" x="991" y="-357" font-family="Courier,monospace" font-size="8.00">Config:</text>
<text text-anchor="start" x="1023" y="-357" font-family="Courier,monospace" font-size="10.00"> Trainer</text>
<polygon fill="#eeeeee" stroke="transparent" points="958,-330 958,-349 1033,-349 1033,-330 958,-330"/>
<polygon fill="none" stroke="black" points="958,-330 958,-349 1033,-349 1033,-330 958,-330"/>
<text text-anchor="start" x="962" y="-337" font-family="Courier,monospace" font-size="10.00">accelerator</text>
<polygon fill="none" stroke="black" points="1033,-330 1033,-349 1105,-349 1105,-330 1033,-330"/>
<text text-anchor="start" x="1037" y="-337" font-family="Courier,monospace" font-size="10.00">&#39;auto&#39;</text>
<polygon fill="#eeeeee" stroke="transparent" points="958,-311 958,-330 1033,-330 1033,-311 958,-311"/>
<polygon fill="none" stroke="black" points="958,-311 958,-330 1033,-330 1033,-311 958,-311"/>
<text text-anchor="start" x="992" y="-318" font-family="Courier,monospace" font-size="10.00">logger</text>
<polygon fill="none" stroke="black" points="1033,-311 1033,-330 1105,-330 1105,-311 1033,-311"/>
<polygon fill="#ff6347" stroke="transparent" points="1037,-315 1037,-326 1101,-326 1101,-315 1037,-315"/>
<polygon fill="none" stroke="black" points="1037,-315 1037,-326 1101,-326 1101,-315 1037,-315"/>
<polygon fill="#eeeeee" stroke="transparent" points="958,-259 958,-311 1033,-311 1033,-259 958,-259"/>
<polygon fill="none" stroke="black" points="958,-259 958,-311 1033,-311 1033,-259 958,-259"/>
<text text-anchor="start" x="974" y="-282.5" font-family="Courier,monospace" font-size="10.00">callbacks</text>
<polygon fill="none" stroke="black" points="1033,-259 1033,-311 1105,-311 1105,-259 1033,-259"/>
<polygon fill="#eeeeee" stroke="transparent" points="1037,-288 1037,-307 1101,-307 1101,-288 1037,-288"/>
<polygon fill="none" stroke="black" points="1037,-288 1037,-307 1101,-307 1101,-288 1037,-288"/>
<text text-anchor="start" x="1056.5" y="-295" font-family="Courier,monospace" font-size="10.00">list</text>
<polygon fill="none" stroke="black" points="1037,-272 1037,-288 1053,-288 1053,-272 1037,-272"/>
<polygon fill="#db7093" stroke="transparent" points="1041,-276 1041,-284 1049,-284 1049,-276 1041,-276"/>
<polygon fill="none" stroke="black" points="1041,-276 1041,-284 1049,-284 1049,-276 1041,-276"/>
<polygon fill="none" stroke="black" points="1053,-272 1053,-288 1069,-288 1069,-272 1053,-272"/>
<polygon fill="#f0e68c" stroke="transparent" points="1057,-276 1057,-284 1065,-284 1065,-276 1057,-276"/>
<polygon fill="none" stroke="black" points="1057,-276 1057,-284 1065,-284 1065,-276 1057,-276"/>
<polygon fill="none" stroke="black" points="1069,-272 1069,-288 1085,-288 1085,-272 1069,-272"/>
<polygon fill="#32cd32" stroke="transparent" points="1073,-276 1073,-284 1081,-284 1081,-276 1073,-276"/>
<polygon fill="none" stroke="black" points="1073,-276 1073,-284 1081,-284 1081,-276 1073,-276"/>
<polygon fill="none" stroke="black" points="1085,-272 1085,-288 1101,-288 1101,-272 1085,-272"/>
<polygon fill="#00bfff" stroke="transparent" points="1089,-276 1089,-284 1097,-284 1097,-276 1089,-276"/>
<polygon fill="none" stroke="black" points="1089,-276 1089,-284 1097,-284 1097,-276 1089,-276"/>
<polygon fill="#eeeeee" stroke="transparent" points="1037,-263 1037,-272 1053,-272 1053,-263 1037,-263"/>
<polygon fill="none" stroke="black" points="1037,-263 1037,-272 1053,-272 1053,-263 1037,-263"/>
<text text-anchor="start" x="1043" y="-266.2" font-family="Courier,monospace" font-size="6.00">0</text>
<polygon fill="#eeeeee" stroke="transparent" points="1053,-263 1053,-272 1069,-272 1069,-263 1053,-263"/>
<polygon fill="none" stroke="black" points="1053,-263 1053,-272 1069,-272 1069,-263 1053,-263"/>
<text text-anchor="start" x="1059" y="-266.2" font-family="Courier,monospace" font-size="6.00">1</text>
<polygon fill="#eeeeee" stroke="transparent" points="1069,-263 1069,-272 1085,-272 1085,-263 1069,-263"/>
<polygon fill="none" stroke="black" points="1069,-263 1069,-272 1085,-272 1085,-263 1069,-263"/>
<text text-anchor="start" x="1075" y="-266.2" font-family="Courier,monospace" font-size="6.00">2</text>
<polygon fill="#eeeeee" stroke="transparent" points="1085,-263 1085,-272 1101,-272 1101,-263 1085,-263"/>
<polygon fill="none" stroke="black" points="1085,-263 1085,-272 1101,-272 1101,-263 1085,-263"/>
<text text-anchor="start" x="1091" y="-266.2" font-family="Courier,monospace" font-size="6.00">3</text>
<polygon fill="#eeeeee" stroke="transparent" points="958,-240 958,-259 1033,-259 1033,-240 958,-240"/>
<polygon fill="none" stroke="black" points="958,-240 958,-259 1033,-259 1033,-240 958,-240"/>
<text text-anchor="start" x="968" y="-247" font-family="Courier,monospace" font-size="10.00">max_epochs</text>
<polygon fill="none" stroke="black" points="1033,-240 1033,-259 1105,-259 1105,-240 1033,-240"/>
<text text-anchor="start" x="1037" y="-247" font-family="Courier,monospace" font-size="10.00">100</text>
</g>
<!-- 0&#45;&#45;7 -->
<g id="edge12" class="edge">
<title>0:c&#45;&#45;7:c</title>
<path fill="none" stroke="#8acb25" stroke-width="3" stroke-opacity="0.501961" d="M517.45,-443.9C574.4,-428.5 829.38,-359.53 957.31,-324.93"/>
</g>
<!-- 6 -->
<g id="node6" class="node">
<title>6</title>
<polygon fill="#8fbc8f" stroke="transparent" points="424,-149.5 424,-168.5 706,-168.5 706,-149.5 424,-149.5"/>
<polygon fill="none" stroke="black" stroke-dasharray="5,2" points="424,-149.5 424,-168.5 706,-168.5 706,-149.5 424,-149.5"/>
<text text-anchor="start" x="435" y="-157.5" font-family="Courier,monospace" font-size="8.00">Partial:</text>
<text text-anchor="start" x="472" y="-157.5" font-family="Courier,monospace" font-size="10.00"> SourceDataPrecomputedSamplingDataset</text>
<polygon fill="#eeeeee" stroke="transparent" stroke-dasharray="5,2" points="424,-130.5 424,-149.5 517,-149.5 517,-130.5 424,-130.5"/>
<polygon fill="none" stroke="black" points="424,-130.5 424,-149.5 517,-149.5 517,-130.5 424,-130.5"/>
<text text-anchor="start" x="458" y="-137.5" font-family="Courier,monospace" font-size="10.00">zarr_path</text>
<polygon fill="none" stroke="black" points="517,-130.5 517,-149.5 706,-149.5 706,-130.5 517,-130.5"/>
<text text-anchor="start" x="521" y="-137.5" font-family="Courier,monospace" font-size="10.00">&#39;./data/radar.zarr&#39;</text>
<polygon fill="#eeeeee" stroke="transparent" points="424,-111.5 424,-130.5 517,-130.5 517,-111.5 424,-111.5"/>
<polygon fill="none" stroke="black" points="424,-111.5 424,-130.5 517,-130.5 517,-111.5 424,-111.5"/>
<text text-anchor="start" x="464" y="-118.5" font-family="Courier,monospace" font-size="10.00">csv_path</text>
<polygon fill="none" stroke="black" points="517,-111.5 517,-130.5 706,-130.5 706,-111.5 517,-111.5"/>
<text text-anchor="start" x="521" y="-118.5" font-family="Courier,monospace" font-size="10.00">&#39;./data/sampled_datacubes.csv&#39;</text>
<polygon fill="#eeeeee" stroke="transparent" points="424,-56.5 424,-111.5 517,-111.5 517,-56.5 424,-56.5"/>
<polygon fill="none" stroke="black" points="424,-56.5 424,-111.5 517,-111.5 517,-56.5 424,-56.5"/>
<text text-anchor="start" x="428" y="-81.5" font-family="Courier,monospace" font-size="10.00">standard_names</text>
<polygon fill="none" stroke="black" points="517,-56.5 517,-111.5 706,-111.5 706,-56.5 517,-56.5"/>
<polygon fill="#eeeeee" stroke="transparent" points="521,-88.5 521,-107.5 702,-107.5 702,-88.5 521,-88.5"/>
<polygon fill="none" stroke="black" points="521,-88.5 521,-107.5 702,-107.5 702,-88.5 521,-88.5"/>
<text text-anchor="start" x="599" y="-95.5" font-family="Courier,monospace" font-size="10.00">list</text>
<polygon fill="none" stroke="black" points="521,-69.5 521,-88.5 702,-88.5 702,-69.5 521,-69.5"/>
<text text-anchor="start" x="566" y="-76.5" font-family="Courier,monospace" font-size="10.00">&#39;rainfall_rate&#39;</text>
<polygon fill="#eeeeee" stroke="transparent" points="521,-60.5 521,-69.5 702,-69.5 702,-60.5 521,-60.5"/>
<polygon fill="none" stroke="black" points="521,-60.5 521,-69.5 702,-69.5 702,-60.5 521,-60.5"/>
<text text-anchor="start" x="609.5" y="-63.7" font-family="Courier,monospace" font-size="6.00">0</text>
<polygon fill="#eeeeee" stroke="transparent" points="424,-37.5 424,-56.5 517,-56.5 517,-37.5 424,-37.5"/>
<polygon fill="none" stroke="black" points="424,-37.5 424,-56.5 517,-56.5 517,-37.5 424,-37.5"/>
<text text-anchor="start" x="482" y="-44.5" font-family="Courier,monospace" font-size="10.00">steps</text>
<polygon fill="none" stroke="black" points="517,-37.5 517,-56.5 706,-56.5 706,-37.5 517,-37.5"/>
<text text-anchor="start" x="521" y="-44.5" font-family="Courier,monospace" font-size="10.00">18</text>
<polygon fill="#eeeeee" stroke="transparent" points="424,-18.5 424,-37.5 517,-37.5 517,-18.5 424,-18.5"/>
<polygon fill="none" stroke="black" points="424,-18.5 424,-37.5 517,-37.5 517,-18.5 424,-18.5"/>
<text text-anchor="start" x="446" y="-25.5" font-family="Courier,monospace" font-size="10.00">return_mask</text>
<polygon fill="none" stroke="black" points="517,-18.5 517,-37.5 706,-37.5 706,-18.5 517,-18.5"/>
<text text-anchor="start" x="521" y="-25.5" font-family="Courier,monospace" font-size="10.00">True</text>
<polygon fill="#eeeeee" stroke="transparent" points="424,0.5 424,-18.5 517,-18.5 517,0.5 424,0.5"/>
<polygon fill="none" stroke="black" points="424,0.5 424,-18.5 517,-18.5 517,0.5 424,0.5"/>
<text text-anchor="start" x="434" y="-6.5" font-family="Courier,monospace" font-size="10.00">deterministic</text>
<polygon fill="none" stroke="black" points="517,0.5 517,-18.5 706,-18.5 706,0.5 517,0.5"/>
<text text-anchor="start" x="521" y="-6.5" font-family="Courier,monospace" font-size="10.00">False</text>
</g>
<!-- 5&#45;&#45;6 -->
<g id="edge5" class="edge">
<title>5:c&#45;&#45;6:c</title>
<path fill="none" stroke="#729672" stroke-width="3" stroke-opacity="0.501961" d="M565,-335.66C565,-314.34 565,-233.34 565,-169.21"/>
</g>
<!-- 8 -->
<g id="node8" class="node">
<title>8</title>
<polygon fill="#ff6347" stroke="transparent" points="1084,-93.5 1084,-112.5 1233,-112.5 1233,-93.5 1084,-93.5"/>
<polygon fill="none" stroke="black" points="1084,-93.5 1084,-112.5 1233,-112.5 1233,-93.5 1084,-93.5"/>
<text text-anchor="start" x="1088" y="-101.5" font-family="Courier,monospace" font-size="8.00">Config:</text>
<text text-anchor="start" x="1120" y="-101.5" font-family="Courier,monospace" font-size="10.00"> TensorBoardLogger</text>
<polygon fill="#eeeeee" stroke="transparent" points="1084,-74.5 1084,-93.5 1158,-93.5 1158,-74.5 1084,-74.5"/>
<polygon fill="none" stroke="black" points="1084,-74.5 1084,-93.5 1158,-93.5 1158,-74.5 1084,-74.5"/>
<text text-anchor="start" x="1105" y="-81.5" font-family="Courier,monospace" font-size="10.00">save_dir</text>
<polygon fill="none" stroke="black" points="1158,-74.5 1158,-93.5 1233,-93.5 1233,-74.5 1158,-74.5"/>
<text text-anchor="start" x="1162" y="-81.5" font-family="Courier,monospace" font-size="10.00">&#39;logs&#39;</text>
<polygon fill="#eeeeee" stroke="transparent" points="1084,-55.5 1084,-74.5 1158,-74.5 1158,-55.5 1084,-55.5"/>
<polygon fill="none" stroke="black" points="1084,-55.5 1084,-74.5 1158,-74.5 1158,-55.5 1084,-55.5"/>
<text text-anchor="start" x="1129" y="-62.5" font-family="Courier,monospace" font-size="10.00">name</text>
<polygon fill="none" stroke="black" points="1158,-55.5 1158,-74.5 1233,-74.5 1233,-55.5 1158,-55.5"/>
<text text-anchor="start" x="1162" y="-62.5" font-family="Courier,monospace" font-size="10.00">&#39;mlcast&#39;</text>
</g>
<!-- 7&#45;&#45;8 -->
<g id="edge7" class="edge">
<title>7:c&#45;&#45;8:c</title>
<path fill="none" stroke="#cb4f38" stroke-width="3" stroke-opacity="0.501961" d="M1071.03,-314.66C1081.14,-288.01 1126.53,-168.42 1147.42,-113.38"/>
</g>
<!-- 9 -->
<g id="node10" class="node">
<title>9</title>
<polygon fill="#db7093" stroke="transparent" points="724,-103.5 724,-122.5 862,-122.5 862,-103.5 724,-103.5"/>
<polygon fill="none" stroke="black" points="724,-103.5 724,-122.5 862,-122.5 862,-103.5 724,-103.5"/>
<text text-anchor="start" x="728.5" y="-111.5" font-family="Courier,monospace" font-size="8.00">Config:</text>
<text text-anchor="start" x="760.5" y="-111.5" font-family="Courier,monospace" font-size="10.00"> ModelCheckpoint</text>
<polygon fill="#eeeeee" stroke="transparent" points="724,-84.5 724,-103.5 793,-103.5 793,-84.5 724,-84.5"/>
<polygon fill="none" stroke="black" points="724,-84.5 724,-103.5 793,-103.5 793,-84.5 724,-84.5"/>
<text text-anchor="start" x="746" y="-91.5" font-family="Courier,monospace" font-size="10.00">monitor</text>
<polygon fill="none" stroke="black" points="793,-84.5 793,-103.5 862,-103.5 862,-84.5 793,-84.5"/>
<text text-anchor="start" x="797" y="-91.5" font-family="Courier,monospace" font-size="10.00">&#39;val_loss&#39;</text>
<polygon fill="#eeeeee" stroke="transparent" points="724,-65.5 724,-84.5 793,-84.5 793,-65.5 724,-65.5"/>
<polygon fill="none" stroke="black" points="724,-65.5 724,-84.5 793,-84.5 793,-65.5 724,-65.5"/>
<text text-anchor="start" x="728" y="-72.5" font-family="Courier,monospace" font-size="10.00">save_top_k</text>
<polygon fill="none" stroke="black" points="793,-65.5 793,-84.5 862,-84.5 862,-65.5 793,-65.5"/>
<text text-anchor="start" x="797" y="-72.5" font-family="Courier,monospace" font-size="10.00">1</text>
<polygon fill="#eeeeee" stroke="transparent" points="724,-46.5 724,-65.5 793,-65.5 793,-46.5 724,-46.5"/>
<polygon fill="none" stroke="black" points="724,-46.5 724,-65.5 793,-65.5 793,-46.5 724,-46.5"/>
<text text-anchor="start" x="764" y="-53.5" font-family="Courier,monospace" font-size="10.00">mode</text>
<polygon fill="none" stroke="black" points="793,-46.5 793,-65.5 862,-65.5 862,-46.5 793,-46.5"/>
<text text-anchor="start" x="797" y="-53.5" font-family="Courier,monospace" font-size="10.00">&#39;min&#39;</text>
</g>
<!-- 7&#45;&#45;9 -->
<g id="edge8" class="edge">
<title>7:c&#45;&#45;9:c</title>
<path fill="none" stroke="#af5975" stroke-width="3" stroke-opacity="0.501961" d="M1040.95,-276.94C1021.19,-266.8 933.21,-220.51 871,-169 854.35,-155.21 837.73,-138.02 824.15,-122.84"/>
</g>
<!-- 10 -->
<g id="node11" class="node">
<title>10</title>
<polygon fill="#f0e68c" stroke="transparent" points="880,-103.5 880,-122.5 1066,-122.5 1066,-103.5 880,-103.5"/>
<polygon fill="none" stroke="black" points="880,-103.5 880,-122.5 1066,-122.5 1066,-103.5 880,-103.5"/>
<text text-anchor="start" x="908.5" y="-111.5" font-family="Courier,monospace" font-size="8.00">Config:</text>
<text text-anchor="start" x="940.5" y="-111.5" font-family="Courier,monospace" font-size="10.00"> ModelCheckpoint</text>
<polygon fill="#eeeeee" stroke="transparent" points="880,-84.5 880,-103.5 949,-103.5 949,-84.5 880,-84.5"/>
<polygon fill="none" stroke="black" points="880,-84.5 880,-103.5 949,-103.5 949,-84.5 880,-84.5"/>
<text text-anchor="start" x="902" y="-91.5" font-family="Courier,monospace" font-size="10.00">monitor</text>
<polygon fill="none" stroke="black" points="949,-84.5 949,-103.5 1066,-103.5 1066,-84.5 949,-84.5"/>
<text text-anchor="start" x="953" y="-91.5" font-family="Courier,monospace" font-size="10.00">&#39;train_loss_epoch&#39;</text>
<polygon fill="#eeeeee" stroke="transparent" points="880,-65.5 880,-84.5 949,-84.5 949,-65.5 880,-65.5"/>
<polygon fill="none" stroke="black" points="880,-65.5 880,-84.5 949,-84.5 949,-65.5 880,-65.5"/>
<text text-anchor="start" x="884" y="-72.5" font-family="Courier,monospace" font-size="10.00">save_top_k</text>
<polygon fill="none" stroke="black" points="949,-65.5 949,-84.5 1066,-84.5 1066,-65.5 949,-65.5"/>
<text text-anchor="start" x="953" y="-72.5" font-family="Courier,monospace" font-size="10.00">1</text>
<polygon fill="#eeeeee" stroke="transparent" points="880,-46.5 880,-65.5 949,-65.5 949,-46.5 880,-46.5"/>
<polygon fill="none" stroke="black" points="880,-46.5 880,-65.5 949,-65.5 949,-46.5 880,-46.5"/>
<text text-anchor="start" x="920" y="-53.5" font-family="Courier,monospace" font-size="10.00">mode</text>
<polygon fill="none" stroke="black" points="949,-46.5 949,-65.5 1066,-65.5 1066,-46.5 949,-46.5"/>
<text text-anchor="start" x="953" y="-53.5" font-family="Courier,monospace" font-size="10.00">&#39;min&#39;</text>
</g>
<!-- 7&#45;&#45;10 -->
<g id="edge9" class="edge">
<title>7:c&#45;&#45;10:c</title>
<path fill="none" stroke="#bfb770" stroke-width="3" stroke-opacity="0.501961" d="M1059.62,-275.96C1051.81,-258.8 1012.78,-172.97 989.86,-122.58"/>
</g>
<!-- 11 -->
<g id="node12" class="node">
<title>11</title>
<polygon fill="#32cd32" stroke="transparent" points="1251,-103.5 1251,-122.5 1377,-122.5 1377,-103.5 1251,-103.5"/>
<polygon fill="none" stroke="black" points="1251,-103.5 1251,-122.5 1377,-122.5 1377,-103.5 1251,-103.5"/>
<text text-anchor="start" x="1255.5" y="-111.5" font-family="Courier,monospace" font-size="8.00">Config:</text>
<text text-anchor="start" x="1287.5" y="-111.5" font-family="Courier,monospace" font-size="10.00"> EarlyStopping</text>
<polygon fill="#eeeeee" stroke="transparent" points="1251,-84.5 1251,-103.5 1308,-103.5 1308,-84.5 1251,-84.5"/>
<polygon fill="none" stroke="black" points="1251,-84.5 1251,-103.5 1308,-103.5 1308,-84.5 1251,-84.5"/>
<text text-anchor="start" x="1261" y="-91.5" font-family="Courier,monospace" font-size="10.00">monitor</text>
<polygon fill="none" stroke="black" points="1308,-84.5 1308,-103.5 1377,-103.5 1377,-84.5 1308,-84.5"/>
<text text-anchor="start" x="1312" y="-91.5" font-family="Courier,monospace" font-size="10.00">&#39;val_loss&#39;</text>
<polygon fill="#eeeeee" stroke="transparent" points="1251,-65.5 1251,-84.5 1308,-84.5 1308,-65.5 1251,-65.5"/>
<polygon fill="none" stroke="black" points="1251,-65.5 1251,-84.5 1308,-84.5 1308,-65.5 1251,-65.5"/>
<text text-anchor="start" x="1255" y="-72.5" font-family="Courier,monospace" font-size="10.00">patience</text>
<polygon fill="none" stroke="black" points="1308,-65.5 1308,-84.5 1377,-84.5 1377,-65.5 1308,-65.5"/>
<text text-anchor="start" x="1312" y="-72.5" font-family="Courier,monospace" font-size="10.00">100</text>
<polygon fill="#eeeeee" stroke="transparent" points="1251,-46.5 1251,-65.5 1308,-65.5 1308,-46.5 1251,-46.5"/>
<polygon fill="none" stroke="black" points="1251,-46.5 1251,-65.5 1308,-65.5 1308,-46.5 1251,-46.5"/>
<text text-anchor="start" x="1279" y="-53.5" font-family="Courier,monospace" font-size="10.00">mode</text>
<polygon fill="none" stroke="black" points="1308,-46.5 1308,-65.5 1377,-65.5 1377,-46.5 1308,-46.5"/>
<text text-anchor="start" x="1312" y="-53.5" font-family="Courier,monospace" font-size="10.00">&#39;min&#39;</text>
</g>
<!-- 7&#45;&#45;11 -->
<g id="edge10" class="edge">
<title>7:c&#45;&#45;11:c</title>
<path fill="none" stroke="#28a328" stroke-width="3" stroke-opacity="0.501961" d="M1081.38,-276.67C1101.22,-265.98 1184.21,-220.06 1242,-169 1257.64,-155.19 1273.01,-138 1285.51,-122.81"/>
</g>
<!-- 12 -->
<g id="node13" class="node">
<title>12</title>
<polygon fill="#00bfff" stroke="transparent" points="1396,-84.5 1396,-103.5 1557,-103.5 1557,-84.5 1396,-84.5"/>
<polygon fill="none" stroke="black" points="1396,-84.5 1396,-103.5 1557,-103.5 1557,-84.5 1396,-84.5"/>
<text text-anchor="start" x="1400" y="-92.5" font-family="Courier,monospace" font-size="8.00">Config:</text>
<text text-anchor="start" x="1432" y="-92.5" font-family="Courier,monospace" font-size="10.00"> LearningRateMonitor</text>
<polygon fill="#eeeeee" stroke="transparent" points="1396,-65.5 1396,-84.5 1506,-84.5 1506,-65.5 1396,-65.5"/>
<polygon fill="none" stroke="black" points="1396,-65.5 1396,-84.5 1506,-84.5 1506,-65.5 1396,-65.5"/>
<text text-anchor="start" x="1405" y="-72.5" font-family="Courier,monospace" font-size="10.00">logging_interval</text>
<polygon fill="none" stroke="black" points="1506,-65.5 1506,-84.5 1557,-84.5 1557,-65.5 1506,-65.5"/>
<text text-anchor="start" x="1510" y="-72.5" font-family="Courier,monospace" font-size="10.00">&#39;step&#39;</text>
</g>
<!-- 7&#45;&#45;12 -->
<g id="edge11" class="edge">
<title>7:c&#45;&#45;12:c</title>
<path fill="none" stroke="#0098cb" stroke-width="3" stroke-opacity="0.501961" d="M1097.06,-278.11C1123.93,-272.08 1278.31,-235.55 1386,-169 1415.37,-150.85 1443.61,-122.23 1460.39,-103.66"/>
</g>
</g>
</svg>
