<?xml version="1.0" encoding="UTF-8" standalone="no"?>
<!DOCTYPE svg PUBLIC "-//W3C//DTD SVG 1.1//EN"
 "http://www.w3.org/Graphics/SVG/1.1/DTD/svg11.dtd">
<!-- Generated by graphviz version 2.43.0 (0)
 -->
<!-- Title: %3 Pages: 1 -->
<svg width="1565pt" height="569pt"
 viewBox="0.00 0.00 1564.50 569.00" xmlns="http://www.w3.org/2000/svg" xmlns:xlink="http://www.w3.org/1999/xlink">
<g id="graph0" class="graph" transform="scale(1 1) rotate(0) translate(4 565)">
<title>%3</title>
<polygon fill="white" stroke="transparent" points="-4,4 -4,-565 1560.5,-565 1560.5,4 -4,4"/>
<!-- 2 -->
<g id="node1" class="node">
<title>2</title>
<polygon fill="#fff8dc" stroke="transparent" points="0,-122 0,-141 132,-141 132,-122 0,-122"/>
<polygon fill="none" stroke="black" points="0,-122 0,-141 132,-141 132,-122 0,-122"/>
<text text-anchor="start" x="10.5" y="-130" font-family="Courier,monospace" font-size="8.00">Config:</text>
<text text-anchor="start" x="42.5" y="-130" font-family="Courier,monospace" font-size="10.00"> ConvGruModel</text>
<polygon fill="#eeeeee" stroke="transparent" points="0,-103 0,-122 93,-122 93,-103 0,-103"/>
<polygon fill="none" stroke="black" points="0,-103 0,-122 93,-122 93,-103 0,-103"/>
<text text-anchor="start" x="22" y="-110" font-family="Courier,monospace" font-size="10.00">input_steps</text>
<polygon fill="none" stroke="black" points="93,-103 93,-122 132,-122 132,-103 93,-103"/>
<text text-anchor="start" x="97" y="-110" font-family="Courier,monospace" font-size="10.00">6</text>
<polygon fill="#eeeeee" stroke="transparent" points="0,-84 0,-103 93,-103 93,-84 0,-84"/>
<polygon fill="none" stroke="black" points="0,-84 0,-103 93,-103 93,-84 0,-84"/>
<text text-anchor="start" x="4" y="-91" font-family="Courier,monospace" font-size="10.00">forecast_steps</text>
<polygon fill="none" stroke="black" points="93,-84 93,-103 132,-103 132,-84 93,-84"/>
<text text-anchor="start" x="97" y="-91" font-family="Courier,monospace" font-size="10.00">12</text>
<polygon fill="#eeeeee" stroke="transparent" points="0,-65 0,-84 93,-84 93,-65 0,-65"/>
<polygon fill="none" stroke="black" points="0,-65 0,-84 93,-84 93,-65 0,-65"/>
<text text-anchor="start" x="10" y="-72" font-family="Courier,monospace" font-size="10.00">ensemble_size</text>
<polygon fill="none" stroke="black" points="93,-65 93,-84 132,-84 132,-65 93,-65"/>
<text text-anchor="start" x="97" y="-72" font-family="Courier,monospace" font-size="10.00">2</text>
<polygon fill="#eeeeee" stroke="transparent" points="0,-46 0,-65 93,-65 93,-46 0,-46"/>
<polygon fill="none" stroke="black" points="0,-46 0,-65 93,-65 93,-46 0,-46"/>
<text text-anchor="start" x="4" y="-53" font-family="Courier,monospace" font-size="10.00">input_channels</text>
<polygon fill="none" stroke="black" points="93,-46 93,-65 132,-65 132,-46 93,-46"/>
<text text-anchor="start" x="97" y="-53" font-family="Courier,monospace" font-size="10.00">1</text>
<polygon fill="#eeeeee" stroke="transparent" points="0,-27 0,-46 93,-46 93,-27 0,-27"/>
<polygon fill="none" stroke="black" points="0,-27 0,-46 93,-46 93,-27 0,-27"/>
<text text-anchor="start" x="28" y="-34" font-family="Courier,monospace" font-size="10.00">num_blocks</text>
<polygon fill="none" stroke="black" points="93,-27 93,-46 132,-46 132,-27 93,-27"/>
<text text-anchor="start" x="97" y="-34" font-family="Courier,monospace" font-size="10.00">5</text>
<polygon fill="#eeeeee" stroke="transparent" points="0,-8 0,-27 93,-27 93,-8 0,-8"/>
<polygon fill="none" stroke="black" points="0,-8 0,-27 93,-27 93,-8 0,-8"/>
<text text-anchor="start" x="10" y="-15" font-family="Courier,monospace" font-size="10.00">noisy_decoder</text>
<polygon fill="none" stroke="black" points="93,-8 93,-27 132,-27 132,-8 93,-8"/>
<text text-anchor="start" x="97" y="-15" font-family="Courier,monospace" font-size="10.00">False</text>
</g>
<!-- 1 -->
<g id="node2" class="node">
<title>1</title>
<polygon fill="#90ee90" stroke="transparent" points="56,-378.5 56,-397.5 295,-397.5 295,-378.5 56,-378.5"/>
<polygon fill="none" stroke="black" points="56,-378.5 56,-397.5 295,-397.5 295,-378.5 56,-378.5"/>
<text text-anchor="start" x="60" y="-386.5" font-family="Courier,monospace" font-size="8.00">Config:</text>
<text text-anchor="start" x="92" y="-386.5" font-family="Courier,monospace" font-size="10.00"> OutputSpaceForecastingTaskModule</text>
<polygon fill="#eeeeee" stroke="transparent" points="56,-359.5 56,-378.5 140,-378.5 140,-359.5 56,-359.5"/>
<polygon fill="none" stroke="black" points="56,-359.5 56,-378.5 140,-378.5 140,-359.5 56,-359.5"/>
<text text-anchor="start" x="93" y="-366.5" font-family="Courier,monospace" font-size="10.00">network</text>
<polygon fill="none" stroke="black" points="140,-359.5 140,-378.5 295,-378.5 295,-359.5 140,-359.5"/>
<polygon fill="#fff8dc" stroke="transparent" points="144,-363.5 144,-374.5 291,-374.5 291,-363.5 144,-363.5"/>
<polygon fill="none" stroke="black" points="144,-363.5 144,-374.5 291,-374.5 291,-363.5 144,-363.5"/>
<polygon fill="#eeeeee" stroke="transparent" points="56,-340.5 56,-359.5 140,-359.5 140,-340.5 56,-340.5"/>
<polygon fill="none" stroke="black" points="56,-340.5 56,-359.5 140,-359.5 140,-340.5 56,-340.5"/>
<text text-anchor="start" x="75" y="-347.5" font-family="Courier,monospace" font-size="10.00">loss_class</text>
<polygon fill="none" stroke="black" points="140,-340.5 140,-359.5 295,-359.5 295,-340.5 140,-340.5"/>
<text text-anchor="start" x="144" y="-347.5" font-family="Courier,monospace" font-size="10.00">&#39;crps&#39;</text>
<polygon fill="#eeeeee" stroke="transparent" points="56,-294.5 56,-340.5 140,-340.5 140,-294.5 56,-294.5"/>
<polygon fill="none" stroke="black" points="56,-294.5 56,-340.5 140,-340.5 140,-294.5 56,-294.5"/>
<text text-anchor="start" x="69" y="-315" font-family="Courier,monospace" font-size="10.00">loss_params</text>
<polygon fill="none" stroke="black" points="140,-294.5 140,-340.5 295,-340.5 295,-294.5 140,-294.5"/>
<polygon fill="#eeeeee" stroke="transparent" points="144,-317.5 144,-336.5 291,-336.5 291,-317.5 144,-317.5"/>
<polygon fill="none" stroke="black" points="144,-317.5 144,-336.5 291,-336.5 291,-317.5 144,-317.5"/>
<text text-anchor="start" x="205" y="-324.5" font-family="Courier,monospace" font-size="10.00">dict</text>
<polygon fill="#eeeeee" stroke="transparent" points="144,-298.5 144,-317.5 257,-317.5 257,-298.5 144,-298.5"/>
<polygon fill="none" stroke="black" points="144,-298.5 144,-317.5 257,-317.5 257,-298.5 144,-298.5"/>
<text text-anchor="start" x="150" y="-305.5" font-family="Courier,monospace" font-size="10.00">&#39;temporal_lambda&#39;</text>
<polygon fill="none" stroke="black" points="257,-298.5 257,-317.5 291,-317.5 291,-298.5 257,-298.5"/>
<text text-anchor="start" x="261" y="-305.5" font-family="Courier,monospace" font-size="10.00">0.01</text>
<polygon fill="#eeeeee" stroke="transparent" points="56,-275.5 56,-294.5 140,-294.5 140,-275.5 56,-275.5"/>
<polygon fill="none" stroke="black" points="56,-275.5 56,-294.5 140,-294.5 140,-275.5 56,-275.5"/>
<text text-anchor="start" x="69" y="-282.5" font-family="Courier,monospace" font-size="10.00">masked_loss</text>
<polygon fill="none" stroke="black" points="140,-275.5 140,-294.5 295,-294.5 295,-275.5 140,-275.5"/>
<text text-anchor="start" x="144" y="-282.5" font-family="Courier,monospace" font-size="10.00">True</text>
<polygon fill="#eeeeee" stroke="transparent" points="56,-256.5 56,-275.5 140,-275.5 140,-256.5 56,-256.5"/>
<polygon fill="none" stroke="black" points="56,-256.5 56,-275.5 140,-275.5 140,-256.5 56,-256.5"/>
<text text-anchor="start" x="81" y="-263.5" font-family="Courier,monospace" font-size="10.00">optimizer</text>
<polygon fill="none" stroke="black" points="140,-256.5 140,-275.5 295,-275.5 295,-256.5 140,-256.5"/>
<polygon fill="#ffa07a" stroke="transparent" points="144,-260.5 144,-271.5 291,-271.5 291,-260.5 144,-260.5"/>
<polygon fill="none" stroke="black" stroke-dasharray="5,2" points="144,-260.5 144,-271.5 291,-271.5 291,-260.5 144,-260.5"/>
<polygon fill="#eeeeee" stroke="transparent" stroke-dasharray="5,2" points="56,-237.5 56,-256.5 140,-256.5 140,-237.5 56,-237.5"/>
<polygon fill="none" stroke="black" points="56,-237.5 56,-256.5 140,-256.5 140,-237.5 56,-237.5"/>
<text text-anchor="start" x="63" y="-244.5" font-family="Courier,monospace" font-size="10.00">lr_scheduler</text>
<polygon fill="none" stroke="black" points="140,-237.5 140,-256.5 295,-256.5 295,-237.5 140,-237.5"/>
<polygon fill="#add8e6" stroke="transparent" points="144,-241.5 144,-252.5 291,-252.5 291,-241.5 144,-241.5"/>
<polygon fill="none" stroke="black" stroke-dasharray="5,2" points="144,-241.5 144,-252.5 291,-252.5 291,-241.5 144,-241.5"/>
</g>
<!-- 1&#45;&#45;2 -->
<g id="edge1" class="edge">
<title>1:c&#45;&#45;2:c</title>
<path fill="none" stroke="#cbc6b0" stroke-width="3" stroke-opacity="0.501961" d="M215.36,-363.42C201.9,-337.52 139.95,-218.3 100.18,-141.77"/>
</g>
<!-- 3 -->
<g id="node3" class="node">
<title>3</title>
<polygon fill="#ffa07a" stroke="transparent" points="150,-84 150,-103 234,-103 234,-84 150,-84"/>
<polygon fill="none" stroke="black" stroke-dasharray="5,2" points="150,-84 150,-103 234,-103 234,-84 150,-84"/>
<text text-anchor="start" x="158" y="-92" font-family="Courier,monospace" font-size="8.00">Partial:</text>
<text text-anchor="start" x="195" y="-92" font-family="Courier,monospace" font-size="10.00"> Adam</text>
<polygon fill="#eeeeee" stroke="transparent" stroke-dasharray="5,2" points="150,-65 150,-84 189,-84 189,-65 150,-65"/>
<polygon fill="none" stroke="black" points="150,-65 150,-84 189,-84 189,-65 150,-65"/>
<text text-anchor="start" x="172" y="-72" font-family="Courier,monospace" font-size="10.00">lr</text>
<polygon fill="none" stroke="black" points="189,-65 189,-84 234,-84 234,-65 189,-65"/>
<text text-anchor="start" x="193" y="-72" font-family="Courier,monospace" font-size="10.00">0.0001</text>
<polygon fill="#eeeeee" stroke="transparent" points="150,-46 150,-65 189,-65 189,-46 150,-46"/>
<polygon fill="none" stroke="black" points="150,-46 150,-65 189,-65 189,-46 150,-46"/>
<text text-anchor="start" x="154" y="-53" font-family="Courier,monospace" font-size="10.00">fused</text>
<polygon fill="none" stroke="black" points="189,-46 189,-65 234,-65 234,-46 189,-46"/>
<text text-anchor="start" x="193" y="-53" font-family="Courier,monospace" font-size="10.00">True</text>
</g>
<!-- 1&#45;&#45;3 -->
<g id="edge2" class="edge">
<title>1:c&#45;&#45;3:c</title>
<path fill="none" stroke="#cb8061" stroke-width="3" stroke-opacity="0.501961" d="M217.41,-260.21C214.57,-239.6 202.2,-149.92 195.82,-103.73"/>
</g>
<!-- 4 -->
<g id="node4" class="node">
<title>4</title>
<polygon fill="#add8e6" stroke="transparent" points="252,-94 252,-113 406,-113 406,-94 252,-94"/>
<polygon fill="none" stroke="black" stroke-dasharray="5,2" points="252,-94 252,-113 406,-113 406,-94 252,-94"/>
<text text-anchor="start" x="256" y="-102" font-family="Courier,monospace" font-size="8.00">Partial:</text>
<text text-anchor="start" x="293" y="-102" font-family="Courier,monospace" font-size="10.00"> ReduceLROnPlateau</text>
<polygon fill="#eeeeee" stroke="transparent" stroke-dasharray="5,2" points="252,-75 252,-94 338,-94 338,-75 252,-75"/>
<polygon fill="none" stroke="black" points="252,-75 252,-94 338,-94 338,-75 252,-75"/>
<text text-anchor="start" x="309" y="-82" font-family="Courier,monospace" font-size="10.00">mode</text>
<polygon fill="none" stroke="black" points="338,-75 338,-94 406,-94 406,-75 338,-75"/>
<text text-anchor="start" x="342" y="-82" font-family="Courier,monospace" font-size="10.00">&#39;min&#39;</text>
<polygon fill="#eeeeee" stroke="transparent" points="252,-56 252,-75 338,-75 338,-56 252,-56"/>
<polygon fill="none" stroke="black" points="252,-56 252,-75 338,-75 338,-56 252,-56"/>
<text text-anchor="start" x="297" y="-63" font-family="Courier,monospace" font-size="10.00">factor</text>
<polygon fill="none" stroke="black" points="338,-56 338,-75 406,-75 406,-56 338,-56"/>
<text text-anchor="start" x="342" y="-63" font-family="Courier,monospace" font-size="10.00">0.5</text>
<polygon fill="#eeeeee" stroke="transparent" points="252,-37 252,-56 338,-56 338,-37 252,-37"/>
<polygon fill="none" stroke="black" points="252,-37 252,-56 338,-56 338,-37 252,-37"/>
<text text-anchor="start" x="285" y="-44" font-family="Courier,monospace" font-size="10.00">patience</text>
<polygon fill="none" stroke="black" points="338,-37 338,-56 406,-56 406,-37 338,-37"/>
<text text-anchor="start" x="342" y="-44" font-family="Courier,monospace" font-size="10.00">10</text>
</g>
<!-- 1&#45;&#45;4 -->
<g id="edge3" class="edge">
<title>1:c&#45;&#45;4:c</title>
<path fill="none" stroke="#8aacb7" stroke-width="3" stroke-opacity="0.501961" d="M220.74,-241.31C232.13,-223.93 276.37,-156.37 304.65,-113.18"/>
</g>
<!-- 0 -->
<g id="node5" class="node">
<title>0</title>
<polygon fill="#ffc0cb" stroke="transparent" points="396,-542 396,-561 503,-561 503,-542 396,-542"/>
<polygon fill="none" stroke="black" points="396,-542 396,-561 503,-561 503,-542 396,-542"/>
<text text-anchor="start" x="400" y="-550" font-family="Courier,monospace" font-size="8.00">Config:</text>
<text text-anchor="start" x="432" y="-550" font-family="Courier,monospace" font-size="10.00"> Experiment</text>
<polygon fill="#eeeeee" stroke="transparent" points="396,-523 396,-542 473,-542 473,-523 396,-523"/>
<polygon fill="none" stroke="black" points="396,-523 396,-542 473,-542 473,-523 396,-523"/>
<text text-anchor="start" x="414" y="-530" font-family="Courier,monospace" font-size="10.00">pl_module</text>
<polygon fill="none" stroke="black" points="473,-523 473,-542 503,-542 503,-523 473,-523"/>
<polygon fill="#90ee90" stroke="transparent" points="477,-527 477,-538 499,-538 499,-527 477,-527"/>
<polygon fill="none" stroke="black" points="477,-527 477,-538 499,-538 499,-527 477,-527"/>
<polygon fill="#eeeeee" stroke="transparent" points="396,-504 396,-523 473,-523 473,-504 396,-504"/>
<polygon fill="none" stroke="black" points="396,-504 396,-523 473,-523 473,-504 396,-504"/>
<text text-anchor="start" x="444" y="-511" font-family="Courier,monospace" font-size="10.00">data</text>
<polygon fill="none" stroke="black" points="473,-504 473,-523 503,-523 503,-504 473,-504"/>
<polygon fill="#ff8c00" stroke="transparent" points="477,-508 477,-519 499,-519 499,-508 477,-508"/>
<polygon fill="none" stroke="black" points="477,-508 477,-519 499,-519 499,-508 477,-508"/>
<polygon fill="#eeeeee" stroke="transparent" points="396,-485 396,-504 473,-504 473,-485 396,-485"/>
<polygon fill="none" stroke="black" points="396,-485 396,-504 473,-504 473,-485 396,-485"/>
<text text-anchor="start" x="426" y="-492" font-family="Courier,monospace" font-size="10.00">trainer</text>
<polygon fill="none" stroke="black" points="473,-485 473,-504 503,-504 503,-485 473,-485"/>
<polygon fill="#adff2f" stroke="transparent" points="477,-489 477,-500 499,-500 499,-489 477,-489"/>
<polygon fill="none" stroke="black" points="477,-489 477,-500 499,-500 499,-489 477,-489"/>
</g>
<!-- 0&#45;&#45;1 -->
<g id="edge4" class="edge">
<title>0:c&#45;&#45;1:c</title>
<path fill="none" stroke="#73be73" stroke-width="3" stroke-opacity="0.501961" d="M476.81,-527.14C450.29,-515.41 381.95,-483.91 330,-449 307.23,-433.69 283.94,-415.6 262.57,-397.84"/>
</g>
<!-- 5 -->
<g id="node7" class="node">
<title>5</title>
<polygon fill="#ff8c00" stroke="transparent" points="339,-429.5 339,-448.5 637,-448.5 637,-429.5 339,-429.5"/>
<polygon fill="none" stroke="black" points="339,-429.5 339,-448.5 637,-448.5 637,-429.5 339,-429.5"/>
<text text-anchor="start" x="405.5" y="-437.5" font-family="Courier,monospace" font-size="8.00">Config:</text>
<text text-anchor="start" x="437.5" y="-437.5" font-family="Courier,monospace" font-size="10.00"> ForecastingDataModule</text>
<polygon fill="#eeeeee" stroke="transparent" points="339,-410.5 339,-429.5 492,-429.5 492,-410.5 339,-410.5"/>
<polygon fill="none" stroke="black" points="339,-410.5 339,-429.5 492,-429.5 492,-410.5 339,-410.5"/>
<text text-anchor="start" x="343" y="-417.5" font-family="Courier,monospace" font-size="10.00">sequence_dataset_factory</text>
<polygon fill="none" stroke="black" points="492,-410.5 492,-429.5 637,-429.5 637,-410.5 492,-410.5"/>
<polygon fill="#8fbc8f" stroke="transparent" points="496,-414.5 496,-425.5 633,-425.5 633,-414.5 496,-414.5"/>
<polygon fill="none" stroke="black" stroke-dasharray="5,2" points="496,-414.5 496,-425.5 633,-425.5 633,-414.5 496,-414.5"/>
<polygon fill="#eeeeee" stroke="transparent" stroke-dasharray="5,2" points="339,-391.5 339,-410.5 492,-410.5 492,-391.5 339,-391.5"/>
<polygon fill="none" stroke="black" points="339,-391.5 339,-410.5 492,-410.5 492,-391.5 339,-391.5"/>
<text text-anchor="start" x="421" y="-398.5" font-family="Courier,monospace" font-size="10.00">input_steps</text>
<polygon fill="none" stroke="black" points="492,-391.5 492,-410.5 637,-410.5 637,-391.5 492,-391.5"/>
<text text-anchor="start" x="496" y="-398.5" font-family="Courier,monospace" font-size="10.00">6</text>
<polygon fill="#eeeeee" stroke="transparent" points="339,-372.5 339,-391.5 492,-391.5 492,-372.5 339,-372.5"/>
<polygon fill="none" stroke="black" points="339,-372.5 339,-391.5 492,-391.5 492,-372.5 339,-372.5"/>
<text text-anchor="start" x="403" y="-379.5" font-family="Courier,monospace" font-size="10.00">forecast_steps</text>
<polygon fill="none" stroke="black" points="492,-372.5 492,-391.5 637,-391.5 637,-372.5 492,-372.5"/>
<text text-anchor="start" x="496" y="-379.5" font-family="Courier,monospace" font-size="10.00">12</text>
<polygon fill="#eeeeee" stroke="transparent" points="339,-353.5 339,-372.5 492,-372.5 492,-353.5 339,-353.5"/>
<polygon fill="none" stroke="black" points="339,-353.5 339,-372.5 492,-372.5 492,-353.5 339,-353.5"/>
<text text-anchor="start" x="421" y="-360.5" font-family="Courier,monospace" font-size="10.00">return_mask</text>
<polygon fill="none" stroke="black" points="492,-353.5 492,-372.5 637,-372.5 637,-353.5 492,-353.5"/>
<text text-anchor="start" x="496" y="-360.5" font-family="Courier,monospace" font-size="10.00">True</text>
<polygon fill="#eeeeee" stroke="transparent" points="339,-242.5 339,-353.5 492,-353.5 492,-242.5 339,-242.5"/>
<polygon fill="none" stroke="black" points="339,-242.5 339,-353.5 492,-353.5 492,-242.5 339,-242.5"/>
<text text-anchor="start" x="451" y="-295.5" font-family="Courier,monospace" font-size="10.00">splits</text>
<polygon fill="none" stroke="black" points="492,-242.5 492,-353.5 637,-353.5 637,-242.5 492,-242.5"/>
<polygon fill="#eeeeee" stroke="transparent" points="496,-330.5 496,-349.5 633,-349.5 633,-330.5 496,-330.5"/>
<polygon fill="none" stroke="black" points="496,-330.5 496,-349.5 633,-349.5 633,-330.5 496,-330.5"/>
<text text-anchor="start" x="552" y="-337.5" font-family="Courier,monospace" font-size="10.00">dict</text>
<polygon fill="#eeeeee" stroke="transparent" points="496,-246.5 496,-330.5 541,-330.5 541,-246.5 496,-246.5"/>
<polygon fill="none" stroke="black" points="496,-246.5 496,-330.5 541,-330.5 541,-246.5 496,-246.5"/>
<text text-anchor="start" x="500" y="-286" font-family="Courier,monospace" font-size="10.00">&#39;time&#39;</text>
<polygon fill="none" stroke="black" points="541,-246.5 541,-330.5 633,-330.5 633,-246.5 541,-246.5"/>
<polygon fill="#eeeeee" stroke="transparent" points="545,-307.5 545,-326.5 629,-326.5 629,-307.5 545,-307.5"/>
<polygon fill="none" stroke="black" points="545,-307.5 545,-326.5 629,-326.5 629,-307.5 545,-307.5"/>
<text text-anchor="start" x="574.5" y="-314.5" font-family="Courier,monospace" font-size="10.00">dict</text>
<polygon fill="#eeeeee" stroke="transparent" points="545,-288.5 545,-307.5 596,-307.5 596,-288.5 545,-288.5"/>
<polygon fill="none" stroke="black" points="545,-288.5 545,-307.5 596,-307.5 596,-288.5 545,-288.5"/>
<text text-anchor="start" x="549" y="-295.5" font-family="Courier,monospace" font-size="10.00">&#39;train&#39;</text>
<polygon fill="none" stroke="black" points="596,-288.5 596,-307.5 629,-307.5 629,-288.5 596,-288.5"/>
<text text-anchor="start" x="600" y="-295.5" font-family="Courier,monospace" font-size="10.00">0.7</text>
<polygon fill="#eeeeee" stroke="transparent" points="545,-269.5 545,-288.5 596,-288.5 596,-269.5 545,-269.5"/>
<polygon fill="none" stroke="black" points="545,-269.5 545,-288.5 596,-288.5 596,-269.5 545,-269.5"/>
<text text-anchor="start" x="561" y="-276.5" font-family="Courier,monospace" font-size="10.00">&#39;val&#39;</text>
<polygon fill="none" stroke="black" points="596,-269.5 596,-288.5 629,-288.5 629,-269.5 596,-269.5"/>
<text text-anchor="start" x="600" y="-276.5" font-family="Courier,monospace" font-size="10.00">0.15</text>
<polygon fill="#eeeeee" stroke="transparent" points="545,-250.5 545,-269.5 596,-269.5 596,-250.5 545,-250.5"/>
<polygon fill="none" stroke="black" points="545,-250.5 545,-269.5 596,-269.5 596,-250.5 545,-250.5"/>
<text text-anchor="start" x="555" y="-257.5" font-family="Courier,monospace" font-size="10.00">&#39;test&#39;</text>
<polygon fill="none" stroke="black" points="596,-250.5 596,-269.5 629,-269.5 629,-250.5 596,-250.5"/>
<text text-anchor="start" x="600" y="-257.5" font-family="Courier,monospace" font-size="10.00">0.15</text>
<polygon fill="#eeeeee" stroke="transparent" points="339,-223.5 339,-242.5 492,-242.5 492,-223.5 339,-223.5"/>
<polygon fill="none" stroke="black" points="339,-223.5 339,-242.5 492,-242.5 492,-223.5 339,-223.5"/>
<text text-anchor="start" x="427" y="-230.5" font-family="Courier,monospace" font-size="10.00">batch_size</text>
<polygon fill="none" stroke="black" points="492,-223.5 492,-242.5 637,-242.5 637,-223.5 492,-223.5"/>
<text text-anchor="start" x="496" y="-230.5" font-family="Courier,monospace" font-size="10.00">16</text>
<polygon fill="#eeeeee" stroke="transparent" points="339,-204.5 339,-223.5 492,-223.5 492,-204.5 339,-204.5"/>
<polygon fill="none" stroke="black" points="339,-204.5 339,-223.5 492,-223.5 492,-204.5 339,-204.5"/>
<text text-anchor="start" x="421" y="-211.5" font-family="Courier,monospace" font-size="10.00">num_workers</text>
<polygon fill="none" stroke="black" points="492,-204.5 492,-223.5 637,-223.5 637,-204.5 492,-204.5"/>
<text text-anchor="start" x="496" y="-211.5" font-family="Courier,monospace" font-size="10.00">8</text>
<polygon fill="#eeeeee" stroke="transparent" points="339,-185.5 339,-204.5 492,-204.5 492,-185.5 339,-185.5"/>
<polygon fill="none" stroke="black" points="339,-185.5 339,-204.5 492,-204.5 492,-185.5 339,-185.5"/>
<text text-anchor="start" x="427" y="-192.5" font-family="Courier,monospace" font-size="10.00">pin_memory</text>
<polygon fill="none" stroke="black" points="492,-185.5 492,-204.5 637,-204.5 637,-185.5 492,-185.5"/>
<text text-anchor="start" x="496" y="-192.5" font-family="Courier,monospace" font-size="10.00">True</text>
</g>
<!-- 0&#45;&#45;5 -->
<g id="edge6" class="edge">
<title>0:c&#45;&#45;5:c</title>
<path fill="none" stroke="#cb6f00" stroke-width="3" stroke-opacity="0.501961" d="M488,-507.96C488,-499 488,-476.14 488,-449.27"/>
</g>
<!-- 7 -->
<g id="node9" class="node">
<title>7</title>
<polygon fill="#adff2f" stroke="transparent" points="958,-362.5 958,-381.5 1105,-381.5 1105,-362.5 958,-362.5"/>
<polygon fill="none" stroke="black" points="958,-362.5 958,-381.5 1105,-381.5 1105,-362.5 958,-362.5"/>
<text text-anchor="start" x="991" y="-370.5" font-family="Courier,monospace" font-size="8.00">Config:</text>
<text text-anchor="start" x="1023" y="-370.5" font-family="Courier,monospace" font-size="10.00"> Trainer</text>
<polygon fill="#eeeeee" stroke="transparent" points="958,-343.5 958,-362.5 1033,-362.5 1033,-343.5 958,-343.5"/>
<polygon fill="none" stroke="black" points="958,-343.5 958,-362.5 1033,-362.5 1033,-343.5 958,-343.5"/>
<text text-anchor="start" x="962" y="-350.5" font-family="Courier,monospace" font-size="10.00">accelerator</text>
<polygon fill="none" stroke="black" points="1033,-343.5 1033,-362.5 1105,-362.5 1105,-343.5 1033,-343.5"/>
<text text-anchor="start" x="1037" y="-350.5" font-family="Courier,monospace" font-size="10.00">&#39;auto&#39;</text>
<polygon fill="#eeeeee" stroke="transparent" points="958,-324.5 958,-343.5 1033,-343.5 1033,-324.5 958,-324.5"/>
<polygon fill="none" stroke="black" points="958,-324.5 958,-343.5 1033,-343.5 1033,-324.5 958,-324.5"/>
<text text-anchor="start" x="992" y="-331.5" font-family="Courier,monospace" font-size="10.00">logger</text>
<polygon fill="none" stroke="black" points="1033,-324.5 1033,-343.5 1105,-343.5 1105,-324.5 1033,-324.5"/>
<polygon fill="#ff6347" stroke="transparent" points="1037,-328.5 1037,-339.5 1101,-339.5 1101,-328.5 1037,-328.5"/>
<polygon fill="none" stroke="black" points="1037,-328.5 1037,-339.5 1101,-339.5 1101,-328.5 1037,-328.5"/>
<polygon fill="#eeeeee" stroke="transparent" points="958,-272.5 958,-324.5 1033,-324.5 1033,-272.5 958,-272.5"/>
<polygon fill="none" stroke="black" points="958,-272.5 958,-324.5 1033,-324.5 1033,-272.5 958,-272.5"/>
<text text-anchor="start" x="974" y="-296" font-family="Courier,monospace" font-size="10.00">callbacks</text>
<polygon fill="none" stroke="black" points="1033,-272.5 1033,-324.5 1105,-324.5 1105,-272.5 1033,-272.5"/>
<polygon fill="#eeeeee" stroke="transparent" points="1037,-301.5 1037,-320.5 1101,-320.5 1101,-301.5 1037,-301.5"/>
<polygon fill="none" stroke="black" points="1037,-301.5 1037,-320.5 1101,-320.5 1101,-301.5 1037,-301.5"/>
<text text-anchor="start" x="1056.5" y="-308.5" font-family="Courier,monospace" font-size="10.00">list</text>
<polygon fill="none" stroke="black" points="1037,-285.5 1037,-301.5 1053,-301.5 1053,-285.5 1037,-285.5"/>
<polygon fill="#db7093" stroke="transparent" points="1041,-289.5 1041,-297.5 1049,-297.5 1049,-289.5 1041,-289.5"/>
<polygon fill="none" stroke="black" points="1041,-289.5 1041,-297.5 1049,-297.5 1049,-289.5 1041,-289.5"/>
<polygon fill="none" stroke="black" points="1053,-285.5 1053,-301.5 1069,-301.5 1069,-285.5 1053,-285.5"/>
<polygon fill="#f0e68c" stroke="transparent" points="1057,-289.5 1057,-297.5 1065,-297.5 1065,-289.5 1057,-289.5"/>
<polygon fill="none" stroke="black" points="1057,-289.5 1057,-297.5 1065,-297.5 1065,-289.5 1057,-289.5"/>
<polygon fill="none" stroke="black" points="1069,-285.5 1069,-301.5 1085,-301.5 1085,-285.5 1069,-285.5"/>
<polygon fill="#32cd32" stroke="transparent" points="1073,-289.5 1073,-297.5 1081,-297.5 1081,-289.5 1073,-289.5"/>
<polygon fill="none" stroke="black" points="1073,-289.5 1073,-297.5 1081,-297.5 1081,-289.5 1073,-289.5"/>
<polygon fill="none" stroke="black" points="1085,-285.5 1085,-301.5 1101,-301.5 1101,-285.5 1085,-285.5"/>
<polygon fill="#00bfff" stroke="transparent" points="1089,-289.5 1089,-297.5 1097,-297.5 1097,-289.5 1089,-289.5"/>
<polygon fill="none" stroke="black" points="1089,-289.5 1089,-297.5 1097,-297.5 1097,-289.5 1089,-289.5"/>
<polygon fill="#eeeeee" stroke="transparent" points="1037,-276.5 1037,-285.5 1053,-285.5 1053,-276.5 1037,-276.5"/>
<polygon fill="none" stroke="black" points="1037,-276.5 1037,-285.5 1053,-285.5 1053,-276.5 1037,-276.5"/>
<text text-anchor="start" x="1043" y="-279.7" font-family="Courier,monospace" font-size="6.00">0</text>
<polygon fill="#eeeeee" stroke="transparent" points="1053,-276.5 1053,-285.5 1069,-285.5 1069,-276.5 1053,-276.5"/>
<polygon fill="none" stroke="black" points="1053,-276.5 1053,-285.5 1069,-285.5 1069,-276.5 1053,-276.5"/>
<text text-anchor="start" x="1059" y="-279.7" font-family="Courier,monospace" font-size="6.00">1</text>
<polygon fill="#eeeeee" stroke="transparent" points="1069,-276.5 1069,-285.5 1085,-285.5 1085,-276.5 1069,-276.5"/>
<polygon fill="none" stroke="black" points="1069,-276.5 1069,-285.5 1085,-285.5 1085,-276.5 1069,-276.5"/>
<text text-anchor="start" x="1075" y="-279.7" font-family="Courier,monospace" font-size="6.00">2</text>
<polygon fill="#eeeeee" stroke="transparent" points="1085,-276.5 1085,-285.5 1101,-285.5 1101,-276.5 1085,-276.5"/>
<polygon fill="none" stroke="black" points="1085,-276.5 1085,-285.5 1101,-285.5 1101,-276.5 1085,-276.5"/>
<text text-anchor="start" x="1091" y="-279.7" font-family="Courier,monospace" font-size="6.00">3</text>
<polygon fill="#eeeeee" stroke="transparent" points="958,-253.5 958,-272.5 1033,-272.5 1033,-253.5 958,-253.5"/>
<polygon fill="none" stroke="black" points="958,-253.5 958,-272.5 1033,-272.5 1033,-253.5 958,-253.5"/>
<text text-anchor="start" x="968" y="-260.5" font-family="Courier,monospace" font-size="10.00">max_epochs</text>
<polygon fill="none" stroke="black" points="1033,-253.5 1033,-272.5 1105,-272.5 1105,-253.5 1033,-253.5"/>
<text text-anchor="start" x="1037" y="-260.5" font-family="Courier,monospace" font-size="10.00">100</text>
</g>
<!-- 0&#45;&#45;7 -->
<g id="edge12" class="edge">
<title>0:c&#45;&#45;7:c</title>
<path fill="none" stroke="#8acb25" stroke-width="3" stroke-opacity="0.501961" d="M499.17,-490.12C525.1,-483.37 591.31,-465.87 646,-449 755.08,-415.35 880.02,-372.13 957.23,-344.86"/>
</g>
<!-- 6 -->
<g id="node6" class="node">
<title>6</title>
<polygon fill="#8fbc8f" stroke="transparent" points="424,-131 424,-150 706,-150 706,-131 424,-131"/>
<polygon fill="none" stroke="black" stroke-dasharray="5,2" points="424,-131 424,-150 706,-150 706,-131 424,-131"/>
<text text-anchor="start" x="435" y="-139" font-family="Courier,monospace" font-size="8.00">Partial:</text>
<text text-anchor="start" x="472" y="-139" font-family="Courier,monospace" font-size="10.00"> SourceDataPrecomputedSequenceDataset</text>
<polygon fill="#eeeeee" stroke="transparent" stroke-dasharray="5,2" points="424,-112 424,-131 517,-131 517,-112 424,-112"/>
<polygon fill="none" stroke="black" points="424,-112 424,-131 517,-131 517,-112 424,-112"/>
<text text-anchor="start" x="458" y="-119" font-family="Courier,monospace" font-size="10.00">zarr_path</text>
<polygon fill="none" stroke="black" points="517,-112 517,-131 706,-131 706,-112 517,-112"/>
<text text-anchor="start" x="521" y="-119" font-family="Courier,monospace" font-size="10.00">&#39;./data/radar.zarr&#39;</text>
<polygon fill="#eeeeee" stroke="transparent" points="424,-93 424,-112 517,-112 517,-93 424,-93"/>
<polygon fill="none" stroke="black" points="424,-93 424,-112 517,-112 517,-93 424,-93"/>
<text text-anchor="start" x="464" y="-100" font-family="Courier,monospace" font-size="10.00">csv_path</text>
<polygon fill="none" stroke="black" points="517,-93 517,-112 706,-112 706,-93 517,-93"/>
<text text-anchor="start" x="521" y="-100" font-family="Courier,monospace" font-size="10.00">&#39;./data/sampled_datacubes.csv&#39;</text>
<polygon fill="#eeeeee" stroke="transparent" points="424,-38 424,-93 517,-93 517,-38 424,-38"/>
<polygon fill="none" stroke="black" points="424,-38 424,-93 517,-93 517,-38 424,-38"/>
<text text-anchor="start" x="428" y="-63" font-family="Courier,monospace" font-size="10.00">standard_names</text>
<polygon fill="none" stroke="black" points="517,-38 517,-93 706,-93 706,-38 517,-38"/>
<polygon fill="#eeeeee" stroke="transparent" points="521,-70 521,-89 702,-89 702,-70 521,-70"/>
<polygon fill="none" stroke="black" points="521,-70 521,-89 702,-89 702,-70 521,-70"/>
<text text-anchor="start" x="599" y="-77" font-family="Courier,monospace" font-size="10.00">list</text>
<polygon fill="none" stroke="black" points="521,-51 521,-70 702,-70 702,-51 521,-51"/>
<text text-anchor="start" x="566" y="-58" font-family="Courier,monospace" font-size="10.00">&#39;rainfall_rate&#39;</text>
<polygon fill="#eeeeee" stroke="transparent" points="521,-42 521,-51 702,-51 702,-42 521,-42"/>
<polygon fill="none" stroke="black" points="521,-42 521,-51 702,-51 702,-42 521,-42"/>
<text text-anchor="start" x="609.5" y="-45.2" font-family="Courier,monospace" font-size="6.00">0</text>
<polygon fill="#eeeeee" stroke="transparent" points="424,-19 424,-38 517,-38 517,-19 424,-19"/>
<polygon fill="none" stroke="black" points="424,-19 424,-38 517,-38 517,-19 424,-19"/>
<text text-anchor="start" x="428" y="-26" font-family="Courier,monospace" font-size="10.00">sequence_steps</text>
<polygon fill="none" stroke="black" points="517,-19 517,-38 706,-38 706,-19 517,-19"/>
<text text-anchor="start" x="521" y="-26" font-family="Courier,monospace" font-size="10.00">18</text>
<polygon fill="#eeeeee" stroke="transparent" points="424,0 424,-19 517,-19 517,0 424,0"/>
<polygon fill="none" stroke="black" points="424,0 424,-19 517,-19 517,0 424,0"/>
<text text-anchor="start" x="434" y="-7" font-family="Courier,monospace" font-size="10.00">deterministic</text>
<polygon fill="none" stroke="black" points="517,0 517,-19 706,-19 706,0 517,0"/>
<text text-anchor="start" x="521" y="-7" font-family="Courier,monospace" font-size="10.00">False</text>
</g>
<!-- 5&#45;&#45;6 -->
<g id="edge5" class="edge">
<title>5:c&#45;&#45;6:c</title>
<path fill="none" stroke="#729672" stroke-width="3" stroke-opacity="0.501961" d="M565,-414.38C565,-385.46 565,-240.71 565,-150.15"/>
</g>
<!-- 8 -->
<g id="node8" class="node">
<title>8</title>
<polygon fill="#ff6347" stroke="transparent" points="1084,-84 1084,-103 1233,-103 1233,-84 1084,-84"/>
<polygon fill="none" stroke="black" points="1084,-84 1084,-103 1233,-103 1233,-84 1084,-84"/>
<text text-anchor="start" x="1088" y="-92" font-family="Courier,monospace" font-size="8.00">Config:</text>
<text text-anchor="start" x="1120" y="-92" font-family="Courier,monospace" font-size="10.00"> TensorBoardLogger</text>
<polygon fill="#eeeeee" stroke="transparent" points="1084,-65 1084,-84 1158,-84 1158,-65 1084,-65"/>
<polygon fill="none" stroke="black" points="1084,-65 1084,-84 1158,-84 1158,-65 1084,-65"/>
<text text-anchor="start" x="1105" y="-72" font-family="Courier,monospace" font-size="10.00">save_dir</text>
<polygon fill="none" stroke="black" points="1158,-65 1158,-84 1233,-84 1233,-65 1158,-65"/>
<text text-anchor="start" x="1162" y="-72" font-family="Courier,monospace" font-size="10.00">&#39;logs&#39;</text>
<polygon fill="#eeeeee" stroke="transparent" points="1084,-46 1084,-65 1158,-65 1158,-46 1084,-46"/>
<polygon fill="none" stroke="black" points="1084,-46 1084,-65 1158,-65 1158,-46 1084,-46"/>
<text text-anchor="start" x="1129" y="-53" font-family="Courier,monospace" font-size="10.00">name</text>
<polygon fill="none" stroke="black" points="1158,-46 1158,-65 1233,-65 1233,-46 1158,-46"/>
<text text-anchor="start" x="1162" y="-53" font-family="Courier,monospace" font-size="10.00">&#39;mlcast&#39;</text>
</g>
<!-- 7&#45;&#45;8 -->
<g id="edge7" class="edge">
<title>7:c&#45;&#45;8:c</title>
<path fill="none" stroke="#cb4f38" stroke-width="3" stroke-opacity="0.501961" d="M1070.86,-328.12C1080.79,-299.38 1127.94,-162.97 1148.44,-103.66"/>
</g>
<!-- 9 -->
<g id="node10" class="node">
<title>9</title>
<polygon fill="#db7093" stroke="transparent" points="724,-94 724,-113 862,-113 862,-94 724,-94"/>
<polygon fill="none" stroke="black" points="724,-94 724,-113 862,-113 862,-94 724,-94"/>
<text text-anchor="start" x="728.5" y="-102" font-family="Courier,monospace" font-size="8.00">Config:</text>
<text text-anchor="start" x="760.5" y="-102" font-family="Courier,monospace" font-size="10.00"> ModelCheckpoint</text>
<polygon fill="#eeeeee" stroke="transparent" points="724,-75 724,-94 793,-94 793,-75 724,-75"/>
<polygon fill="none" stroke="black" points="724,-75 724,-94 793,-94 793,-75 724,-75"/>
<text text-anchor="start" x="746" y="-82" font-family="Courier,monospace" font-size="10.00">monitor</text>
<polygon fill="none" stroke="black" points="793,-75 793,-94 862,-94 862,-75 793,-75"/>
<text text-anchor="start" x="797" y="-82" font-family="Courier,monospace" font-size="10.00">&#39;val/loss&#39;</text>
<polygon fill="#eeeeee" stroke="transparent" points="724,-56 724,-75 793,-75 793,-56 724,-56"/>
<polygon fill="none" stroke="black" points="724,-56 724,-75 793,-75 793,-56 724,-56"/>
<text text-anchor="start" x="728" y="-63" font-family="Courier,monospace" font-size="10.00">save_top_k</text>
<polygon fill="none" stroke="black" points="793,-56 793,-75 862,-75 862,-56 793,-56"/>
<text text-anchor="start" x="797" y="-63" font-family="Courier,monospace" font-size="10.00">1</text>
<polygon fill="#eeeeee" stroke="transparent" points="724,-37 724,-56 793,-56 793,-37 724,-37"/>
<polygon fill="none" stroke="black" points="724,-37 724,-56 793,-56 793,-37 724,-37"/>
<text text-anchor="start" x="764" y="-44" font-family="Courier,monospace" font-size="10.00">mode</text>
<polygon fill="none" stroke="black" points="793,-37 793,-56 862,-56 862,-37 793,-37"/>
<text text-anchor="start" x="797" y="-44" font-family="Courier,monospace" font-size="10.00">&#39;min&#39;</text>
</g>
<!-- 7&#45;&#45;9 -->
<g id="edge8" class="edge">
<title>7:c&#45;&#45;9:c</title>
<path fill="none" stroke="#af5975" stroke-width="3" stroke-opacity="0.501961" d="M1041.12,-289.49C1022.12,-274.74 937.19,-208.36 871,-150 857.7,-138.27 843.53,-125.06 830.97,-113.08"/>
</g>
<!-- 10 -->
<g id="node11" class="node">
<title>10</title>
<polygon fill="#f0e68c" stroke="transparent" points="880,-94 880,-113 1066,-113 1066,-94 880,-94"/>
<polygon fill="none" stroke="black" points="880,-94 880,-113 1066,-113 1066,-94 880,-94"/>
<text text-anchor="start" x="908.5" y="-102" font-family="Courier,monospace" font-size="8.00">Config:</text>
<text text-anchor="start" x="940.5" y="-102" font-family="Courier,monospace" font-size="10.00"> ModelCheckpoint</text>
<polygon fill="#eeeeee" stroke="transparent" points="880,-75 880,-94 949,-94 949,-75 880,-75"/>
<polygon fill="none" stroke="black" points="880,-75 880,-94 949,-94 949,-75 880,-75"/>
<text text-anchor="start" x="902" y="-82" font-family="Courier,monospace" font-size="10.00">monitor</text>
<polygon fill="none" stroke="black" points="949,-75 949,-94 1066,-94 1066,-75 949,-75"/>
<text text-anchor="start" x="953" y="-82" font-family="Courier,monospace" font-size="10.00">&#39;train/loss_epoch&#39;</text>
<polygon fill="#eeeeee" stroke="transparent" points="880,-56 880,-75 949,-75 949,-56 880,-56"/>
<polygon fill="none" stroke="black" points="880,-56 880,-75 949,-75 949,-56 880,-56"/>
<text text-anchor="start" x="884" y="-63" font-family="Courier,monospace" font-size="10.00">save_top_k</text>
<polygon fill="none" stroke="black" points="949,-56 949,-75 1066,-75 1066,-56 949,-56"/>
<text text-anchor="start" x="953" y="-63" font-family="Courier,monospace" font-size="10.00">1</text>
<polygon fill="#eeeeee" stroke="transparent" points="880,-37 880,-56 949,-56 949,-37 880,-37"/>
<polygon fill="none" stroke="black" points="880,-37 880,-56 949,-56 949,-37 880,-37"/>
<text text-anchor="start" x="920" y="-44" font-family="Courier,monospace" font-size="10.00">mode</text>
<polygon fill="none" stroke="black" points="949,-37 949,-56 1066,-56 1066,-37 949,-37"/>
<text text-anchor="start" x="953" y="-44" font-family="Courier,monospace" font-size="10.00">&#39;min&#39;</text>
</g>
<!-- 7&#45;&#45;10 -->
<g id="edge9" class="edge">
<title>7:c&#45;&#45;10:c</title>
<path fill="none" stroke="#bfb770" stroke-width="3" stroke-opacity="0.501961" d="M1059.76,-289.44C1052.09,-270.58 1010.84,-169.09 988.09,-113.12"/>
</g>
<!-- 11 -->
<g id="node12" class="node">
<title>11</title>
<polygon fill="#32cd32" stroke="transparent" points="1251,-94 1251,-113 1377,-113 1377,-94 1251,-94"/>
<polygon fill="none" stroke="black" points="1251,-94 1251,-113 1377,-113 1377,-94 1251,-94"/>
<text text-anchor="start" x="1255.5" y="-102" font-family="Courier,monospace" font-size="8.00">Config:</text>
<text text-anchor="start" x="1287.5" y="-102" font-family="Courier,monospace" font-size="10.00"> EarlyStopping</text>
<polygon fill="#eeeeee" stroke="transparent" points="1251,-75 1251,-94 1308,-94 1308,-75 1251,-75"/>
<polygon fill="none" stroke="black" points="1251,-75 1251,-94 1308,-94 1308,-75 1251,-75"/>
<text text-anchor="start" x="1261" y="-82" font-family="Courier,monospace" font-size="10.00">monitor</text>
<polygon fill="none" stroke="black" points="1308,-75 1308,-94 1377,-94 1377,-75 1308,-75"/>
<text text-anchor="start" x="1312" y="-82" font-family="Courier,monospace" font-size="10.00">&#39;val/loss&#39;</text>
<polygon fill="#eeeeee" stroke="transparent" points="1251,-56 1251,-75 1308,-75 1308,-56 1251,-56"/>
<polygon fill="none" stroke="black" points="1251,-56 1251,-75 1308,-75 1308,-56 1251,-56"/>
<text text-anchor="start" x="1255" y="-63" font-family="Courier,monospace" font-size="10.00">patience</text>
<polygon fill="none" stroke="black" points="1308,-56 1308,-75 1377,-75 1377,-56 1308,-56"/>
<text text-anchor="start" x="1312" y="-63" font-family="Courier,monospace" font-size="10.00">100</text>
<polygon fill="#eeeeee" stroke="transparent" points="1251,-37 1251,-56 1308,-56 1308,-37 1251,-37"/>
<polygon fill="none" stroke="black" points="1251,-37 1251,-56 1308,-56 1308,-37 1251,-37"/>
<text text-anchor="start" x="1279" y="-44" font-family="Courier,monospace" font-size="10.00">mode</text>
<polygon fill="none" stroke="black" points="1308,-37 1308,-56 1377,-56 1377,-37 1308,-37"/>
<text text-anchor="start" x="1312" y="-44" font-family="Courier,monospace" font-size="10.00">&#39;min&#39;</text>
</g>
<!-- 7&#45;&#45;11 -->
<g id="edge10" class="edge">
<title>7:c&#45;&#45;11:c</title>
<path fill="none" stroke="#28a328" stroke-width="3" stroke-opacity="0.501961" d="M1081.2,-289.1C1100.25,-273.64 1180.3,-208.15 1242,-150 1254.39,-138.32 1267.5,-125.12 1279.09,-113.13"/>
</g>
<!-- 12 -->
<g id="node13" class="node">
<title>12</title>
<polygon fill="#00bfff" stroke="transparent" points="1396,-75 1396,-94 1557,-94 1557,-75 1396,-75"/>
<polygon fill="none" stroke="black" points="1396,-75 1396,-94 1557,-94 1557,-75 1396,-75"/>
<text text-anchor="start" x="1400" y="-83" font-family="Courier,monospace" font-size="8.00">Config:</text>
<text text-anchor="start" x="1432" y="-83" font-family="Courier,monospace" font-size="10.00"> LearningRateMonitor</text>
<polygon fill="#eeeeee" stroke="transparent" points="1396,-56 1396,-75 1506,-75 1506,-56 1396,-56"/>
<polygon fill="none" stroke="black" points="1396,-56 1396,-75 1506,-75 1506,-56 1396,-56"/>
<text text-anchor="start" x="1405" y="-63" font-family="Courier,monospace" font-size="10.00">logging_interval</text>
<polygon fill="none" stroke="black" points="1506,-56 1506,-75 1557,-75 1557,-56 1506,-56"/>
<text text-anchor="start" x="1510" y="-63" font-family="Courier,monospace" font-size="10.00">&#39;step&#39;</text>
</g>
<!-- 7&#45;&#45;12 -->
<g id="edge11" class="edge">
<title>7:c&#45;&#45;12:c</title>
<path fill="none" stroke="#0098cb" stroke-width="3" stroke-opacity="0.501961" d="M1097.33,-290.85C1124.65,-280.32 1275.55,-220.86 1386,-150 1412.05,-133.29 1439.11,-110.12 1456.67,-94.18"/>
</g>
</g>
</svg>
