<?xml version="1.0" encoding="UTF-8" standalone="no"?>
<!DOCTYPE svg PUBLIC "-//W3C//DTD SVG 1.1//EN"
 "http://www.w3.org/Graphics/SVG/1.1/DTD/svg11.dtd">
<!-- Generated by graphviz version 2.43.0 (0)
 -->
<!-- Title: %3 Pages: 1 -->
<svg width="1565pt" height="523pt"
 viewBox="0.00 0.00 1564.50 523.00" xmlns="http://www.w3.org/2000/svg" xmlns:xlink="http://www.w3.org/1999/xlink">
<g id="graph0" class="graph" transform="scale(1 1) rotate(0) translate(4 519)">
<title>%3</title>
<polygon fill="white" stroke="transparent" points="-4,4 -4,-519 1560.5,-519 1560.5,4 -4,4"/>
<!-- 2 -->
<g id="node1" class="node">
<title>2</title>
<polygon fill="#fff8dc" stroke="transparent" points="0,-113 0,-132 132,-132 132,-113 0,-113"/>
<polygon fill="none" stroke="black" points="0,-113 0,-132 132,-132 132,-113 0,-113"/>
<text text-anchor="start" x="10.5" y="-121" font-family="Courier,monospace" font-size="8.00">Config:</text>
<text text-anchor="start" x="42.5" y="-121" font-family="Courier,monospace" font-size="10.00"> ConvGruModel</text>
<polygon fill="#eeeeee" stroke="transparent" points="0,-94 0,-113 93,-113 93,-94 0,-94"/>
<polygon fill="none" stroke="black" points="0,-94 0,-113 93,-113 93,-94 0,-94"/>
<text text-anchor="start" x="4" y="-101" font-family="Courier,monospace" font-size="10.00">input_channels</text>
<polygon fill="none" stroke="black" points="93,-94 93,-113 132,-113 132,-94 93,-94"/>
<text text-anchor="start" x="97" y="-101" font-family="Courier,monospace" font-size="10.00">1</text>
<polygon fill="#eeeeee" stroke="transparent" points="0,-75 0,-94 93,-94 93,-75 0,-75"/>
<polygon fill="none" stroke="black" points="0,-75 0,-94 93,-94 93,-75 0,-75"/>
<text text-anchor="start" x="28" y="-82" font-family="Courier,monospace" font-size="10.00">num_blocks</text>
<polygon fill="none" stroke="black" points="93,-75 93,-94 132,-94 132,-75 93,-75"/>
<text text-anchor="start" x="97" y="-82" font-family="Courier,monospace" font-size="10.00">5</text>
<polygon fill="#eeeeee" stroke="transparent" points="0,-56 0,-75 93,-75 93,-56 0,-56"/>
<polygon fill="none" stroke="black" points="0,-56 0,-75 93,-75 93,-56 0,-56"/>
<text text-anchor="start" x="10" y="-63" font-family="Courier,monospace" font-size="10.00">noisy_decoder</text>
<polygon fill="none" stroke="black" points="93,-56 93,-75 132,-75 132,-56 93,-56"/>
<text text-anchor="start" x="97" y="-63" font-family="Courier,monospace" font-size="10.00">False</text>
</g>
<!-- 1 -->
<g id="node2" class="node">
<title>1</title>
<polygon fill="#90ee90" stroke="transparent" points="98,-383.5 98,-402.5 337,-402.5 337,-383.5 98,-383.5"/>
<polygon fill="none" stroke="black" points="98,-383.5 98,-402.5 337,-402.5 337,-383.5 98,-383.5"/>
<text text-anchor="start" x="132" y="-391.5" font-family="Courier,monospace" font-size="8.00">Config:</text>
<text text-anchor="start" x="164" y="-391.5" font-family="Courier,monospace" font-size="10.00"> NowcastLightningModule</text>
<polygon fill="#eeeeee" stroke="transparent" points="98,-364.5 98,-383.5 185,-383.5 185,-364.5 98,-364.5"/>
<polygon fill="none" stroke="black" points="98,-364.5 98,-383.5 185,-383.5 185,-364.5 98,-364.5"/>
<text text-anchor="start" x="138" y="-371.5" font-family="Courier,monospace" font-size="10.00">network</text>
<polygon fill="none" stroke="black" points="185,-364.5 185,-383.5 337,-383.5 337,-364.5 185,-364.5"/>
<polygon fill="#fff8dc" stroke="transparent" points="189,-368.5 189,-379.5 333,-379.5 333,-368.5 189,-368.5"/>
<polygon fill="none" stroke="black" points="189,-368.5 189,-379.5 333,-379.5 333,-368.5 189,-368.5"/>
<polygon fill="#eeeeee" stroke="transparent" points="98,-345.5 98,-364.5 185,-364.5 185,-345.5 98,-345.5"/>
<polygon fill="none" stroke="black" points="98,-345.5 98,-364.5 185,-364.5 185,-345.5 98,-345.5"/>
<text text-anchor="start" x="102" y="-352.5" font-family="Courier,monospace" font-size="10.00">ensemble_size</text>
<polygon fill="none" stroke="black" points="185,-345.5 185,-364.5 337,-364.5 337,-345.5 185,-345.5"/>
<text text-anchor="start" x="189" y="-352.5" font-family="Courier,monospace" font-size="10.00">2</text>
<polygon fill="#eeeeee" stroke="transparent" points="98,-326.5 98,-345.5 185,-345.5 185,-326.5 98,-326.5"/>
<polygon fill="none" stroke="black" points="98,-326.5 98,-345.5 185,-345.5 185,-326.5 98,-326.5"/>
<text text-anchor="start" x="120" y="-333.5" font-family="Courier,monospace" font-size="10.00">loss_class</text>
<polygon fill="none" stroke="black" points="185,-326.5 185,-345.5 337,-345.5 337,-326.5 185,-326.5"/>
<text text-anchor="start" x="189" y="-333.5" font-family="Courier,monospace" font-size="10.00">&#39;crps&#39;</text>
<polygon fill="#eeeeee" stroke="transparent" points="98,-280.5 98,-326.5 185,-326.5 185,-280.5 98,-280.5"/>
<polygon fill="none" stroke="black" points="98,-280.5 98,-326.5 185,-326.5 185,-280.5 98,-280.5"/>
<text text-anchor="start" x="114" y="-301" font-family="Courier,monospace" font-size="10.00">loss_params</text>
<polygon fill="none" stroke="black" points="185,-280.5 185,-326.5 337,-326.5 337,-280.5 185,-280.5"/>
<polygon fill="#eeeeee" stroke="transparent" points="189,-303.5 189,-322.5 333,-322.5 333,-303.5 189,-303.5"/>
<polygon fill="none" stroke="black" points="189,-303.5 189,-322.5 333,-322.5 333,-303.5 189,-303.5"/>
<text text-anchor="start" x="248.5" y="-310.5" font-family="Courier,monospace" font-size="10.00">dict</text>
<polygon fill="#eeeeee" stroke="transparent" points="189,-284.5 189,-303.5 300,-303.5 300,-284.5 189,-284.5"/>
<polygon fill="none" stroke="black" points="189,-284.5 189,-303.5 300,-303.5 300,-284.5 189,-284.5"/>
<text text-anchor="start" x="193" y="-291.5" font-family="Courier,monospace" font-size="10.00">&#39;temporal_lambda&#39;</text>
<polygon fill="none" stroke="black" points="300,-284.5 300,-303.5 333,-303.5 333,-284.5 300,-284.5"/>
<text text-anchor="start" x="304" y="-291.5" font-family="Courier,monospace" font-size="10.00">0.01</text>
<polygon fill="#eeeeee" stroke="transparent" points="98,-261.5 98,-280.5 185,-280.5 185,-261.5 98,-261.5"/>
<polygon fill="none" stroke="black" points="98,-261.5 98,-280.5 185,-280.5 185,-261.5 98,-261.5"/>
<text text-anchor="start" x="114" y="-268.5" font-family="Courier,monospace" font-size="10.00">masked_loss</text>
<polygon fill="none" stroke="black" points="185,-261.5 185,-280.5 337,-280.5 337,-261.5 185,-261.5"/>
<text text-anchor="start" x="189" y="-268.5" font-family="Courier,monospace" font-size="10.00">True</text>
<polygon fill="#eeeeee" stroke="transparent" points="98,-242.5 98,-261.5 185,-261.5 185,-242.5 98,-242.5"/>
<polygon fill="none" stroke="black" points="98,-242.5 98,-261.5 185,-261.5 185,-242.5 98,-242.5"/>
<text text-anchor="start" x="126" y="-249.5" font-family="Courier,monospace" font-size="10.00">optimizer</text>
<polygon fill="none" stroke="black" points="185,-242.5 185,-261.5 337,-261.5 337,-242.5 185,-242.5"/>
<polygon fill="#ffa07a" stroke="transparent" points="189,-246.5 189,-257.5 333,-257.5 333,-246.5 189,-246.5"/>
<polygon fill="none" stroke="black" stroke-dasharray="5,2" points="189,-246.5 189,-257.5 333,-257.5 333,-246.5 189,-246.5"/>
<polygon fill="#eeeeee" stroke="transparent" stroke-dasharray="5,2" points="98,-223.5 98,-242.5 185,-242.5 185,-223.5 98,-223.5"/>
<polygon fill="none" stroke="black" points="98,-223.5 98,-242.5 185,-242.5 185,-223.5 98,-223.5"/>
<text text-anchor="start" x="108" y="-230.5" font-family="Courier,monospace" font-size="10.00">lr_scheduler</text>
<polygon fill="none" stroke="black" points="185,-223.5 185,-242.5 337,-242.5 337,-223.5 185,-223.5"/>
<polygon fill="#add8e6" stroke="transparent" points="189,-227.5 189,-238.5 333,-238.5 333,-227.5 189,-227.5"/>
<polygon fill="none" stroke="black" stroke-dasharray="5,2" points="189,-227.5 189,-238.5 333,-238.5 333,-227.5 189,-227.5"/>
</g>
<!-- 1&#45;&#45;2 -->
<g id="edge1" class="edge">
<title>1:c&#45;&#45;2:c</title>
<path fill="none" stroke="#cbc6b0" stroke-width="3" stroke-opacity="0.501961" d="M257.45,-368.43C237.6,-340.08 139.59,-200.11 92.01,-132.15"/>
</g>
<!-- 3 -->
<g id="node3" class="node">
<title>3</title>
<polygon fill="#ffa07a" stroke="transparent" points="150,-103 150,-122 234,-122 234,-103 150,-103"/>
<polygon fill="none" stroke="black" stroke-dasharray="5,2" points="150,-103 150,-122 234,-122 234,-103 150,-103"/>
<text text-anchor="start" x="158" y="-111" font-family="Courier,monospace" font-size="8.00">Partial:</text>
<text text-anchor="start" x="195" y="-111" font-family="Courier,monospace" font-size="10.00"> Adam</text>
<polygon fill="#eeeeee" stroke="transparent" stroke-dasharray="5,2" points="150,-84 150,-103 189,-103 189,-84 150,-84"/>
<polygon fill="none" stroke="black" points="150,-84 150,-103 189,-103 189,-84 150,-84"/>
<text text-anchor="start" x="172" y="-91" font-family="Courier,monospace" font-size="10.00">lr</text>
<polygon fill="none" stroke="black" points="189,-84 189,-103 234,-103 234,-84 189,-84"/>
<text text-anchor="start" x="193" y="-91" font-family="Courier,monospace" font-size="10.00">0.0001</text>
<polygon fill="#eeeeee" stroke="transparent" points="150,-65 150,-84 189,-84 189,-65 150,-65"/>
<polygon fill="none" stroke="black" points="150,-65 150,-84 189,-84 189,-65 150,-65"/>
<text text-anchor="start" x="154" y="-72" font-family="Courier,monospace" font-size="10.00">fused</text>
<polygon fill="none" stroke="black" points="189,-65 189,-84 234,-84 234,-65 189,-65"/>
<text text-anchor="start" x="193" y="-72" font-family="Courier,monospace" font-size="10.00">True</text>
</g>
<!-- 1&#45;&#45;3 -->
<g id="edge2" class="edge">
<title>1:c&#45;&#45;3:c</title>
<path fill="none" stroke="#cb8061" stroke-width="3" stroke-opacity="0.501961" d="M259.15,-246.34C251.46,-229 221.54,-161.57 204.35,-122.82"/>
</g>
<!-- 4 -->
<g id="node4" class="node">
<title>4</title>
<polygon fill="#add8e6" stroke="transparent" points="252,-113 252,-132 406,-132 406,-113 252,-113"/>
<polygon fill="none" stroke="black" stroke-dasharray="5,2" points="252,-113 252,-132 406,-132 406,-113 252,-113"/>
<text text-anchor="start" x="256" y="-121" font-family="Courier,monospace" font-size="8.00">Partial:</text>
<text text-anchor="start" x="293" y="-121" font-family="Courier,monospace" font-size="10.00"> ReduceLROnPlateau</text>
<polygon fill="#eeeeee" stroke="transparent" stroke-dasharray="5,2" points="252,-94 252,-113 338,-113 338,-94 252,-94"/>
<polygon fill="none" stroke="black" points="252,-94 252,-113 338,-113 338,-94 252,-94"/>
<text text-anchor="start" x="309" y="-101" font-family="Courier,monospace" font-size="10.00">mode</text>
<polygon fill="none" stroke="black" points="338,-94 338,-113 406,-113 406,-94 338,-94"/>
<text text-anchor="start" x="342" y="-101" font-family="Courier,monospace" font-size="10.00">&#39;min&#39;</text>
<polygon fill="#eeeeee" stroke="transparent" points="252,-75 252,-94 338,-94 338,-75 252,-75"/>
<polygon fill="none" stroke="black" points="252,-75 252,-94 338,-94 338,-75 252,-75"/>
<text text-anchor="start" x="297" y="-82" font-family="Courier,monospace" font-size="10.00">factor</text>
<polygon fill="none" stroke="black" points="338,-75 338,-94 406,-94 406,-75 338,-75"/>
<text text-anchor="start" x="342" y="-82" font-family="Courier,monospace" font-size="10.00">0.5</text>
<polygon fill="#eeeeee" stroke="transparent" points="252,-56 252,-75 338,-75 338,-56 252,-56"/>
<polygon fill="none" stroke="black" points="252,-56 252,-75 338,-75 338,-56 252,-56"/>
<text text-anchor="start" x="285" y="-63" font-family="Courier,monospace" font-size="10.00">patience</text>
<polygon fill="none" stroke="black" points="338,-56 338,-75 406,-75 406,-56 338,-56"/>
<text text-anchor="start" x="342" y="-63" font-family="Courier,monospace" font-size="10.00">10</text>
</g>
<!-- 1&#45;&#45;4 -->
<g id="edge3" class="edge">
<title>1:c&#45;&#45;4:c</title>
<path fill="none" stroke="#8aacb7" stroke-width="3" stroke-opacity="0.501961" d="M263.11,-227.27C270.19,-213.05 293.63,-166 310.54,-132.06"/>
</g>
<!-- 0 -->
<g id="node5" class="node">
<title>0</title>
<polygon fill="#ffc0cb" stroke="transparent" points="414,-496 414,-515 521,-515 521,-496 414,-496"/>
<polygon fill="none" stroke="black" points="414,-496 414,-515 521,-515 521,-496 414,-496"/>
<text text-anchor="start" x="418" y="-504" font-family="Courier,monospace" font-size="8.00">Config:</text>
<text text-anchor="start" x="450" y="-504" font-family="Courier,monospace" font-size="10.00"> Experiment</text>
<polygon fill="#eeeeee" stroke="transparent" points="414,-477 414,-496 491,-496 491,-477 414,-477"/>
<polygon fill="none" stroke="black" points="414,-477 414,-496 491,-496 491,-477 414,-477"/>
<text text-anchor="start" x="432" y="-484" font-family="Courier,monospace" font-size="10.00">pl_module</text>
<polygon fill="none" stroke="black" points="491,-477 491,-496 521,-496 521,-477 491,-477"/>
<polygon fill="#90ee90" stroke="transparent" points="495,-481 495,-492 517,-492 517,-481 495,-481"/>
<polygon fill="none" stroke="black" points="495,-481 495,-492 517,-492 517,-481 495,-481"/>
<polygon fill="#eeeeee" stroke="transparent" points="414,-458 414,-477 491,-477 491,-458 414,-458"/>
<polygon fill="none" stroke="black" points="414,-458 414,-477 491,-477 491,-458 414,-458"/>
<text text-anchor="start" x="462" y="-465" font-family="Courier,monospace" font-size="10.00">data</text>
<polygon fill="none" stroke="black" points="491,-458 491,-477 521,-477 521,-458 491,-458"/>
<polygon fill="#ff8c00" stroke="transparent" points="495,-462 495,-473 517,-473 517,-462 495,-462"/>
<polygon fill="none" stroke="black" points="495,-462 495,-473 517,-473 517,-462 495,-462"/>
<polygon fill="#eeeeee" stroke="transparent" points="414,-439 414,-458 491,-458 491,-439 414,-439"/>
<polygon fill="none" stroke="black" points="414,-439 414,-458 491,-458 491,-439 414,-439"/>
<text text-anchor="start" x="444" y="-446" font-family="Courier,monospace" font-size="10.00">trainer</text>
<polygon fill="none" stroke="black" points="491,-439 491,-458 521,-458 521,-439 491,-439"/>
<polygon fill="#adff2f" stroke="transparent" points="495,-443 495,-454 517,-454 517,-443 495,-443"/>
<polygon fill="none" stroke="black" points="495,-443 495,-454 517,-454 517,-443 495,-443"/>
</g>
<!-- 0&#45;&#45;1 -->
<g id="edge4" class="edge">
<title>0:c&#45;&#45;1:c</title>
<path fill="none" stroke="#73be73" stroke-width="3" stroke-opacity="0.501961" d="M497.35,-480.87C472.98,-466.4 401.3,-423.87 336.52,-385.43"/>
</g>
<!-- 5 -->
<g id="node7" class="node">
<title>5</title>
<polygon fill="#ff8c00" stroke="transparent" points="423,-360.5 423,-379.5 590,-379.5 590,-360.5 423,-360.5"/>
<polygon fill="none" stroke="black" points="423,-360.5 423,-379.5 590,-379.5 590,-360.5 423,-360.5"/>
<text text-anchor="start" x="427" y="-368.5" font-family="Courier,monospace" font-size="8.00">Config:</text>
<text text-anchor="start" x="459" y="-368.5" font-family="Courier,monospace" font-size="10.00"> SourceDataDataModule</text>
<polygon fill="#eeeeee" stroke="transparent" points="423,-341.5 423,-360.5 539,-360.5 539,-341.5 423,-341.5"/>
<polygon fill="none" stroke="black" points="423,-341.5 423,-360.5 539,-360.5 539,-341.5 423,-341.5"/>
<text text-anchor="start" x="444" y="-348.5" font-family="Courier,monospace" font-size="10.00">dataset_factory</text>
<polygon fill="none" stroke="black" points="539,-341.5 539,-360.5 590,-360.5 590,-341.5 539,-341.5"/>
<polygon fill="#8fbc8f" stroke="transparent" points="543,-345.5 543,-356.5 586,-356.5 586,-345.5 543,-345.5"/>
<polygon fill="none" stroke="black" stroke-dasharray="5,2" points="543,-345.5 543,-356.5 586,-356.5 586,-345.5 543,-345.5"/>
<polygon fill="#eeeeee" stroke="transparent" stroke-dasharray="5,2" points="423,-322.5 423,-341.5 539,-341.5 539,-322.5 423,-322.5"/>
<polygon fill="none" stroke="black" points="423,-322.5 423,-341.5 539,-341.5 539,-322.5 423,-322.5"/>
<text text-anchor="start" x="468" y="-329.5" font-family="Courier,monospace" font-size="10.00">train_ratio</text>
<polygon fill="none" stroke="black" points="539,-322.5 539,-341.5 590,-341.5 590,-322.5 539,-322.5"/>
<text text-anchor="start" x="543" y="-329.5" font-family="Courier,monospace" font-size="10.00">0.7</text>
<polygon fill="#eeeeee" stroke="transparent" points="423,-303.5 423,-322.5 539,-322.5 539,-303.5 423,-303.5"/>
<polygon fill="none" stroke="black" points="423,-303.5 423,-322.5 539,-322.5 539,-303.5 423,-303.5"/>
<text text-anchor="start" x="480" y="-310.5" font-family="Courier,monospace" font-size="10.00">val_ratio</text>
<polygon fill="none" stroke="black" points="539,-303.5 539,-322.5 590,-322.5 590,-303.5 539,-303.5"/>
<text text-anchor="start" x="543" y="-310.5" font-family="Courier,monospace" font-size="10.00">0.15</text>
<polygon fill="#eeeeee" stroke="transparent" points="423,-284.5 423,-303.5 539,-303.5 539,-284.5 423,-284.5"/>
<polygon fill="none" stroke="black" points="423,-284.5 423,-303.5 539,-303.5 539,-284.5 423,-284.5"/>
<text text-anchor="start" x="474" y="-291.5" font-family="Courier,monospace" font-size="10.00">batch_size</text>
<polygon fill="none" stroke="black" points="539,-284.5 539,-303.5 590,-303.5 590,-284.5 539,-284.5"/>
<text text-anchor="start" x="543" y="-291.5" font-family="Courier,monospace" font-size="10.00">16</text>
<polygon fill="#eeeeee" stroke="transparent" points="423,-265.5 423,-284.5 539,-284.5 539,-265.5 423,-265.5"/>
<polygon fill="none" stroke="black" points="423,-265.5 423,-284.5 539,-284.5 539,-265.5 423,-265.5"/>
<text text-anchor="start" x="468" y="-272.5" font-family="Courier,monospace" font-size="10.00">num_workers</text>
<polygon fill="none" stroke="black" points="539,-265.5 539,-284.5 590,-284.5 590,-265.5 539,-265.5"/>
<text text-anchor="start" x="543" y="-272.5" font-family="Courier,monospace" font-size="10.00">8</text>
<polygon fill="#eeeeee" stroke="transparent" points="423,-246.5 423,-265.5 539,-265.5 539,-246.5 423,-246.5"/>
<polygon fill="none" stroke="black" points="423,-246.5 423,-265.5 539,-265.5 539,-246.5 423,-246.5"/>
<text text-anchor="start" x="474" y="-253.5" font-family="Courier,monospace" font-size="10.00">pin_memory</text>
<polygon fill="none" stroke="black" points="539,-246.5 539,-265.5 590,-265.5 590,-246.5 539,-246.5"/>
<text text-anchor="start" x="543" y="-253.5" font-family="Courier,monospace" font-size="10.00">True</text>
</g>
<!-- 0&#45;&#45;5 -->
<g id="edge6" class="edge">
<title>0:c&#45;&#45;5:c</title>
<path fill="none" stroke="#cb6f00" stroke-width="3" stroke-opacity="0.501961" d="M506,-461.95C506,-450.04 506,-413.9 506,-380.38"/>
</g>
<!-- 7 -->
<g id="node9" class="node">
<title>7</title>
<polygon fill="#adff2f" stroke="transparent" points="958,-358.5 958,-377.5 1105,-377.5 1105,-358.5 958,-358.5"/>
<polygon fill="none" stroke="black" points="958,-358.5 958,-377.5 1105,-377.5 1105,-358.5 958,-358.5"/>
<text text-anchor="start" x="991" y="-366.5" font-family="Courier,monospace" font-size="8.00">Config:</text>
<text text-anchor="start" x="1023" y="-366.5" font-family="Courier,monospace" font-size="10.00"> Trainer</text>
<polygon fill="#eeeeee" stroke="transparent" points="958,-339.5 958,-358.5 1033,-358.5 1033,-339.5 958,-339.5"/>
<polygon fill="none" stroke="black" points="958,-339.5 958,-358.5 1033,-358.5 1033,-339.5 958,-339.5"/>
<text text-anchor="start" x="962" y="-346.5" font-family="Courier,monospace" font-size="10.00">accelerator</text>
<polygon fill="none" stroke="black" points="1033,-339.5 1033,-358.5 1105,-358.5 1105,-339.5 1033,-339.5"/>
<text text-anchor="start" x="1037" y="-346.5" font-family="Courier,monospace" font-size="10.00">&#39;auto&#39;</text>
<polygon fill="#eeeeee" stroke="transparent" points="958,-320.5 958,-339.5 1033,-339.5 1033,-320.5 958,-320.5"/>
<polygon fill="none" stroke="black" points="958,-320.5 958,-339.5 1033,-339.5 1033,-320.5 958,-320.5"/>
<text text-anchor="start" x="992" y="-327.5" font-family="Courier,monospace" font-size="10.00">logger</text>
<polygon fill="none" stroke="black" points="1033,-320.5 1033,-339.5 1105,-339.5 1105,-320.5 1033,-320.5"/>
<polygon fill="#ff6347" stroke="transparent" points="1037,-324.5 1037,-335.5 1101,-335.5 1101,-324.5 1037,-324.5"/>
<polygon fill="none" stroke="black" points="1037,-324.5 1037,-335.5 1101,-335.5 1101,-324.5 1037,-324.5"/>
<polygon fill="#eeeeee" stroke="transparent" points="958,-268.5 958,-320.5 1033,-320.5 1033,-268.5 958,-268.5"/>
<polygon fill="none" stroke="black" points="958,-268.5 958,-320.5 1033,-320.5 1033,-268.5 958,-268.5"/>
<text text-anchor="start" x="974" y="-292" font-family="Courier,monospace" font-size="10.00">callbacks</text>
<polygon fill="none" stroke="black" points="1033,-268.5 1033,-320.5 1105,-320.5 1105,-268.5 1033,-268.5"/>
<polygon fill="#eeeeee" stroke="transparent" points="1037,-297.5 1037,-316.5 1101,-316.5 1101,-297.5 1037,-297.5"/>
<polygon fill="none" stroke="black" points="1037,-297.5 1037,-316.5 1101,-316.5 1101,-297.5 1037,-297.5"/>
<text text-anchor="start" x="1056.5" y="-304.5" font-family="Courier,monospace" font-size="10.00">list</text>
<polygon fill="none" stroke="black" points="1037,-281.5 1037,-297.5 1053,-297.5 1053,-281.5 1037,-281.5"/>
<polygon fill="#db7093" stroke="transparent" points="1041,-285.5 1041,-293.5 1049,-293.5 1049,-285.5 1041,-285.5"/>
<polygon fill="none" stroke="black" points="1041,-285.5 1041,-293.5 1049,-293.5 1049,-285.5 1041,-285.5"/>
<polygon fill="none" stroke="black" points="1053,-281.5 1053,-297.5 1069,-297.5 1069,-281.5 1053,-281.5"/>
<polygon fill="#f0e68c" stroke="transparent" points="1057,-285.5 1057,-293.5 1065,-293.5 1065,-285.5 1057,-285.5"/>
<polygon fill="none" stroke="black" points="1057,-285.5 1057,-293.5 1065,-293.5 1065,-285.5 1057,-285.5"/>
<polygon fill="none" stroke="black" points="1069,-281.5 1069,-297.5 1085,-297.5 1085,-281.5 1069,-281.5"/>
<polygon fill="#32cd32" stroke="transparent" points="1073,-285.5 1073,-293.5 1081,-293.5 1081,-285.5 1073,-285.5"/>
<polygon fill="none" stroke="black" points="1073,-285.5 1073,-293.5 1081,-293.5 1081,-285.5 1073,-285.5"/>
<polygon fill="none" stroke="black" points="1085,-281.5 1085,-297.5 1101,-297.5 1101,-281.5 1085,-281.5"/>
<polygon fill="#00bfff" stroke="transparent" points="1089,-285.5 1089,-293.5 1097,-293.5 1097,-285.5 1089,-285.5"/>
<polygon fill="none" stroke="black" points="1089,-285.5 1089,-293.5 1097,-293.5 1097,-285.5 1089,-285.5"/>
<polygon fill="#eeeeee" stroke="transparent" points="1037,-272.5 1037,-281.5 1053,-281.5 1053,-272.5 1037,-272.5"/>
<polygon fill="none" stroke="black" points="1037,-272.5 1037,-281.5 1053,-281.5 1053,-272.5 1037,-272.5"/>
<text text-anchor="start" x="1043" y="-275.7" font-family="Courier,monospace" font-size="6.00">0</text>
<polygon fill="#eeeeee" stroke="transparent" points="1053,-272.5 1053,-281.5 1069,-281.5 1069,-272.5 1053,-272.5"/>
<polygon fill="none" stroke="black" points="1053,-272.5 1053,-281.5 1069,-281.5 1069,-272.5 1053,-272.5"/>
<text text-anchor="start" x="1059" y="-275.7" font-family="Courier,monospace" font-size="6.00">1</text>
<polygon fill="#eeeeee" stroke="transparent" points="1069,-272.5 1069,-281.5 1085,-281.5 1085,-272.5 1069,-272.5"/>
<polygon fill="none" stroke="black" points="1069,-272.5 1069,-281.5 1085,-281.5 1085,-272.5 1069,-272.5"/>
<text text-anchor="start" x="1075" y="-275.7" font-family="Courier,monospace" font-size="6.00">2</text>
<polygon fill="#eeeeee" stroke="transparent" points="1085,-272.5 1085,-281.5 1101,-281.5 1101,-272.5 1085,-272.5"/>
<polygon fill="none" stroke="black" points="1085,-272.5 1085,-281.5 1101,-281.5 1101,-272.5 1085,-272.5"/>
<text text-anchor="start" x="1091" y="-275.7" font-family="Courier,monospace" font-size="6.00">3</text>
<polygon fill="#eeeeee" stroke="transparent" points="958,-249.5 958,-268.5 1033,-268.5 1033,-249.5 958,-249.5"/>
<polygon fill="none" stroke="black" points="958,-249.5 958,-268.5 1033,-268.5 1033,-249.5 958,-249.5"/>
<text text-anchor="start" x="968" y="-256.5" font-family="Courier,monospace" font-size="10.00">max_epochs</text>
<polygon fill="none" stroke="black" points="1033,-249.5 1033,-268.5 1105,-268.5 1105,-249.5 1033,-249.5"/>
<text text-anchor="start" x="1037" y="-256.5" font-family="Courier,monospace" font-size="10.00">100</text>
</g>
<!-- 0&#45;&#45;7 -->
<g id="edge12" class="edge">
<title>0:c&#45;&#45;7:c</title>
<path fill="none" stroke="#8acb25" stroke-width="3" stroke-opacity="0.501961" d="M517.45,-444.11C574.4,-429.74 829.38,-365.38 957.31,-333.1"/>
</g>
<!-- 6 -->
<g id="node6" class="node">
<title>6</title>
<polygon fill="#8fbc8f" stroke="transparent" points="424,-169 424,-188 706,-188 706,-169 424,-169"/>
<polygon fill="none" stroke="black" stroke-dasharray="5,2" points="424,-169 424,-188 706,-188 706,-169 424,-169"/>
<text text-anchor="start" x="435" y="-177" font-family="Courier,monospace" font-size="8.00">Partial:</text>
<text text-anchor="start" x="472" y="-177" font-family="Courier,monospace" font-size="10.00"> SourceDataPrecomputedSamplingDataset</text>
<polygon fill="#eeeeee" stroke="transparent" stroke-dasharray="5,2" points="424,-150 424,-169 517,-169 517,-150 424,-150"/>
<polygon fill="none" stroke="black" points="424,-150 424,-169 517,-169 517,-150 424,-150"/>
<text text-anchor="start" x="458" y="-157" font-family="Courier,monospace" font-size="10.00">zarr_path</text>
<polygon fill="none" stroke="black" points="517,-150 517,-169 706,-169 706,-150 517,-150"/>
<text text-anchor="start" x="521" y="-157" font-family="Courier,monospace" font-size="10.00">&#39;./data/radar.zarr&#39;</text>
<polygon fill="#eeeeee" stroke="transparent" points="424,-131 424,-150 517,-150 517,-131 424,-131"/>
<polygon fill="none" stroke="black" points="424,-131 424,-150 517,-150 517,-131 424,-131"/>
<text text-anchor="start" x="464" y="-138" font-family="Courier,monospace" font-size="10.00">csv_path</text>
<polygon fill="none" stroke="black" points="517,-131 517,-150 706,-150 706,-131 517,-131"/>
<text text-anchor="start" x="521" y="-138" font-family="Courier,monospace" font-size="10.00">&#39;./data/sampled_datacubes.csv&#39;</text>
<polygon fill="#eeeeee" stroke="transparent" points="424,-76 424,-131 517,-131 517,-76 424,-76"/>
<polygon fill="none" stroke="black" points="424,-76 424,-131 517,-131 517,-76 424,-76"/>
<text text-anchor="start" x="428" y="-101" font-family="Courier,monospace" font-size="10.00">standard_names</text>
<polygon fill="none" stroke="black" points="517,-76 517,-131 706,-131 706,-76 517,-76"/>
<polygon fill="#eeeeee" stroke="transparent" points="521,-108 521,-127 702,-127 702,-108 521,-108"/>
<polygon fill="none" stroke="black" points="521,-108 521,-127 702,-127 702,-108 521,-108"/>
<text text-anchor="start" x="599" y="-115" font-family="Courier,monospace" font-size="10.00">list</text>
<polygon fill="none" stroke="black" points="521,-89 521,-108 702,-108 702,-89 521,-89"/>
<text text-anchor="start" x="566" y="-96" font-family="Courier,monospace" font-size="10.00">&#39;rainfall_rate&#39;</text>
<polygon fill="#eeeeee" stroke="transparent" points="521,-80 521,-89 702,-89 702,-80 521,-80"/>
<polygon fill="none" stroke="black" points="521,-80 521,-89 702,-89 702,-80 521,-80"/>
<text text-anchor="start" x="609.5" y="-83.2" font-family="Courier,monospace" font-size="6.00">0</text>
<polygon fill="#eeeeee" stroke="transparent" points="424,-57 424,-76 517,-76 517,-57 424,-57"/>
<polygon fill="none" stroke="black" points="424,-57 424,-76 517,-76 517,-57 424,-57"/>
<text text-anchor="start" x="446" y="-64" font-family="Courier,monospace" font-size="10.00">input_steps</text>
<polygon fill="none" stroke="black" points="517,-57 517,-76 706,-76 706,-57 517,-57"/>
<text text-anchor="start" x="521" y="-64" font-family="Courier,monospace" font-size="10.00">6</text>
<polygon fill="#eeeeee" stroke="transparent" points="424,-38 424,-57 517,-57 517,-38 424,-38"/>
<polygon fill="none" stroke="black" points="424,-38 424,-57 517,-57 517,-38 424,-38"/>
<text text-anchor="start" x="428" y="-45" font-family="Courier,monospace" font-size="10.00">forecast_steps</text>
<polygon fill="none" stroke="black" points="517,-38 517,-57 706,-57 706,-38 517,-38"/>
<text text-anchor="start" x="521" y="-45" font-family="Courier,monospace" font-size="10.00">12</text>
<polygon fill="#eeeeee" stroke="transparent" points="424,-19 424,-38 517,-38 517,-19 424,-19"/>
<polygon fill="none" stroke="black" points="424,-19 424,-38 517,-38 517,-19 424,-19"/>
<text text-anchor="start" x="446" y="-26" font-family="Courier,monospace" font-size="10.00">return_mask</text>
<polygon fill="none" stroke="black" points="517,-19 517,-38 706,-38 706,-19 517,-19"/>
<text text-anchor="start" x="521" y="-26" font-family="Courier,monospace" font-size="10.00">True</text>
<polygon fill="#eeeeee" stroke="transparent" points="424,0 424,-19 517,-19 517,0 424,0"/>
<polygon fill="none" stroke="black" points="424,0 424,-19 517,-19 517,0 424,0"/>
<text text-anchor="start" x="434" y="-7" font-family="Courier,monospace" font-size="10.00">deterministic</text>
<polygon fill="none" stroke="black" points="517,0 517,-19 706,-19 706,0 517,0"/>
<text text-anchor="start" x="521" y="-7" font-family="Courier,monospace" font-size="10.00">False</text>
</g>
<!-- 5&#45;&#45;6 -->
<g id="edge5" class="edge">
<title>5:c&#45;&#45;6:c</title>
<path fill="none" stroke="#729672" stroke-width="3" stroke-opacity="0.501961" d="M565,-345.16C565,-324.88 565,-250.59 565,-188.2"/>
</g>
<!-- 8 -->
<g id="node8" class="node">
<title>8</title>
<polygon fill="#ff6347" stroke="transparent" points="1084,-103 1084,-122 1233,-122 1233,-103 1084,-103"/>
<polygon fill="none" stroke="black" points="1084,-103 1084,-122 1233,-122 1233,-103 1084,-103"/>
<text text-anchor="start" x="1088" y="-111" font-family="Courier,monospace" font-size="8.00">Config:</text>
<text text-anchor="start" x="1120" y="-111" font-family="Courier,monospace" font-size="10.00"> TensorBoardLogger</text>
<polygon fill="#eeeeee" stroke="transparent" points="1084,-84 1084,-103 1158,-103 1158,-84 1084,-84"/>
<polygon fill="none" stroke="black" points="1084,-84 1084,-103 1158,-103 1158,-84 1084,-84"/>
<text text-anchor="start" x="1105" y="-91" font-family="Courier,monospace" font-size="10.00">save_dir</text>
<polygon fill="none" stroke="black" points="1158,-84 1158,-103 1233,-103 1233,-84 1158,-84"/>
<text text-anchor="start" x="1162" y="-91" font-family="Courier,monospace" font-size="10.00">&#39;logs&#39;</text>
<polygon fill="#eeeeee" stroke="transparent" points="1084,-65 1084,-84 1158,-84 1158,-65 1084,-65"/>
<polygon fill="none" stroke="black" points="1084,-65 1084,-84 1158,-84 1158,-65 1084,-65"/>
<text text-anchor="start" x="1129" y="-72" font-family="Courier,monospace" font-size="10.00">name</text>
<polygon fill="none" stroke="black" points="1158,-65 1158,-84 1233,-84 1233,-65 1158,-65"/>
<text text-anchor="start" x="1162" y="-72" font-family="Courier,monospace" font-size="10.00">&#39;mlcast&#39;</text>
</g>
<!-- 7&#45;&#45;8 -->
<g id="edge7" class="edge">
<title>7:c&#45;&#45;8:c</title>
<path fill="none" stroke="#cb4f38" stroke-width="3" stroke-opacity="0.501961" d="M1071.03,-324.16C1081.14,-297.51 1126.53,-177.92 1147.42,-122.88"/>
</g>
<!-- 9 -->
<g id="node10" class="node">
<title>9</title>
<polygon fill="#db7093" stroke="transparent" points="724,-113 724,-132 862,-132 862,-113 724,-113"/>
<polygon fill="none" stroke="black" points="724,-113 724,-132 862,-132 862,-113 724,-113"/>
<text text-anchor="start" x="728.5" y="-121" font-family="Courier,monospace" font-size="8.00">Config:</text>
<text text-anchor="start" x="760.5" y="-121" font-family="Courier,monospace" font-size="10.00"> ModelCheckpoint</text>
<polygon fill="#eeeeee" stroke="transparent" points="724,-94 724,-113 793,-113 793,-94 724,-94"/>
<polygon fill="none" stroke="black" points="724,-94 724,-113 793,-113 793,-94 724,-94"/>
<text text-anchor="start" x="746" y="-101" font-family="Courier,monospace" font-size="10.00">monitor</text>
<polygon fill="none" stroke="black" points="793,-94 793,-113 862,-113 862,-94 793,-94"/>
<text text-anchor="start" x="797" y="-101" font-family="Courier,monospace" font-size="10.00">&#39;val_loss&#39;</text>
<polygon fill="#eeeeee" stroke="transparent" points="724,-75 724,-94 793,-94 793,-75 724,-75"/>
<polygon fill="none" stroke="black" points="724,-75 724,-94 793,-94 793,-75 724,-75"/>
<text text-anchor="start" x="728" y="-82" font-family="Courier,monospace" font-size="10.00">save_top_k</text>
<polygon fill="none" stroke="black" points="793,-75 793,-94 862,-94 862,-75 793,-75"/>
<text text-anchor="start" x="797" y="-82" font-family="Courier,monospace" font-size="10.00">1</text>
<polygon fill="#eeeeee" stroke="transparent" points="724,-56 724,-75 793,-75 793,-56 724,-56"/>
<polygon fill="none" stroke="black" points="724,-56 724,-75 793,-75 793,-56 724,-56"/>
<text text-anchor="start" x="764" y="-63" font-family="Courier,monospace" font-size="10.00">mode</text>
<polygon fill="none" stroke="black" points="793,-56 793,-75 862,-75 862,-56 793,-56"/>
<text text-anchor="start" x="797" y="-63" font-family="Courier,monospace" font-size="10.00">&#39;min&#39;</text>
</g>
<!-- 7&#45;&#45;9 -->
<g id="edge8" class="edge">
<title>7:c&#45;&#45;9:c</title>
<path fill="none" stroke="#af5975" stroke-width="3" stroke-opacity="0.501961" d="M1040.88,-286.77C1020.76,-278.21 931.38,-238.69 871,-188 851.63,-171.74 833.28,-150.29 819.25,-132.09"/>
</g>
<!-- 10 -->
<g id="node11" class="node">
<title>10</title>
<polygon fill="#f0e68c" stroke="transparent" points="880,-113 880,-132 1066,-132 1066,-113 880,-113"/>
<polygon fill="none" stroke="black" points="880,-113 880,-132 1066,-132 1066,-113 880,-113"/>
<text text-anchor="start" x="908.5" y="-121" font-family="Courier,monospace" font-size="8.00">Config:</text>
<text text-anchor="start" x="940.5" y="-121" font-family="Courier,monospace" font-size="10.00"> ModelCheckpoint</text>
<polygon fill="#eeeeee" stroke="transparent" points="880,-94 880,-113 949,-113 949,-94 880,-94"/>
<polygon fill="none" stroke="black" points="880,-94 880,-113 949,-113 949,-94 880,-94"/>
<text text-anchor="start" x="902" y="-101" font-family="Courier,monospace" font-size="10.00">monitor</text>
<polygon fill="none" stroke="black" points="949,-94 949,-113 1066,-113 1066,-94 949,-94"/>
<text text-anchor="start" x="953" y="-101" font-family="Courier,monospace" font-size="10.00">&#39;train_loss_epoch&#39;</text>
<polygon fill="#eeeeee" stroke="transparent" points="880,-75 880,-94 949,-94 949,-75 880,-75"/>
<polygon fill="none" stroke="black" points="880,-75 880,-94 949,-94 949,-75 880,-75"/>
<text text-anchor="start" x="884" y="-82" font-family="Courier,monospace" font-size="10.00">save_top_k</text>
<polygon fill="none" stroke="black" points="949,-75 949,-94 1066,-94 1066,-75 949,-75"/>
<text text-anchor="start" x="953" y="-82" font-family="Courier,monospace" font-size="10.00">1</text>
<polygon fill="#eeeeee" stroke="transparent" points="880,-56 880,-75 949,-75 949,-56 880,-56"/>
<polygon fill="none" stroke="black" points="880,-56 880,-75 949,-75 949,-56 880,-56"/>
<text text-anchor="start" x="920" y="-63" font-family="Courier,monospace" font-size="10.00">mode</text>
<polygon fill="none" stroke="black" points="949,-56 949,-75 1066,-75 1066,-56 949,-56"/>
<text text-anchor="start" x="953" y="-63" font-family="Courier,monospace" font-size="10.00">&#39;min&#39;</text>
</g>
<!-- 7&#45;&#45;10 -->
<g id="edge9" class="edge">
<title>7:c&#45;&#45;10:c</title>
<path fill="none" stroke="#bfb770" stroke-width="3" stroke-opacity="0.501961" d="M1059.62,-285.46C1051.81,-268.3 1012.78,-182.47 989.86,-132.08"/>
</g>
<!-- 11 -->
<g id="node12" class="node">
<title>11</title>
<polygon fill="#32cd32" stroke="transparent" points="1251,-113 1251,-132 1377,-132 1377,-113 1251,-113"/>
<polygon fill="none" stroke="black" points="1251,-113 1251,-132 1377,-132 1377,-113 1251,-113"/>
<text text-anchor="start" x="1255.5" y="-121" font-family="Courier,monospace" font-size="8.00">Config:</text>
<text text-anchor="start" x="1287.5" y="-121" font-family="Courier,monospace" font-size="10.00"> EarlyStopping</text>
<polygon fill="#eeeeee" stroke="transparent" points="1251,-94 1251,-113 1308,-113 1308,-94 1251,-94"/>
<polygon fill="none" stroke="black" points="1251,-94 1251,-113 1308,-113 1308,-94 1251,-94"/>
<text text-anchor="start" x="1261" y="-101" font-family="Courier,monospace" font-size="10.00">monitor</text>
<polygon fill="none" stroke="black" points="1308,-94 1308,-113 1377,-113 1377,-94 1308,-94"/>
<text text-anchor="start" x="1312" y="-101" font-family="Courier,monospace" font-size="10.00">&#39;val_loss&#39;</text>
<polygon fill="#eeeeee" stroke="transparent" points="1251,-75 1251,-94 1308,-94 1308,-75 1251,-75"/>
<polygon fill="none" stroke="black" points="1251,-75 1251,-94 1308,-94 1308,-75 1251,-75"/>
<text text-anchor="start" x="1255" y="-82" font-family="Courier,monospace" font-size="10.00">patience</text>
<polygon fill="none" stroke="black" points="1308,-75 1308,-94 1377,-94 1377,-75 1308,-75"/>
<text text-anchor="start" x="1312" y="-82" font-family="Courier,monospace" font-size="10.00">100</text>
<polygon fill="#eeeeee" stroke="transparent" points="1251,-56 1251,-75 1308,-75 1308,-56 1251,-56"/>
<polygon fill="none" stroke="black" points="1251,-56 1251,-75 1308,-75 1308,-56 1251,-56"/>
<text text-anchor="start" x="1279" y="-63" font-family="Courier,monospace" font-size="10.00">mode</text>
<polygon fill="none" stroke="black" points="1308,-56 1308,-75 1377,-75 1377,-56 1308,-56"/>
<text text-anchor="start" x="1312" y="-63" font-family="Courier,monospace" font-size="10.00">&#39;min&#39;</text>
</g>
<!-- 7&#45;&#45;11 -->
<g id="edge10" class="edge">
<title>7:c&#45;&#45;11:c</title>
<path fill="none" stroke="#28a328" stroke-width="3" stroke-opacity="0.501961" d="M1081.46,-286.53C1101.67,-277.46 1185.99,-238.08 1242,-188 1260.27,-171.67 1277.23,-150.21 1290.1,-132.03"/>
</g>
<!-- 12 -->
<g id="node13" class="node">
<title>12</title>
<polygon fill="#00bfff" stroke="transparent" points="1396,-94 1396,-113 1557,-113 1557,-94 1396,-94"/>
<polygon fill="none" stroke="black" points="1396,-94 1396,-113 1557,-113 1557,-94 1396,-94"/>
<text text-anchor="start" x="1400" y="-102" font-family="Courier,monospace" font-size="8.00">Config:</text>
<text text-anchor="start" x="1432" y="-102" font-family="Courier,monospace" font-size="10.00"> LearningRateMonitor</text>
<polygon fill="#eeeeee" stroke="transparent" points="1396,-75 1396,-94 1506,-94 1506,-75 1396,-75"/>
<polygon fill="none" stroke="black" points="1396,-75 1396,-94 1506,-94 1506,-75 1396,-75"/>
<text text-anchor="start" x="1405" y="-82" font-family="Courier,monospace" font-size="10.00">logging_interval</text>
<polygon fill="none" stroke="black" points="1506,-75 1506,-94 1557,-94 1557,-75 1506,-75"/>
<text text-anchor="start" x="1510" y="-82" font-family="Courier,monospace" font-size="10.00">&#39;step&#39;</text>
</g>
<!-- 7&#45;&#45;12 -->
<g id="edge11" class="edge">
<title>7:c&#45;&#45;12:c</title>
<path fill="none" stroke="#0098cb" stroke-width="3" stroke-opacity="0.501961" d="M1097.11,-287.84C1124.28,-283.33 1280.25,-255.21 1386,-188 1417.86,-167.75 1446.66,-134.03 1462.7,-113.24"/>
</g>
</g>
</svg>
