<?xml version="1.0" encoding="UTF-8" standalone="no"?>
<!DOCTYPE svg PUBLIC "-//W3C//DTD SVG 1.1//EN"
 "http://www.w3.org/Graphics/SVG/1.1/DTD/svg11.dtd">
<!-- Generated by graphviz version 2.43.0 (0)
 -->
<!-- Title: %3 Pages: 1 -->
<svg width="1565pt" height="531pt"
 viewBox="0.00 0.00 1564.50 531.00" xmlns="http://www.w3.org/2000/svg" xmlns:xlink="http://www.w3.org/1999/xlink">
<g id="graph0" class="graph" transform="scale(1 1) rotate(0) translate(4 527)">
<title>%3</title>
<polygon fill="white" stroke="transparent" points="-4,4 -4,-527 1560.5,-527 1560.5,4 -4,4"/>
<!-- 2 -->
<g id="node1" class="node">
<title>2</title>
<polygon fill="#fff8dc" stroke="transparent" points="0,-113 0,-132 132,-132 132,-113 0,-113"/>
<polygon fill="none" stroke="black" points="0,-113 0,-132 132,-132 132,-113 0,-113"/>
<text text-anchor="start" x="10.5" y="-121" font-family="Courier,monospace" font-size="8.00">Config:</text>
<text text-anchor="start" x="42.5" y="-121" font-family="Courier,monospace" font-size="10.00"> ConvGruModel</text>
<polygon fill="#eeeeee" stroke="transparent" points="0,-94 0,-113 93,-113 93,-94 0,-94"/>
<polygon fill="none" stroke="black" points="0,-94 0,-113 93,-113 93,-94 0,-94"/>
<text text-anchor="start" x="4" y="-101" font-family="Courier,monospace" font-size="10.00">input_channels</text>
<polygon fill="none" stroke="black" points="93,-94 93,-113 132,-113 132,-94 93,-94"/>
<text text-anchor="start" x="97" y="-101" font-family="Courier,monospace" font-size="10.00">1</text>
<polygon fill="#eeeeee" stroke="transparent" points="0,-75 0,-94 93,-94 93,-75 0,-75"/>
<polygon fill="none" stroke="black" points="0,-75 0,-94 93,-94 93,-75 0,-75"/>
<text text-anchor="start" x="28" y="-82" font-family="Courier,monospace" font-size="10.00">num_blocks</text>
<polygon fill="none" stroke="black" points="93,-75 93,-94 132,-94 132,-75 93,-75"/>
<text text-anchor="start" x="97" y="-82" font-family="Courier,monospace" font-size="10.00">5</text>
<polygon fill="#eeeeee" stroke="transparent" points="0,-56 0,-75 93,-75 93,-56 0,-56"/>
<polygon fill="none" stroke="black" points="0,-56 0,-75 93,-75 93,-56 0,-56"/>
<text text-anchor="start" x="10" y="-63" font-family="Courier,monospace" font-size="10.00">noisy_decoder</text>
<polygon fill="none" stroke="black" points="93,-56 93,-75 132,-75 132,-56 93,-56"/>
<text text-anchor="start" x="97" y="-63" font-family="Courier,monospace" font-size="10.00">False</text>
</g>
<!-- 1 -->
<g id="node2" class="node">
<title>1</title>
<polygon fill="#90ee90" stroke="transparent" points="83,-387.5 83,-406.5 322,-406.5 322,-387.5 83,-387.5"/>
<polygon fill="none" stroke="black" points="83,-387.5 83,-406.5 322,-406.5 322,-387.5 83,-387.5"/>
<text text-anchor="start" x="117" y="-395.5" font-family="Courier,monospace" font-size="8.00">Config:</text>
<text text-anchor="start" x="149" y="-395.5" font-family="Courier,monospace" font-size="10.00"> NowcastLightningModule</text>
<polygon fill="#eeeeee" stroke="transparent" points="83,-368.5 83,-387.5 170,-387.5 170,-368.5 83,-368.5"/>
<polygon fill="none" stroke="black" points="83,-368.5 83,-387.5 170,-387.5 170,-368.5 83,-368.5"/>
<text text-anchor="start" x="123" y="-375.5" font-family="Courier,monospace" font-size="10.00">network</text>
<polygon fill="none" stroke="black" points="170,-368.5 170,-387.5 322,-387.5 322,-368.5 170,-368.5"/>
<polygon fill="#fff8dc" stroke="transparent" points="174,-372.5 174,-383.5 318,-383.5 318,-372.5 174,-372.5"/>
<polygon fill="none" stroke="black" points="174,-372.5 174,-383.5 318,-383.5 318,-372.5 174,-372.5"/>
<polygon fill="#eeeeee" stroke="transparent" points="83,-349.5 83,-368.5 170,-368.5 170,-349.5 83,-349.5"/>
<polygon fill="none" stroke="black" points="83,-349.5 83,-368.5 170,-368.5 170,-349.5 83,-349.5"/>
<text text-anchor="start" x="87" y="-356.5" font-family="Courier,monospace" font-size="10.00">ensemble_size</text>
<polygon fill="none" stroke="black" points="170,-349.5 170,-368.5 322,-368.5 322,-349.5 170,-349.5"/>
<text text-anchor="start" x="174" y="-356.5" font-family="Courier,monospace" font-size="10.00">2</text>
<polygon fill="#eeeeee" stroke="transparent" points="83,-330.5 83,-349.5 170,-349.5 170,-330.5 83,-330.5"/>
<polygon fill="none" stroke="black" points="83,-330.5 83,-349.5 170,-349.5 170,-330.5 83,-330.5"/>
<text text-anchor="start" x="105" y="-337.5" font-family="Courier,monospace" font-size="10.00">loss_class</text>
<polygon fill="none" stroke="black" points="170,-330.5 170,-349.5 322,-349.5 322,-330.5 170,-330.5"/>
<text text-anchor="start" x="174" y="-337.5" font-family="Courier,monospace" font-size="10.00">&#39;crps&#39;</text>
<polygon fill="#eeeeee" stroke="transparent" points="83,-284.5 83,-330.5 170,-330.5 170,-284.5 83,-284.5"/>
<polygon fill="none" stroke="black" points="83,-284.5 83,-330.5 170,-330.5 170,-284.5 83,-284.5"/>
<text text-anchor="start" x="99" y="-305" font-family="Courier,monospace" font-size="10.00">loss_params</text>
<polygon fill="none" stroke="black" points="170,-284.5 170,-330.5 322,-330.5 322,-284.5 170,-284.5"/>
<polygon fill="#eeeeee" stroke="transparent" points="174,-307.5 174,-326.5 318,-326.5 318,-307.5 174,-307.5"/>
<polygon fill="none" stroke="black" points="174,-307.5 174,-326.5 318,-326.5 318,-307.5 174,-307.5"/>
<text text-anchor="start" x="233.5" y="-314.5" font-family="Courier,monospace" font-size="10.00">dict</text>
<polygon fill="#eeeeee" stroke="transparent" points="174,-288.5 174,-307.5 285,-307.5 285,-288.5 174,-288.5"/>
<polygon fill="none" stroke="black" points="174,-288.5 174,-307.5 285,-307.5 285,-288.5 174,-288.5"/>
<text text-anchor="start" x="178" y="-295.5" font-family="Courier,monospace" font-size="10.00">&#39;temporal_lambda&#39;</text>
<polygon fill="none" stroke="black" points="285,-288.5 285,-307.5 318,-307.5 318,-288.5 285,-288.5"/>
<text text-anchor="start" x="289" y="-295.5" font-family="Courier,monospace" font-size="10.00">0.01</text>
<polygon fill="#eeeeee" stroke="transparent" points="83,-265.5 83,-284.5 170,-284.5 170,-265.5 83,-265.5"/>
<polygon fill="none" stroke="black" points="83,-265.5 83,-284.5 170,-284.5 170,-265.5 83,-265.5"/>
<text text-anchor="start" x="99" y="-272.5" font-family="Courier,monospace" font-size="10.00">masked_loss</text>
<polygon fill="none" stroke="black" points="170,-265.5 170,-284.5 322,-284.5 322,-265.5 170,-265.5"/>
<text text-anchor="start" x="174" y="-272.5" font-family="Courier,monospace" font-size="10.00">True</text>
<polygon fill="#eeeeee" stroke="transparent" points="83,-246.5 83,-265.5 170,-265.5 170,-246.5 83,-246.5"/>
<polygon fill="none" stroke="black" points="83,-246.5 83,-265.5 170,-265.5 170,-246.5 83,-246.5"/>
<text text-anchor="start" x="111" y="-253.5" font-family="Courier,monospace" font-size="10.00">optimizer</text>
<polygon fill="none" stroke="black" points="170,-246.5 170,-265.5 322,-265.5 322,-246.5 170,-246.5"/>
<polygon fill="#ffa07a" stroke="transparent" points="174,-250.5 174,-261.5 318,-261.5 318,-250.5 174,-250.5"/>
<polygon fill="none" stroke="black" stroke-dasharray="5,2" points="174,-250.5 174,-261.5 318,-261.5 318,-250.5 174,-250.5"/>
<polygon fill="#eeeeee" stroke="transparent" stroke-dasharray="5,2" points="83,-227.5 83,-246.5 170,-246.5 170,-227.5 83,-227.5"/>
<polygon fill="none" stroke="black" points="83,-227.5 83,-246.5 170,-246.5 170,-227.5 83,-227.5"/>
<text text-anchor="start" x="93" y="-234.5" font-family="Courier,monospace" font-size="10.00">lr_scheduler</text>
<polygon fill="none" stroke="black" points="170,-227.5 170,-246.5 322,-246.5 322,-227.5 170,-227.5"/>
<polygon fill="#add8e6" stroke="transparent" points="174,-231.5 174,-242.5 318,-242.5 318,-231.5 174,-231.5"/>
<polygon fill="none" stroke="black" stroke-dasharray="5,2" points="174,-231.5 174,-242.5 318,-242.5 318,-231.5 174,-231.5"/>
</g>
<!-- 1&#45;&#45;2 -->
<g id="edge1" class="edge">
<title>1:c&#45;&#45;2:c</title>
<path fill="none" stroke="#cbc6b0" stroke-width="3" stroke-opacity="0.501961" d="M242.72,-372.36C224.35,-343.53 133.46,-200.88 89.67,-132.15"/>
</g>
<!-- 3 -->
<g id="node3" class="node">
<title>3</title>
<polygon fill="#ffa07a" stroke="transparent" points="150,-103 150,-122 234,-122 234,-103 150,-103"/>
<polygon fill="none" stroke="black" stroke-dasharray="5,2" points="150,-103 150,-122 234,-122 234,-103 150,-103"/>
<text text-anchor="start" x="158" y="-111" font-family="Courier,monospace" font-size="8.00">Partial:</text>
<text text-anchor="start" x="195" y="-111" font-family="Courier,monospace" font-size="10.00"> Adam</text>
<polygon fill="#eeeeee" stroke="transparent" stroke-dasharray="5,2" points="150,-84 150,-103 189,-103 189,-84 150,-84"/>
<polygon fill="none" stroke="black" points="150,-84 150,-103 189,-103 189,-84 150,-84"/>
<text text-anchor="start" x="172" y="-91" font-family="Courier,monospace" font-size="10.00">lr</text>
<polygon fill="none" stroke="black" points="189,-84 189,-103 234,-103 234,-84 189,-84"/>
<text text-anchor="start" x="193" y="-91" font-family="Courier,monospace" font-size="10.00">0.0001</text>
<polygon fill="#eeeeee" stroke="transparent" points="150,-65 150,-84 189,-84 189,-65 150,-65"/>
<polygon fill="none" stroke="black" points="150,-65 150,-84 189,-84 189,-65 150,-65"/>
<text text-anchor="start" x="154" y="-72" font-family="Courier,monospace" font-size="10.00">fused</text>
<polygon fill="none" stroke="black" points="189,-65 189,-84 234,-84 234,-65 189,-65"/>
<text text-anchor="start" x="193" y="-72" font-family="Courier,monospace" font-size="10.00">True</text>
</g>
<!-- 1&#45;&#45;3 -->
<g id="edge2" class="edge">
<title>1:c&#45;&#45;3:c</title>
<path fill="none" stroke="#cb8061" stroke-width="3" stroke-opacity="0.501961" d="M244.56,-250.23C238.48,-232.3 214.73,-162.13 201.33,-122.55"/>
</g>
<!-- 4 -->
<g id="node4" class="node">
<title>4</title>
<polygon fill="#add8e6" stroke="transparent" points="252,-113 252,-132 406,-132 406,-113 252,-113"/>
<polygon fill="none" stroke="black" stroke-dasharray="5,2" points="252,-113 252,-132 406,-132 406,-113 252,-113"/>
<text text-anchor="start" x="256" y="-121" font-family="Courier,monospace" font-size="8.00">Partial:</text>
<text text-anchor="start" x="293" y="-121" font-family="Courier,monospace" font-size="10.00"> ReduceLROnPlateau</text>
<polygon fill="#eeeeee" stroke="transparent" stroke-dasharray="5,2" points="252,-94 252,-113 338,-113 338,-94 252,-94"/>
<polygon fill="none" stroke="black" points="252,-94 252,-113 338,-113 338,-94 252,-94"/>
<text text-anchor="start" x="309" y="-101" font-family="Courier,monospace" font-size="10.00">mode</text>
<polygon fill="none" stroke="black" points="338,-94 338,-113 406,-113 406,-94 338,-94"/>
<text text-anchor="start" x="342" y="-101" font-family="Courier,monospace" font-size="10.00">&#39;min&#39;</text>
<polygon fill="#eeeeee" stroke="transparent" points="252,-75 252,-94 338,-94 338,-75 252,-75"/>
<polygon fill="none" stroke="black" points="252,-75 252,-94 338,-94 338,-75 252,-75"/>
<text text-anchor="start" x="297" y="-82" font-family="Courier,monospace" font-size="10.00">factor</text>
<polygon fill="none" stroke="black" points="338,-75 338,-94 406,-94 406,-75 338,-75"/>
<text text-anchor="start" x="342" y="-82" font-family="Courier,monospace" font-size="10.00">0.5</text>
<polygon fill="#eeeeee" stroke="transparent" points="252,-56 252,-75 338,-75 338,-56 252,-56"/>
<polygon fill="none" stroke="black" points="252,-56 252,-75 338,-75 338,-56 252,-56"/>
<text text-anchor="start" x="285" y="-63" font-family="Courier,monospace" font-size="10.00">patience</text>
<polygon fill="none" stroke="black" points="338,-56 338,-75 406,-75 406,-56 338,-56"/>
<text text-anchor="start" x="342" y="-63" font-family="Courier,monospace" font-size="10.00">10</text>
</g>
<!-- 1&#45;&#45;4 -->
<g id="edge3" class="edge">
<title>1:c&#45;&#45;4:c</title>
<path fill="none" stroke="#8aacb7" stroke-width="3" stroke-opacity="0.501961" d="M248.39,-231.45C256.9,-217.05 286.26,-167.35 307.08,-132.1"/>
</g>
<!-- 0 -->
<g id="node5" class="node">
<title>0</title>
<polygon fill="#ffc0cb" stroke="transparent" points="423,-504 423,-523 530,-523 530,-504 423,-504"/>
<polygon fill="none" stroke="black" points="423,-504 423,-523 530,-523 530,-504 423,-504"/>
<text text-anchor="start" x="427" y="-512" font-family="Courier,monospace" font-size="8.00">Config:</text>
<text text-anchor="start" x="459" y="-512" font-family="Courier,monospace" font-size="10.00"> Experiment</text>
<polygon fill="#eeeeee" stroke="transparent" points="423,-485 423,-504 500,-504 500,-485 423,-485"/>
<polygon fill="none" stroke="black" points="423,-485 423,-504 500,-504 500,-485 423,-485"/>
<text text-anchor="start" x="441" y="-492" font-family="Courier,monospace" font-size="10.00">pl_module</text>
<polygon fill="none" stroke="black" points="500,-485 500,-504 530,-504 530,-485 500,-485"/>
<polygon fill="#90ee90" stroke="transparent" points="504,-489 504,-500 526,-500 526,-489 504,-489"/>
<polygon fill="none" stroke="black" points="504,-489 504,-500 526,-500 526,-489 504,-489"/>
<polygon fill="#eeeeee" stroke="transparent" points="423,-466 423,-485 500,-485 500,-466 423,-466"/>
<polygon fill="none" stroke="black" points="423,-466 423,-485 500,-485 500,-466 423,-466"/>
<text text-anchor="start" x="471" y="-473" font-family="Courier,monospace" font-size="10.00">data</text>
<polygon fill="none" stroke="black" points="500,-466 500,-485 530,-485 530,-466 500,-466"/>
<polygon fill="#ff8c00" stroke="transparent" points="504,-470 504,-481 526,-481 526,-470 504,-470"/>
<polygon fill="none" stroke="black" points="504,-470 504,-481 526,-481 526,-470 504,-470"/>
<polygon fill="#eeeeee" stroke="transparent" points="423,-447 423,-466 500,-466 500,-447 423,-447"/>
<polygon fill="none" stroke="black" points="423,-447 423,-466 500,-466 500,-447 423,-447"/>
<text text-anchor="start" x="453" y="-454" font-family="Courier,monospace" font-size="10.00">trainer</text>
<polygon fill="none" stroke="black" points="500,-447 500,-466 530,-466 530,-447 500,-447"/>
<polygon fill="#adff2f" stroke="transparent" points="504,-451 504,-462 526,-462 526,-451 504,-451"/>
<polygon fill="none" stroke="black" points="504,-451 504,-462 526,-462 526,-451 504,-451"/>
</g>
<!-- 0&#45;&#45;1 -->
<g id="edge4" class="edge">
<title>0:c&#45;&#45;1:c</title>
<path fill="none" stroke="#73be73" stroke-width="3" stroke-opacity="0.501961" d="M505.97,-488.94C478.71,-473.65 394.62,-426.5 321.78,-385.66"/>
</g>
<!-- 5 -->
<g id="node7" class="node">
<title>5</title>
<polygon fill="#ff8c00" stroke="transparent" points="393,-391.5 393,-410.5 637,-410.5 637,-391.5 393,-391.5"/>
<polygon fill="none" stroke="black" points="393,-391.5 393,-410.5 637,-410.5 637,-391.5 393,-391.5"/>
<text text-anchor="start" x="435.5" y="-399.5" font-family="Courier,monospace" font-size="8.00">Config:</text>
<text text-anchor="start" x="467.5" y="-399.5" font-family="Courier,monospace" font-size="10.00"> SourceDataDataModule</text>
<polygon fill="#eeeeee" stroke="transparent" points="393,-372.5 393,-391.5 492,-391.5 492,-372.5 393,-372.5"/>
<polygon fill="none" stroke="black" points="393,-372.5 393,-391.5 492,-391.5 492,-372.5 393,-372.5"/>
<text text-anchor="start" x="397" y="-379.5" font-family="Courier,monospace" font-size="10.00">dataset_factory</text>
<polygon fill="none" stroke="black" points="492,-372.5 492,-391.5 637,-391.5 637,-372.5 492,-372.5"/>
<polygon fill="#8fbc8f" stroke="transparent" points="496,-376.5 496,-387.5 633,-387.5 633,-376.5 496,-376.5"/>
<polygon fill="none" stroke="black" stroke-dasharray="5,2" points="496,-376.5 496,-387.5 633,-387.5 633,-376.5 496,-376.5"/>
<polygon fill="#eeeeee" stroke="transparent" stroke-dasharray="5,2" points="393,-280.5 393,-372.5 492,-372.5 492,-280.5 393,-280.5"/>
<polygon fill="none" stroke="black" points="393,-280.5 393,-372.5 492,-372.5 492,-280.5 393,-280.5"/>
<text text-anchor="start" x="451" y="-324" font-family="Courier,monospace" font-size="10.00">splits</text>
<polygon fill="none" stroke="black" points="492,-280.5 492,-372.5 637,-372.5 637,-280.5 492,-280.5"/>
<polygon fill="#eeeeee" stroke="transparent" points="496,-349.5 496,-368.5 633,-368.5 633,-349.5 496,-349.5"/>
<polygon fill="none" stroke="black" points="496,-349.5 496,-368.5 633,-368.5 633,-349.5 496,-349.5"/>
<text text-anchor="start" x="552" y="-356.5" font-family="Courier,monospace" font-size="10.00">dict</text>
<polygon fill="#eeeeee" stroke="transparent" points="496,-284.5 496,-349.5 541,-349.5 541,-284.5 496,-284.5"/>
<polygon fill="none" stroke="black" points="496,-284.5 496,-349.5 541,-349.5 541,-284.5 496,-284.5"/>
<text text-anchor="start" x="500" y="-314.5" font-family="Courier,monospace" font-size="10.00">&#39;time&#39;</text>
<polygon fill="none" stroke="black" points="541,-284.5 541,-349.5 633,-349.5 633,-284.5 541,-284.5"/>
<polygon fill="#eeeeee" stroke="transparent" points="545,-326.5 545,-345.5 629,-345.5 629,-326.5 545,-326.5"/>
<polygon fill="none" stroke="black" points="545,-326.5 545,-345.5 629,-345.5 629,-326.5 545,-326.5"/>
<text text-anchor="start" x="574.5" y="-333.5" font-family="Courier,monospace" font-size="10.00">dict</text>
<polygon fill="#eeeeee" stroke="transparent" points="545,-307.5 545,-326.5 596,-326.5 596,-307.5 545,-307.5"/>
<polygon fill="none" stroke="black" points="545,-307.5 545,-326.5 596,-326.5 596,-307.5 545,-307.5"/>
<text text-anchor="start" x="549" y="-314.5" font-family="Courier,monospace" font-size="10.00">&#39;train&#39;</text>
<polygon fill="none" stroke="black" points="596,-307.5 596,-326.5 629,-326.5 629,-307.5 596,-307.5"/>
<text text-anchor="start" x="600" y="-314.5" font-family="Courier,monospace" font-size="10.00">0.7</text>
<polygon fill="#eeeeee" stroke="transparent" points="545,-288.5 545,-307.5 596,-307.5 596,-288.5 545,-288.5"/>
<polygon fill="none" stroke="black" points="545,-288.5 545,-307.5 596,-307.5 596,-288.5 545,-288.5"/>
<text text-anchor="start" x="561" y="-295.5" font-family="Courier,monospace" font-size="10.00">&#39;val&#39;</text>
<polygon fill="none" stroke="black" points="596,-288.5 596,-307.5 629,-307.5 629,-288.5 596,-288.5"/>
<text text-anchor="start" x="600" y="-295.5" font-family="Courier,monospace" font-size="10.00">0.15</text>
<polygon fill="#eeeeee" stroke="transparent" points="393,-261.5 393,-280.5 492,-280.5 492,-261.5 393,-261.5"/>
<polygon fill="none" stroke="black" points="393,-261.5 393,-280.5 492,-280.5 492,-261.5 393,-261.5"/>
<text text-anchor="start" x="427" y="-268.5" font-family="Courier,monospace" font-size="10.00">batch_size</text>
<polygon fill="none" stroke="black" points="492,-261.5 492,-280.5 637,-280.5 637,-261.5 492,-261.5"/>
<text text-anchor="start" x="496" y="-268.5" font-family="Courier,monospace" font-size="10.00">16</text>
<polygon fill="#eeeeee" stroke="transparent" points="393,-242.5 393,-261.5 492,-261.5 492,-242.5 393,-242.5"/>
<polygon fill="none" stroke="black" points="393,-242.5 393,-261.5 492,-261.5 492,-242.5 393,-242.5"/>
<text text-anchor="start" x="421" y="-249.5" font-family="Courier,monospace" font-size="10.00">num_workers</text>
<polygon fill="none" stroke="black" points="492,-242.5 492,-261.5 637,-261.5 637,-242.5 492,-242.5"/>
<text text-anchor="start" x="496" y="-249.5" font-family="Courier,monospace" font-size="10.00">8</text>
<polygon fill="#eeeeee" stroke="transparent" points="393,-223.5 393,-242.5 492,-242.5 492,-223.5 393,-223.5"/>
<polygon fill="none" stroke="black" points="393,-223.5 393,-242.5 492,-242.5 492,-223.5 393,-223.5"/>
<text text-anchor="start" x="427" y="-230.5" font-family="Courier,monospace" font-size="10.00">pin_memory</text>
<polygon fill="none" stroke="black" points="492,-223.5 492,-242.5 637,-242.5 637,-223.5 492,-223.5"/>
<text text-anchor="start" x="496" y="-230.5" font-family="Courier,monospace" font-size="10.00">True</text>
</g>
<!-- 0&#45;&#45;5 -->
<g id="edge6" class="edge">
<title>0:c&#45;&#45;5:c</title>
<path fill="none" stroke="#cb6f00" stroke-width="3" stroke-opacity="0.501961" d="M515,-469.84C515,-460.57 515,-436.97 515,-411.09"/>
</g>
<!-- 7 -->
<g id="node9" class="node">
<title>7</title>
<polygon fill="#adff2f" stroke="transparent" points="958,-362.5 958,-381.5 1105,-381.5 1105,-362.5 958,-362.5"/>
<polygon fill="none" stroke="black" points="958,-362.5 958,-381.5 1105,-381.5 1105,-362.5 958,-362.5"/>
<text text-anchor="start" x="991" y="-370.5" font-family="Courier,monospace" font-size="8.00">Config:</text>
<text text-anchor="start" x="1023" y="-370.5" font-family="Courier,monospace" font-size="10.00"> Trainer</text>
<polygon fill="#eeeeee" stroke="transparent" points="958,-343.5 958,-362.5 1033,-362.5 1033,-343.5 958,-343.5"/>
<polygon fill="none" stroke="black" points="958,-343.5 958,-362.5 1033,-362.5 1033,-343.5 958,-343.5"/>
<text text-anchor="start" x="962" y="-350.5" font-family="Courier,monospace" font-size="10.00">accelerator</text>
<polygon fill="none" stroke="black" points="1033,-343.5 1033,-362.5 1105,-362.5 1105,-343.5 1033,-343.5"/>
<text text-anchor="start" x="1037" y="-350.5" font-family="Courier,monospace" font-size="10.00">&#39;auto&#39;</text>
<polygon fill="#eeeeee" stroke="transparent" points="958,-324.5 958,-343.5 1033,-343.5 1033,-324.5 958,-324.5"/>
<polygon fill="none" stroke="black" points="958,-324.5 958,-343.5 1033,-343.5 1033,-324.5 958,-324.5"/>
<text text-anchor="start" x="992" y="-331.5" font-family="Courier,monospace" font-size="10.00">logger</text>
<polygon fill="none" stroke="black" points="1033,-324.5 1033,-343.5 1105,-343.5 1105,-324.5 1033,-324.5"/>
<polygon fill="#ff6347" stroke="transparent" points="1037,-328.5 1037,-339.5 1101,-339.5 1101,-328.5 1037,-328.5"/>
<polygon fill="none" stroke="black" points="1037,-328.5 1037,-339.5 1101,-339.5 1101,-328.5 1037,-328.5"/>
<polygon fill="#eeeeee" stroke="transparent" points="958,-272.5 958,-324.5 1033,-324.5 1033,-272.5 958,-272.5"/>
<polygon fill="none" stroke="black" points="958,-272.5 958,-324.5 1033,-324.5 1033,-272.5 958,-272.5"/>
<text text-anchor="start" x="974" y="-296" font-family="Courier,monospace" font-size="10.00">callbacks</text>
<polygon fill="none" stroke="black" points="1033,-272.5 1033,-324.5 1105,-324.5 1105,-272.5 1033,-272.5"/>
<polygon fill="#eeeeee" stroke="transparent" points="1037,-301.5 1037,-320.5 1101,-320.5 1101,-301.5 1037,-301.5"/>
<polygon fill="none" stroke="black" points="1037,-301.5 1037,-320.5 1101,-320.5 1101,-301.5 1037,-301.5"/>
<text text-anchor="start" x="1056.5" y="-308.5" font-family="Courier,monospace" font-size="10.00">list</text>
<polygon fill="none" stroke="black" points="1037,-285.5 1037,-301.5 1053,-301.5 1053,-285.5 1037,-285.5"/>
<polygon fill="#db7093" stroke="transparent" points="1041,-289.5 1041,-297.5 1049,-297.5 1049,-289.5 1041,-289.5"/>
<polygon fill="none" stroke="black" points="1041,-289.5 1041,-297.5 1049,-297.5 1049,-289.5 1041,-289.5"/>
<polygon fill="none" stroke="black" points="1053,-285.5 1053,-301.5 1069,-301.5 1069,-285.5 1053,-285.5"/>
<polygon fill="#f0e68c" stroke="transparent" points="1057,-289.5 1057,-297.5 1065,-297.5 1065,-289.5 1057,-289.5"/>
<polygon fill="none" stroke="black" points="1057,-289.5 1057,-297.5 1065,-297.5 1065,-289.5 1057,-289.5"/>
<polygon fill="none" stroke="black" points="1069,-285.5 1069,-301.5 1085,-301.5 1085,-285.5 1069,-285.5"/>
<polygon fill="#32cd32" stroke="transparent" points="1073,-289.5 1073,-297.5 1081,-297.5 1081,-289.5 1073,-289.5"/>
<polygon fill="none" stroke="black" points="1073,-289.5 1073,-297.5 1081,-297.5 1081,-289.5 1073,-289.5"/>
<polygon fill="none" stroke="black" points="1085,-285.5 1085,-301.5 1101,-301.5 1101,-285.5 1085,-285.5"/>
<polygon fill="#00bfff" stroke="transparent" points="1089,-289.5 1089,-297.5 1097,-297.5 1097,-289.5 1089,-289.5"/>
<polygon fill="none" stroke="black" points="1089,-289.5 1089,-297.5 1097,-297.5 1097,-289.5 1089,-289.5"/>
<polygon fill="#eeeeee" stroke="transparent" points="1037,-276.5 1037,-285.5 1053,-285.5 1053,-276.5 1037,-276.5"/>
<polygon fill="none" stroke="black" points="1037,-276.5 1037,-285.5 1053,-285.5 1053,-276.5 1037,-276.5"/>
<text text-anchor="start" x="1043" y="-279.7" font-family="Courier,monospace" font-size="6.00">0</text>
<polygon fill="#eeeeee" stroke="transparent" points="1053,-276.5 1053,-285.5 1069,-285.5 1069,-276.5 1053,-276.5"/>
<polygon fill="none" stroke="black" points="1053,-276.5 1053,-285.5 1069,-285.5 1069,-276.5 1053,-276.5"/>
<text text-anchor="start" x="1059" y="-279.7" font-family="Courier,monospace" font-size="6.00">1</text>
<polygon fill="#eeeeee" stroke="transparent" points="1069,-276.5 1069,-285.5 1085,-285.5 1085,-276.5 1069,-276.5"/>
<polygon fill="none" stroke="black" points="1069,-276.5 1069,-285.5 1085,-285.5 1085,-276.5 1069,-276.5"/>
<text text-anchor="start" x="1075" y="-279.7" font-family="Courier,monospace" font-size="6.00">2</text>
<polygon fill="#eeeeee" stroke="transparent" points="1085,-276.5 1085,-285.5 1101,-285.5 1101,-276.5 1085,-276.5"/>
<polygon fill="none" stroke="black" points="1085,-276.5 1085,-285.5 1101,-285.5 1101,-276.5 1085,-276.5"/>
<text text-anchor="start" x="1091" y="-279.7" font-family="Courier,monospace" font-size="6.00">3</text>
<polygon fill="#eeeeee" stroke="transparent" points="958,-253.5 958,-272.5 1033,-272.5 1033,-253.5 958,-253.5"/>
<polygon fill="none" stroke="black" points="958,-253.5 958,-272.5 1033,-272.5 1033,-253.5 958,-253.5"/>
<text text-anchor="start" x="968" y="-260.5" font-family="Courier,monospace" font-size="10.00">max_epochs</text>
<polygon fill="none" stroke="black" points="1033,-253.5 1033,-272.5 1105,-272.5 1105,-253.5 1033,-253.5"/>
<text text-anchor="start" x="1037" y="-260.5" font-family="Courier,monospace" font-size="10.00">100</text>
</g>
<!-- 0&#45;&#45;7 -->
<g id="edge12" class="edge">
<title>0:c&#45;&#45;7:c</title>
<path fill="none" stroke="#8acb25" stroke-width="3" stroke-opacity="0.501961" d="M526.26,-452.02C582.04,-437.27 831.19,-371.36 957.33,-337.99"/>
</g>
<!-- 6 -->
<g id="node6" class="node">
<title>6</title>
<polygon fill="#8fbc8f" stroke="transparent" points="424,-169 424,-188 706,-188 706,-169 424,-169"/>
<polygon fill="none" stroke="black" stroke-dasharray="5,2" points="424,-169 424,-188 706,-188 706,-169 424,-169"/>
<text text-anchor="start" x="435" y="-177" font-family="Courier,monospace" font-size="8.00">Partial:</text>
<text text-anchor="start" x="472" y="-177" font-family="Courier,monospace" font-size="10.00"> SourceDataPrecomputedSamplingDataset</text>
<polygon fill="#eeeeee" stroke="transparent" stroke-dasharray="5,2" points="424,-150 424,-169 517,-169 517,-150 424,-150"/>
<polygon fill="none" stroke="black" points="424,-150 424,-169 517,-169 517,-150 424,-150"/>
<text text-anchor="start" x="458" y="-157" font-family="Courier,monospace" font-size="10.00">zarr_path</text>
<polygon fill="none" stroke="black" points="517,-150 517,-169 706,-169 706,-150 517,-150"/>
<text text-anchor="start" x="521" y="-157" font-family="Courier,monospace" font-size="10.00">&#39;./data/radar.zarr&#39;</text>
<polygon fill="#eeeeee" stroke="transparent" points="424,-131 424,-150 517,-150 517,-131 424,-131"/>
<polygon fill="none" stroke="black" points="424,-131 424,-150 517,-150 517,-131 424,-131"/>
<text text-anchor="start" x="464" y="-138" font-family="Courier,monospace" font-size="10.00">csv_path</text>
<polygon fill="none" stroke="black" points="517,-131 517,-150 706,-150 706,-131 517,-131"/>
<text text-anchor="start" x="521" y="-138" font-family="Courier,monospace" font-size="10.00">&#39;./data/sampled_datacubes.csv&#39;</text>
<polygon fill="#eeeeee" stroke="transparent" points="424,-76 424,-131 517,-131 517,-76 424,-76"/>
<polygon fill="none" stroke="black" points="424,-76 424,-131 517,-131 517,-76 424,-76"/>
<text text-anchor="start" x="428" y="-101" font-family="Courier,monospace" font-size="10.00">standard_names</text>
<polygon fill="none" stroke="black" points="517,-76 517,-131 706,-131 706,-76 517,-76"/>
<polygon fill="#eeeeee" stroke="transparent" points="521,-108 521,-127 702,-127 702,-108 521,-108"/>
<polygon fill="none" stroke="black" points="521,-108 521,-127 702,-127 702,-108 521,-108"/>
<text text-anchor="start" x="599" y="-115" font-family="Courier,monospace" font-size="10.00">list</text>
<polygon fill="none" stroke="black" points="521,-89 521,-108 702,-108 702,-89 521,-89"/>
<text text-anchor="start" x="566" y="-96" font-family="Courier,monospace" font-size="10.00">&#39;rainfall_rate&#39;</text>
<polygon fill="#eeeeee" stroke="transparent" points="521,-80 521,-89 702,-89 702,-80 521,-80"/>
<polygon fill="none" stroke="black" points="521,-80 521,-89 702,-89 702,-80 521,-80"/>
<text text-anchor="start" x="609.5" y="-83.2" font-family="Courier,monospace" font-size="6.00">0</text>
<polygon fill="#eeeeee" stroke="transparent" points="424,-57 424,-76 517,-76 517,-57 424,-57"/>
<polygon fill="none" stroke="black" points="424,-57 424,-76 517,-76 517,-57 424,-57"/>
<text text-anchor="start" x="446" y="-64" font-family="Courier,monospace" font-size="10.00">input_steps</text>
<polygon fill="none" stroke="black" points="517,-57 517,-76 706,-76 706,-57 517,-57"/>
<text text-anchor="start" x="521" y="-64" font-family="Courier,monospace" font-size="10.00">6</text>
<polygon fill="#eeeeee" stroke="transparent" points="424,-38 424,-57 517,-57 517,-38 424,-38"/>
<polygon fill="none" stroke="black" points="424,-38 424,-57 517,-57 517,-38 424,-38"/>
<text text-anchor="start" x="428" y="-45" font-family="Courier,monospace" font-size="10.00">forecast_steps</text>
<polygon fill="none" stroke="black" points="517,-38 517,-57 706,-57 706,-38 517,-38"/>
<text text-anchor="start" x="521" y="-45" font-family="Courier,monospace" font-size="10.00">12</text>
<polygon fill="#eeeeee" stroke="transparent" points="424,-19 424,-38 517,-38 517,-19 424,-19"/>
<polygon fill="none" stroke="black" points="424,-19 424,-38 517,-38 517,-19 424,-19"/>
<text text-anchor="start" x="446" y="-26" font-family="Courier,monospace" font-size="10.00">return_mask</text>
<polygon fill="none" stroke="black" points="517,-19 517,-38 706,-38 706,-19 517,-19"/>
<text text-anchor="start" x="521" y="-26" font-family="Courier,monospace" font-size="10.00">True</text>
<polygon fill="#eeeeee" stroke="transparent" points="424,0 424,-19 517,-19 517,0 424,0"/>
<polygon fill="none" stroke="black" points="424,0 424,-19 517,-19 517,0 424,0"/>
<text text-anchor="start" x="434" y="-7" font-family="Courier,monospace" font-size="10.00">deterministic</text>
<polygon fill="none" stroke="black" points="517,0 517,-19 706,-19 706,0 517,0"/>
<text text-anchor="start" x="521" y="-7" font-family="Courier,monospace" font-size="10.00">False</text>
</g>
<!-- 5&#45;&#45;6 -->
<g id="edge5" class="edge">
<title>5:c&#45;&#45;6:c</title>
<path fill="none" stroke="#729672" stroke-width="3" stroke-opacity="0.501961" d="M565,-376.28C565,-353.53 565,-260.87 565,-188.04"/>
</g>
<!-- 8 -->
<g id="node8" class="node">
<title>8</title>
<polygon fill="#ff6347" stroke="transparent" points="1084,-103 1084,-122 1233,-122 1233,-103 1084,-103"/>
<polygon fill="none" stroke="black" points="1084,-103 1084,-122 1233,-122 1233,-103 1084,-103"/>
<text text-anchor="start" x="1088" y="-111" font-family="Courier,monospace" font-size="8.00">Config:</text>
<text text-anchor="start" x="1120" y="-111" font-family="Courier,monospace" font-size="10.00"> TensorBoardLogger</text>
<polygon fill="#eeeeee" stroke="transparent" points="1084,-84 1084,-103 1158,-103 1158,-84 1084,-84"/>
<polygon fill="none" stroke="black" points="1084,-84 1084,-103 1158,-103 1158,-84 1084,-84"/>
<text text-anchor="start" x="1105" y="-91" font-family="Courier,monospace" font-size="10.00">save_dir</text>
<polygon fill="none" stroke="black" points="1158,-84 1158,-103 1233,-103 1233,-84 1158,-84"/>
<text text-anchor="start" x="1162" y="-91" font-family="Courier,monospace" font-size="10.00">&#39;logs&#39;</text>
<polygon fill="#eeeeee" stroke="transparent" points="1084,-65 1084,-84 1158,-84 1158,-65 1084,-65"/>
<polygon fill="none" stroke="black" points="1084,-65 1084,-84 1158,-84 1158,-65 1084,-65"/>
<text text-anchor="start" x="1129" y="-72" font-family="Courier,monospace" font-size="10.00">name</text>
<polygon fill="none" stroke="black" points="1158,-65 1158,-84 1233,-84 1233,-65 1158,-65"/>
<text text-anchor="start" x="1162" y="-72" font-family="Courier,monospace" font-size="10.00">&#39;mlcast&#39;</text>
</g>
<!-- 7&#45;&#45;8 -->
<g id="edge7" class="edge">
<title>7:c&#45;&#45;8:c</title>
<path fill="none" stroke="#cb4f38" stroke-width="3" stroke-opacity="0.501961" d="M1071.03,-328.07C1081.19,-300.82 1127,-178.08 1147.74,-122.5"/>
</g>
<!-- 9 -->
<g id="node10" class="node">
<title>9</title>
<polygon fill="#db7093" stroke="transparent" points="724,-113 724,-132 862,-132 862,-113 724,-113"/>
<polygon fill="none" stroke="black" points="724,-113 724,-132 862,-132 862,-113 724,-113"/>
<text text-anchor="start" x="728.5" y="-121" font-family="Courier,monospace" font-size="8.00">Config:</text>
<text text-anchor="start" x="760.5" y="-121" font-family="Courier,monospace" font-size="10.00"> ModelCheckpoint</text>
<polygon fill="#eeeeee" stroke="transparent" points="724,-94 724,-113 793,-113 793,-94 724,-94"/>
<polygon fill="none" stroke="black" points="724,-94 724,-113 793,-113 793,-94 724,-94"/>
<text text-anchor="start" x="746" y="-101" font-family="Courier,monospace" font-size="10.00">monitor</text>
<polygon fill="none" stroke="black" points="793,-94 793,-113 862,-113 862,-94 793,-94"/>
<text text-anchor="start" x="797" y="-101" font-family="Courier,monospace" font-size="10.00">&#39;val_loss&#39;</text>
<polygon fill="#eeeeee" stroke="transparent" points="724,-75 724,-94 793,-94 793,-75 724,-75"/>
<polygon fill="none" stroke="black" points="724,-75 724,-94 793,-94 793,-75 724,-75"/>
<text text-anchor="start" x="728" y="-82" font-family="Courier,monospace" font-size="10.00">save_top_k</text>
<polygon fill="none" stroke="black" points="793,-75 793,-94 862,-94 862,-75 793,-75"/>
<text text-anchor="start" x="797" y="-82" font-family="Courier,monospace" font-size="10.00">1</text>
<polygon fill="#eeeeee" stroke="transparent" points="724,-56 724,-75 793,-75 793,-56 724,-56"/>
<polygon fill="none" stroke="black" points="724,-56 724,-75 793,-75 793,-56 724,-56"/>
<text text-anchor="start" x="764" y="-63" font-family="Courier,monospace" font-size="10.00">mode</text>
<polygon fill="none" stroke="black" points="793,-56 793,-75 862,-75 862,-56 793,-56"/>
<text text-anchor="start" x="797" y="-63" font-family="Courier,monospace" font-size="10.00">&#39;min&#39;</text>
</g>
<!-- 7&#45;&#45;9 -->
<g id="edge8" class="edge">
<title>7:c&#45;&#45;9:c</title>
<path fill="none" stroke="#af5975" stroke-width="3" stroke-opacity="0.501961" d="M1040.89,-290.66C1020.8,-281.56 931.56,-239.72 871,-188 851.93,-171.71 833.74,-150.47 819.72,-132.4"/>
</g>
<!-- 10 -->
<g id="node11" class="node">
<title>10</title>
<polygon fill="#f0e68c" stroke="transparent" points="880,-113 880,-132 1066,-132 1066,-113 880,-113"/>
<polygon fill="none" stroke="black" points="880,-113 880,-132 1066,-132 1066,-113 880,-113"/>
<text text-anchor="start" x="908.5" y="-121" font-family="Courier,monospace" font-size="8.00">Config:</text>
<text text-anchor="start" x="940.5" y="-121" font-family="Courier,monospace" font-size="10.00"> ModelCheckpoint</text>
<polygon fill="#eeeeee" stroke="transparent" points="880,-94 880,-113 949,-113 949,-94 880,-94"/>
<polygon fill="none" stroke="black" points="880,-94 880,-113 949,-113 949,-94 880,-94"/>
<text text-anchor="start" x="902" y="-101" font-family="Courier,monospace" font-size="10.00">monitor</text>
<polygon fill="none" stroke="black" points="949,-94 949,-113 1066,-113 1066,-94 949,-94"/>
<text text-anchor="start" x="953" y="-101" font-family="Courier,monospace" font-size="10.00">&#39;train_loss_epoch&#39;</text>
<polygon fill="#eeeeee" stroke="transparent" points="880,-75 880,-94 949,-94 949,-75 880,-75"/>
<polygon fill="none" stroke="black" points="880,-75 880,-94 949,-94 949,-75 880,-75"/>
<text text-anchor="start" x="884" y="-82" font-family="Courier,monospace" font-size="10.00">save_top_k</text>
<polygon fill="none" stroke="black" points="949,-75 949,-94 1066,-94 1066,-75 949,-75"/>
<text text-anchor="start" x="953" y="-82" font-family="Courier,monospace" font-size="10.00">1</text>
<polygon fill="#eeeeee" stroke="transparent" points="880,-56 880,-75 949,-75 949,-56 880,-56"/>
<polygon fill="none" stroke="black" points="880,-56 880,-75 949,-75 949,-56 880,-56"/>
<text text-anchor="start" x="920" y="-63" font-family="Courier,monospace" font-size="10.00">mode</text>
<polygon fill="none" stroke="black" points="949,-56 949,-75 1066,-75 1066,-56 949,-56"/>
<text text-anchor="start" x="953" y="-63" font-family="Courier,monospace" font-size="10.00">&#39;min&#39;</text>
</g>
<!-- 7&#45;&#45;10 -->
<g id="edge9" class="edge">
<title>7:c&#45;&#45;10:c</title>
<path fill="none" stroke="#bfb770" stroke-width="3" stroke-opacity="0.501961" d="M1059.62,-289.4C1051.79,-271.83 1012.56,-183.79 989.67,-132.41"/>
</g>
<!-- 11 -->
<g id="node12" class="node">
<title>11</title>
<polygon fill="#32cd32" stroke="transparent" points="1251,-113 1251,-132 1377,-132 1377,-113 1251,-113"/>
<polygon fill="none" stroke="black" points="1251,-113 1251,-132 1377,-132 1377,-113 1251,-113"/>
<text text-anchor="start" x="1255.5" y="-121" font-family="Courier,monospace" font-size="8.00">Config:</text>
<text text-anchor="start" x="1287.5" y="-121" font-family="Courier,monospace" font-size="10.00"> EarlyStopping</text>
<polygon fill="#eeeeee" stroke="transparent" points="1251,-94 1251,-113 1308,-113 1308,-94 1251,-94"/>
<polygon fill="none" stroke="black" points="1251,-94 1251,-113 1308,-113 1308,-94 1251,-94"/>
<text text-anchor="start" x="1261" y="-101" font-family="Courier,monospace" font-size="10.00">monitor</text>
<polygon fill="none" stroke="black" points="1308,-94 1308,-113 1377,-113 1377,-94 1308,-94"/>
<text text-anchor="start" x="1312" y="-101" font-family="Courier,monospace" font-size="10.00">&#39;val_loss&#39;</text>
<polygon fill="#eeeeee" stroke="transparent" points="1251,-75 1251,-94 1308,-94 1308,-75 1251,-75"/>
<polygon fill="none" stroke="black" points="1251,-75 1251,-94 1308,-94 1308,-75 1251,-75"/>
<text text-anchor="start" x="1255" y="-82" font-family="Courier,monospace" font-size="10.00">patience</text>
<polygon fill="none" stroke="black" points="1308,-75 1308,-94 1377,-94 1377,-75 1308,-75"/>
<text text-anchor="start" x="1312" y="-82" font-family="Courier,monospace" font-size="10.00">100</text>
<polygon fill="#eeeeee" stroke="transparent" points="1251,-56 1251,-75 1308,-75 1308,-56 1251,-56"/>
<polygon fill="none" stroke="black" points="1251,-56 1251,-75 1308,-75 1308,-56 1251,-56"/>
<text text-anchor="start" x="1279" y="-63" font-family="Courier,monospace" font-size="10.00">mode</text>
<polygon fill="none" stroke="black" points="1308,-56 1308,-75 1377,-75 1377,-56 1308,-56"/>
<text text-anchor="start" x="1312" y="-63" font-family="Courier,monospace" font-size="10.00">&#39;min&#39;</text>
</g>
<!-- 7&#45;&#45;11 -->
<g id="edge10" class="edge">
<title>7:c&#45;&#45;11:c</title>
<path fill="none" stroke="#28a328" stroke-width="3" stroke-opacity="0.501961" d="M1081.46,-290.41C1101.63,-280.79 1185.82,-239.12 1242,-188 1259.97,-171.65 1276.79,-150.4 1289.65,-132.35"/>
</g>
<!-- 12 -->
<g id="node13" class="node">
<title>12</title>
<polygon fill="#00bfff" stroke="transparent" points="1396,-94 1396,-113 1557,-113 1557,-94 1396,-94"/>
<polygon fill="none" stroke="black" points="1396,-94 1396,-113 1557,-113 1557,-94 1396,-94"/>
<text text-anchor="start" x="1400" y="-102" font-family="Courier,monospace" font-size="8.00">Config:</text>
<text text-anchor="start" x="1432" y="-102" font-family="Courier,monospace" font-size="10.00"> LearningRateMonitor</text>
<polygon fill="#eeeeee" stroke="transparent" points="1396,-75 1396,-94 1506,-94 1506,-75 1396,-75"/>
<polygon fill="none" stroke="black" points="1396,-75 1396,-94 1506,-94 1506,-75 1396,-75"/>
<text text-anchor="start" x="1405" y="-82" font-family="Courier,monospace" font-size="10.00">logging_interval</text>
<polygon fill="none" stroke="black" points="1506,-75 1506,-94 1557,-94 1557,-75 1506,-75"/>
<text text-anchor="start" x="1510" y="-82" font-family="Courier,monospace" font-size="10.00">&#39;step&#39;</text>
</g>
<!-- 7&#45;&#45;12 -->
<g id="edge11" class="edge">
<title>7:c&#45;&#45;12:c</title>
<path fill="none" stroke="#0098cb" stroke-width="3" stroke-opacity="0.501961" d="M1097.11,-291.77C1124.27,-286.81 1280.21,-256.14 1386,-188 1417.73,-167.56 1446.58,-133.9 1462.66,-113.17"/>
</g>
</g>
</svg>
