<?xml version="1.0" encoding="UTF-8" standalone="no"?>
<!DOCTYPE svg PUBLIC "-//W3C//DTD SVG 1.1//EN"
 "http://www.w3.org/Graphics/SVG/1.1/DTD/svg11.dtd">
<!-- Generated by graphviz version 2.43.0 (0)
 -->
<!-- Title: %3 Pages: 1 -->
<svg width="1565pt" height="550pt"
 viewBox="0.00 0.00 1564.50 550.00" xmlns="http://www.w3.org/2000/svg" xmlns:xlink="http://www.w3.org/1999/xlink">
<g id="graph0" class="graph" transform="scale(1 1) rotate(0) translate(4 546)">
<title>%3</title>
<polygon fill="white" stroke="transparent" points="-4,4 -4,-546 1560.5,-546 1560.5,4 -4,4"/>
<!-- 2 -->
<g id="node1" class="node">
<title>2</title>
<polygon fill="#fff8dc" stroke="transparent" points="0,-113 0,-132 132,-132 132,-113 0,-113"/>
<polygon fill="none" stroke="black" points="0,-113 0,-132 132,-132 132,-113 0,-113"/>
<text text-anchor="start" x="10.5" y="-121" font-family="Courier,monospace" font-size="8.00">Config:</text>
<text text-anchor="start" x="42.5" y="-121" font-family="Courier,monospace" font-size="10.00"> ConvGruModel</text>
<polygon fill="#eeeeee" stroke="transparent" points="0,-94 0,-113 93,-113 93,-94 0,-94"/>
<polygon fill="none" stroke="black" points="0,-94 0,-113 93,-113 93,-94 0,-94"/>
<text text-anchor="start" x="4" y="-101" font-family="Courier,monospace" font-size="10.00">input_channels</text>
<polygon fill="none" stroke="black" points="93,-94 93,-113 132,-113 132,-94 93,-94"/>
<text text-anchor="start" x="97" y="-101" font-family="Courier,monospace" font-size="10.00">1</text>
<polygon fill="#eeeeee" stroke="transparent" points="0,-75 0,-94 93,-94 93,-75 0,-75"/>
<polygon fill="none" stroke="black" points="0,-75 0,-94 93,-94 93,-75 0,-75"/>
<text text-anchor="start" x="28" y="-82" font-family="Courier,monospace" font-size="10.00">num_blocks</text>
<polygon fill="none" stroke="black" points="93,-75 93,-94 132,-94 132,-75 93,-75"/>
<text text-anchor="start" x="97" y="-82" font-family="Courier,monospace" font-size="10.00">5</text>
<polygon fill="#eeeeee" stroke="transparent" points="0,-56 0,-75 93,-75 93,-56 0,-56"/>
<polygon fill="none" stroke="black" points="0,-56 0,-75 93,-75 93,-56 0,-56"/>
<text text-anchor="start" x="10" y="-63" font-family="Courier,monospace" font-size="10.00">noisy_decoder</text>
<polygon fill="none" stroke="black" points="93,-56 93,-75 132,-75 132,-56 93,-56"/>
<text text-anchor="start" x="97" y="-63" font-family="Courier,monospace" font-size="10.00">False</text>
</g>
<!-- 1 -->
<g id="node2" class="node">
<title>1</title>
<polygon fill="#90ee90" stroke="transparent" points="83,-397 83,-416 322,-416 322,-397 83,-397"/>
<polygon fill="none" stroke="black" points="83,-397 83,-416 322,-416 322,-397 83,-397"/>
<text text-anchor="start" x="117" y="-405" font-family="Courier,monospace" font-size="8.00">Config:</text>
<text text-anchor="start" x="149" y="-405" font-family="Courier,monospace" font-size="10.00"> NowcastLightningModule</text>
<polygon fill="#eeeeee" stroke="transparent" points="83,-378 83,-397 170,-397 170,-378 83,-378"/>
<polygon fill="none" stroke="black" points="83,-378 83,-397 170,-397 170,-378 83,-378"/>
<text text-anchor="start" x="123" y="-385" font-family="Courier,monospace" font-size="10.00">network</text>
<polygon fill="none" stroke="black" points="170,-378 170,-397 322,-397 322,-378 170,-378"/>
<polygon fill="#fff8dc" stroke="transparent" points="174,-382 174,-393 318,-393 318,-382 174,-382"/>
<polygon fill="none" stroke="black" points="174,-382 174,-393 318,-393 318,-382 174,-382"/>
<polygon fill="#eeeeee" stroke="transparent" points="83,-359 83,-378 170,-378 170,-359 83,-359"/>
<polygon fill="none" stroke="black" points="83,-359 83,-378 170,-378 170,-359 83,-359"/>
<text text-anchor="start" x="87" y="-366" font-family="Courier,monospace" font-size="10.00">ensemble_size</text>
<polygon fill="none" stroke="black" points="170,-359 170,-378 322,-378 322,-359 170,-359"/>
<text text-anchor="start" x="174" y="-366" font-family="Courier,monospace" font-size="10.00">2</text>
<polygon fill="#eeeeee" stroke="transparent" points="83,-340 83,-359 170,-359 170,-340 83,-340"/>
<polygon fill="none" stroke="black" points="83,-340 83,-359 170,-359 170,-340 83,-340"/>
<text text-anchor="start" x="105" y="-347" font-family="Courier,monospace" font-size="10.00">loss_class</text>
<polygon fill="none" stroke="black" points="170,-340 170,-359 322,-359 322,-340 170,-340"/>
<text text-anchor="start" x="174" y="-347" font-family="Courier,monospace" font-size="10.00">&#39;crps&#39;</text>
<polygon fill="#eeeeee" stroke="transparent" points="83,-294 83,-340 170,-340 170,-294 83,-294"/>
<polygon fill="none" stroke="black" points="83,-294 83,-340 170,-340 170,-294 83,-294"/>
<text text-anchor="start" x="99" y="-314.5" font-family="Courier,monospace" font-size="10.00">loss_params</text>
<polygon fill="none" stroke="black" points="170,-294 170,-340 322,-340 322,-294 170,-294"/>
<polygon fill="#eeeeee" stroke="transparent" points="174,-317 174,-336 318,-336 318,-317 174,-317"/>
<polygon fill="none" stroke="black" points="174,-317 174,-336 318,-336 318,-317 174,-317"/>
<text text-anchor="start" x="233.5" y="-324" font-family="Courier,monospace" font-size="10.00">dict</text>
<polygon fill="#eeeeee" stroke="transparent" points="174,-298 174,-317 285,-317 285,-298 174,-298"/>
<polygon fill="none" stroke="black" points="174,-298 174,-317 285,-317 285,-298 174,-298"/>
<text text-anchor="start" x="178" y="-305" font-family="Courier,monospace" font-size="10.00">&#39;temporal_lambda&#39;</text>
<polygon fill="none" stroke="black" points="285,-298 285,-317 318,-317 318,-298 285,-298"/>
<text text-anchor="start" x="289" y="-305" font-family="Courier,monospace" font-size="10.00">0.01</text>
<polygon fill="#eeeeee" stroke="transparent" points="83,-275 83,-294 170,-294 170,-275 83,-275"/>
<polygon fill="none" stroke="black" points="83,-275 83,-294 170,-294 170,-275 83,-275"/>
<text text-anchor="start" x="99" y="-282" font-family="Courier,monospace" font-size="10.00">masked_loss</text>
<polygon fill="none" stroke="black" points="170,-275 170,-294 322,-294 322,-275 170,-275"/>
<text text-anchor="start" x="174" y="-282" font-family="Courier,monospace" font-size="10.00">True</text>
<polygon fill="#eeeeee" stroke="transparent" points="83,-256 83,-275 170,-275 170,-256 83,-256"/>
<polygon fill="none" stroke="black" points="83,-256 83,-275 170,-275 170,-256 83,-256"/>
<text text-anchor="start" x="111" y="-263" font-family="Courier,monospace" font-size="10.00">optimizer</text>
<polygon fill="none" stroke="black" points="170,-256 170,-275 322,-275 322,-256 170,-256"/>
<polygon fill="#ffa07a" stroke="transparent" points="174,-260 174,-271 318,-271 318,-260 174,-260"/>
<polygon fill="none" stroke="black" stroke-dasharray="5,2" points="174,-260 174,-271 318,-271 318,-260 174,-260"/>
<polygon fill="#eeeeee" stroke="transparent" stroke-dasharray="5,2" points="83,-237 83,-256 170,-256 170,-237 83,-237"/>
<polygon fill="none" stroke="black" points="83,-237 83,-256 170,-256 170,-237 83,-237"/>
<text text-anchor="start" x="93" y="-244" font-family="Courier,monospace" font-size="10.00">lr_scheduler</text>
<polygon fill="none" stroke="black" points="170,-237 170,-256 322,-256 322,-237 170,-237"/>
<polygon fill="#add8e6" stroke="transparent" points="174,-241 174,-252 318,-252 318,-241 174,-241"/>
<polygon fill="none" stroke="black" stroke-dasharray="5,2" points="174,-241 174,-252 318,-252 318,-241 174,-241"/>
</g>
<!-- 1&#45;&#45;2 -->
<g id="edge1" class="edge">
<title>1:c&#45;&#45;2:c</title>
<path fill="none" stroke="#cbc6b0" stroke-width="3" stroke-opacity="0.501961" d="M242.88,-381.93C224.76,-352.55 132.53,-202.92 88.91,-132.17"/>
</g>
<!-- 3 -->
<g id="node3" class="node">
<title>3</title>
<polygon fill="#ffa07a" stroke="transparent" points="150,-103 150,-122 234,-122 234,-103 150,-103"/>
<polygon fill="none" stroke="black" stroke-dasharray="5,2" points="150,-103 150,-122 234,-122 234,-103 150,-103"/>
<text text-anchor="start" x="158" y="-111" font-family="Courier,monospace" font-size="8.00">Partial:</text>
<text text-anchor="start" x="195" y="-111" font-family="Courier,monospace" font-size="10.00"> Adam</text>
<polygon fill="#eeeeee" stroke="transparent" stroke-dasharray="5,2" points="150,-84 150,-103 189,-103 189,-84 150,-84"/>
<polygon fill="none" stroke="black" points="150,-84 150,-103 189,-103 189,-84 150,-84"/>
<text text-anchor="start" x="172" y="-91" font-family="Courier,monospace" font-size="10.00">lr</text>
<polygon fill="none" stroke="black" points="189,-84 189,-103 234,-103 234,-84 189,-84"/>
<text text-anchor="start" x="193" y="-91" font-family="Courier,monospace" font-size="10.00">0.0001</text>
<polygon fill="#eeeeee" stroke="transparent" points="150,-65 150,-84 189,-84 189,-65 150,-65"/>
<polygon fill="none" stroke="black" points="150,-65 150,-84 189,-84 189,-65 150,-65"/>
<text text-anchor="start" x="154" y="-72" font-family="Courier,monospace" font-size="10.00">fused</text>
<polygon fill="none" stroke="black" points="189,-65 189,-84 234,-84 234,-65 189,-65"/>
<text text-anchor="start" x="193" y="-72" font-family="Courier,monospace" font-size="10.00">True</text>
</g>
<!-- 1&#45;&#45;3 -->
<g id="edge2" class="edge">
<title>1:c&#45;&#45;3:c</title>
<path fill="none" stroke="#cb8061" stroke-width="3" stroke-opacity="0.501961" d="M244.67,-259.82C238.7,-241.17 214.23,-164.57 200.85,-122.68"/>
</g>
<!-- 4 -->
<g id="node4" class="node">
<title>4</title>
<polygon fill="#add8e6" stroke="transparent" points="252,-113 252,-132 406,-132 406,-113 252,-113"/>
<polygon fill="none" stroke="black" stroke-dasharray="5,2" points="252,-113 252,-132 406,-132 406,-113 252,-113"/>
<text text-anchor="start" x="256" y="-121" font-family="Courier,monospace" font-size="8.00">Partial:</text>
<text text-anchor="start" x="293" y="-121" font-family="Courier,monospace" font-size="10.00"> ReduceLROnPlateau</text>
<polygon fill="#eeeeee" stroke="transparent" stroke-dasharray="5,2" points="252,-94 252,-113 338,-113 338,-94 252,-94"/>
<polygon fill="none" stroke="black" points="252,-94 252,-113 338,-113 338,-94 252,-94"/>
<text text-anchor="start" x="309" y="-101" font-family="Courier,monospace" font-size="10.00">mode</text>
<polygon fill="none" stroke="black" points="338,-94 338,-113 406,-113 406,-94 338,-94"/>
<text text-anchor="start" x="342" y="-101" font-family="Courier,monospace" font-size="10.00">&#39;min&#39;</text>
<polygon fill="#eeeeee" stroke="transparent" points="252,-75 252,-94 338,-94 338,-75 252,-75"/>
<polygon fill="none" stroke="black" points="252,-75 252,-94 338,-94 338,-75 252,-75"/>
<text text-anchor="start" x="297" y="-82" font-family="Courier,monospace" font-size="10.00">factor</text>
<polygon fill="none" stroke="black" points="338,-75 338,-94 406,-94 406,-75 338,-75"/>
<text text-anchor="start" x="342" y="-82" font-family="Courier,monospace" font-size="10.00">0.5</text>
<polygon fill="#eeeeee" stroke="transparent" points="252,-56 252,-75 338,-75 338,-56 252,-56"/>
<polygon fill="none" stroke="black" points="252,-56 252,-75 338,-75 338,-56 252,-56"/>
<text text-anchor="start" x="285" y="-63" font-family="Courier,monospace" font-size="10.00">patience</text>
<polygon fill="none" stroke="black" points="338,-56 338,-75 406,-75 406,-56 338,-56"/>
<text text-anchor="start" x="342" y="-63" font-family="Courier,monospace" font-size="10.00">10</text>
</g>
<!-- 1&#45;&#45;4 -->
<g id="edge3" class="edge">
<title>1:c&#45;&#45;4:c</title>
<path fill="none" stroke="#8aacb7" stroke-width="3" stroke-opacity="0.501961" d="M248.22,-240.99C256.68,-225.71 287.45,-170.09 308.48,-132.09"/>
</g>
<!-- 0 -->
<g id="node5" class="node">
<title>0</title>
<polygon fill="#ffc0cb" stroke="transparent" points="423,-523 423,-542 530,-542 530,-523 423,-523"/>
<polygon fill="none" stroke="black" points="423,-523 423,-542 530,-542 530,-523 423,-523"/>
<text text-anchor="start" x="427" y="-531" font-family="Courier,monospace" font-size="8.00">Config:</text>
<text text-anchor="start" x="459" y="-531" font-family="Courier,monospace" font-size="10.00"> Experiment</text>
<polygon fill="#eeeeee" stroke="transparent" points="423,-504 423,-523 500,-523 500,-504 423,-504"/>
<polygon fill="none" stroke="black" points="423,-504 423,-523 500,-523 500,-504 423,-504"/>
<text text-anchor="start" x="441" y="-511" font-family="Courier,monospace" font-size="10.00">pl_module</text>
<polygon fill="none" stroke="black" points="500,-504 500,-523 530,-523 530,-504 500,-504"/>
<polygon fill="#90ee90" stroke="transparent" points="504,-508 504,-519 526,-519 526,-508 504,-508"/>
<polygon fill="none" stroke="black" points="504,-508 504,-519 526,-519 526,-508 504,-508"/>
<polygon fill="#eeeeee" stroke="transparent" points="423,-485 423,-504 500,-504 500,-485 423,-485"/>
<polygon fill="none" stroke="black" points="423,-485 423,-504 500,-504 500,-485 423,-485"/>
<text text-anchor="start" x="471" y="-492" font-family="Courier,monospace" font-size="10.00">data</text>
<polygon fill="none" stroke="black" points="500,-485 500,-504 530,-504 530,-485 500,-485"/>
<polygon fill="#ff8c00" stroke="transparent" points="504,-489 504,-500 526,-500 526,-489 504,-489"/>
<polygon fill="none" stroke="black" points="504,-489 504,-500 526,-500 526,-489 504,-489"/>
<polygon fill="#eeeeee" stroke="transparent" points="423,-466 423,-485 500,-485 500,-466 423,-466"/>
<polygon fill="none" stroke="black" points="423,-466 423,-485 500,-485 500,-466 423,-466"/>
<text text-anchor="start" x="453" y="-473" font-family="Courier,monospace" font-size="10.00">trainer</text>
<polygon fill="none" stroke="black" points="500,-466 500,-485 530,-485 530,-466 500,-466"/>
<polygon fill="#adff2f" stroke="transparent" points="504,-470 504,-481 526,-481 526,-470 504,-470"/>
<polygon fill="none" stroke="black" points="504,-470 504,-481 526,-481 526,-470 504,-470"/>
</g>
<!-- 0&#45;&#45;1 -->
<g id="edge4" class="edge">
<title>0:c&#45;&#45;1:c</title>
<path fill="none" stroke="#73be73" stroke-width="3" stroke-opacity="0.501961" d="M506.3,-507.86C479.4,-491.96 394.93,-442.03 321.8,-398.81"/>
</g>
<!-- 5 -->
<g id="node7" class="node">
<title>5</title>
<polygon fill="#ff8c00" stroke="transparent" points="393,-411 393,-430 637,-430 637,-411 393,-411"/>
<polygon fill="none" stroke="black" points="393,-411 393,-430 637,-430 637,-411 393,-411"/>
<text text-anchor="start" x="435.5" y="-419" font-family="Courier,monospace" font-size="8.00">Config:</text>
<text text-anchor="start" x="467.5" y="-419" font-family="Courier,monospace" font-size="10.00"> SourceDataDataModule</text>
<polygon fill="#eeeeee" stroke="transparent" points="393,-392 393,-411 492,-411 492,-392 393,-392"/>
<polygon fill="none" stroke="black" points="393,-392 393,-411 492,-411 492,-392 393,-392"/>
<text text-anchor="start" x="397" y="-399" font-family="Courier,monospace" font-size="10.00">dataset_factory</text>
<polygon fill="none" stroke="black" points="492,-392 492,-411 637,-411 637,-392 492,-392"/>
<polygon fill="#8fbc8f" stroke="transparent" points="496,-396 496,-407 633,-407 633,-396 496,-396"/>
<polygon fill="none" stroke="black" stroke-dasharray="5,2" points="496,-396 496,-407 633,-407 633,-396 496,-396"/>
<polygon fill="#eeeeee" stroke="transparent" stroke-dasharray="5,2" points="393,-281 393,-392 492,-392 492,-281 393,-281"/>
<polygon fill="none" stroke="black" points="393,-281 393,-392 492,-392 492,-281 393,-281"/>
<text text-anchor="start" x="451" y="-334" font-family="Courier,monospace" font-size="10.00">splits</text>
<polygon fill="none" stroke="black" points="492,-281 492,-392 637,-392 637,-281 492,-281"/>
<polygon fill="#eeeeee" stroke="transparent" points="496,-369 496,-388 633,-388 633,-369 496,-369"/>
<polygon fill="none" stroke="black" points="496,-369 496,-388 633,-388 633,-369 496,-369"/>
<text text-anchor="start" x="552" y="-376" font-family="Courier,monospace" font-size="10.00">dict</text>
<polygon fill="#eeeeee" stroke="transparent" points="496,-285 496,-369 541,-369 541,-285 496,-285"/>
<polygon fill="none" stroke="black" points="496,-285 496,-369 541,-369 541,-285 496,-285"/>
<text text-anchor="start" x="500" y="-324.5" font-family="Courier,monospace" font-size="10.00">&#39;time&#39;</text>
<polygon fill="none" stroke="black" points="541,-285 541,-369 633,-369 633,-285 541,-285"/>
<polygon fill="#eeeeee" stroke="transparent" points="545,-346 545,-365 629,-365 629,-346 545,-346"/>
<polygon fill="none" stroke="black" points="545,-346 545,-365 629,-365 629,-346 545,-346"/>
<text text-anchor="start" x="574.5" y="-353" font-family="Courier,monospace" font-size="10.00">dict</text>
<polygon fill="#eeeeee" stroke="transparent" points="545,-327 545,-346 596,-346 596,-327 545,-327"/>
<polygon fill="none" stroke="black" points="545,-327 545,-346 596,-346 596,-327 545,-327"/>
<text text-anchor="start" x="549" y="-334" font-family="Courier,monospace" font-size="10.00">&#39;train&#39;</text>
<polygon fill="none" stroke="black" points="596,-327 596,-346 629,-346 629,-327 596,-327"/>
<text text-anchor="start" x="600" y="-334" font-family="Courier,monospace" font-size="10.00">0.7</text>
<polygon fill="#eeeeee" stroke="transparent" points="545,-308 545,-327 596,-327 596,-308 545,-308"/>
<polygon fill="none" stroke="black" points="545,-308 545,-327 596,-327 596,-308 545,-308"/>
<text text-anchor="start" x="561" y="-315" font-family="Courier,monospace" font-size="10.00">&#39;val&#39;</text>
<polygon fill="none" stroke="black" points="596,-308 596,-327 629,-327 629,-308 596,-308"/>
<text text-anchor="start" x="600" y="-315" font-family="Courier,monospace" font-size="10.00">0.15</text>
<polygon fill="#eeeeee" stroke="transparent" points="545,-289 545,-308 596,-308 596,-289 545,-289"/>
<polygon fill="none" stroke="black" points="545,-289 545,-308 596,-308 596,-289 545,-289"/>
<text text-anchor="start" x="555" y="-296" font-family="Courier,monospace" font-size="10.00">&#39;test&#39;</text>
<polygon fill="none" stroke="black" points="596,-289 596,-308 629,-308 629,-289 596,-289"/>
<text text-anchor="start" x="600" y="-296" font-family="Courier,monospace" font-size="10.00">0.15</text>
<polygon fill="#eeeeee" stroke="transparent" points="393,-262 393,-281 492,-281 492,-262 393,-262"/>
<polygon fill="none" stroke="black" points="393,-262 393,-281 492,-281 492,-262 393,-262"/>
<text text-anchor="start" x="427" y="-269" font-family="Courier,monospace" font-size="10.00">batch_size</text>
<polygon fill="none" stroke="black" points="492,-262 492,-281 637,-281 637,-262 492,-262"/>
<text text-anchor="start" x="496" y="-269" font-family="Courier,monospace" font-size="10.00">16</text>
<polygon fill="#eeeeee" stroke="transparent" points="393,-243 393,-262 492,-262 492,-243 393,-243"/>
<polygon fill="none" stroke="black" points="393,-243 393,-262 492,-262 492,-243 393,-243"/>
<text text-anchor="start" x="421" y="-250" font-family="Courier,monospace" font-size="10.00">num_workers</text>
<polygon fill="none" stroke="black" points="492,-243 492,-262 637,-262 637,-243 492,-243"/>
<text text-anchor="start" x="496" y="-250" font-family="Courier,monospace" font-size="10.00">8</text>
<polygon fill="#eeeeee" stroke="transparent" points="393,-224 393,-243 492,-243 492,-224 393,-224"/>
<polygon fill="none" stroke="black" points="393,-224 393,-243 492,-243 492,-224 393,-224"/>
<text text-anchor="start" x="427" y="-231" font-family="Courier,monospace" font-size="10.00">pin_memory</text>
<polygon fill="none" stroke="black" points="492,-224 492,-243 637,-243 637,-224 492,-224"/>
<text text-anchor="start" x="496" y="-231" font-family="Courier,monospace" font-size="10.00">True</text>
</g>
<!-- 0&#45;&#45;5 -->
<g id="edge6" class="edge">
<title>0:c&#45;&#45;5:c</title>
<path fill="none" stroke="#cb6f00" stroke-width="3" stroke-opacity="0.501961" d="M515,-488.92C515,-479.79 515,-456.44 515,-430.27"/>
</g>
<!-- 7 -->
<g id="node9" class="node">
<title>7</title>
<polygon fill="#adff2f" stroke="transparent" points="958,-372 958,-391 1105,-391 1105,-372 958,-372"/>
<polygon fill="none" stroke="black" points="958,-372 958,-391 1105,-391 1105,-372 958,-372"/>
<text text-anchor="start" x="991" y="-380" font-family="Courier,monospace" font-size="8.00">Config:</text>
<text text-anchor="start" x="1023" y="-380" font-family="Courier,monospace" font-size="10.00"> Trainer</text>
<polygon fill="#eeeeee" stroke="transparent" points="958,-353 958,-372 1033,-372 1033,-353 958,-353"/>
<polygon fill="none" stroke="black" points="958,-353 958,-372 1033,-372 1033,-353 958,-353"/>
<text text-anchor="start" x="962" y="-360" font-family="Courier,monospace" font-size="10.00">accelerator</text>
<polygon fill="none" stroke="black" points="1033,-353 1033,-372 1105,-372 1105,-353 1033,-353"/>
<text text-anchor="start" x="1037" y="-360" font-family="Courier,monospace" font-size="10.00">&#39;auto&#39;</text>
<polygon fill="#eeeeee" stroke="transparent" points="958,-334 958,-353 1033,-353 1033,-334 958,-334"/>
<polygon fill="none" stroke="black" points="958,-334 958,-353 1033,-353 1033,-334 958,-334"/>
<text text-anchor="start" x="992" y="-341" font-family="Courier,monospace" font-size="10.00">logger</text>
<polygon fill="none" stroke="black" points="1033,-334 1033,-353 1105,-353 1105,-334 1033,-334"/>
<polygon fill="#ff6347" stroke="transparent" points="1037,-338 1037,-349 1101,-349 1101,-338 1037,-338"/>
<polygon fill="none" stroke="black" points="1037,-338 1037,-349 1101,-349 1101,-338 1037,-338"/>
<polygon fill="#eeeeee" stroke="transparent" points="958,-282 958,-334 1033,-334 1033,-282 958,-282"/>
<polygon fill="none" stroke="black" points="958,-282 958,-334 1033,-334 1033,-282 958,-282"/>
<text text-anchor="start" x="974" y="-305.5" font-family="Courier,monospace" font-size="10.00">callbacks</text>
<polygon fill="none" stroke="black" points="1033,-282 1033,-334 1105,-334 1105,-282 1033,-282"/>
<polygon fill="#eeeeee" stroke="transparent" points="1037,-311 1037,-330 1101,-330 1101,-311 1037,-311"/>
<polygon fill="none" stroke="black" points="1037,-311 1037,-330 1101,-330 1101,-311 1037,-311"/>
<text text-anchor="start" x="1056.5" y="-318" font-family="Courier,monospace" font-size="10.00">list</text>
<polygon fill="none" stroke="black" points="1037,-295 1037,-311 1053,-311 1053,-295 1037,-295"/>
<polygon fill="#db7093" stroke="transparent" points="1041,-299 1041,-307 1049,-307 1049,-299 1041,-299"/>
<polygon fill="none" stroke="black" points="1041,-299 1041,-307 1049,-307 1049,-299 1041,-299"/>
<polygon fill="none" stroke="black" points="1053,-295 1053,-311 1069,-311 1069,-295 1053,-295"/>
<polygon fill="#f0e68c" stroke="transparent" points="1057,-299 1057,-307 1065,-307 1065,-299 1057,-299"/>
<polygon fill="none" stroke="black" points="1057,-299 1057,-307 1065,-307 1065,-299 1057,-299"/>
<polygon fill="none" stroke="black" points="1069,-295 1069,-311 1085,-311 1085,-295 1069,-295"/>
<polygon fill="#32cd32" stroke="transparent" points="1073,-299 1073,-307 1081,-307 1081,-299 1073,-299"/>
<polygon fill="none" stroke="black" points="1073,-299 1073,-307 1081,-307 1081,-299 1073,-299"/>
<polygon fill="none" stroke="black" points="1085,-295 1085,-311 1101,-311 1101,-295 1085,-295"/>
<polygon fill="#00bfff" stroke="transparent" points="1089,-299 1089,-307 1097,-307 1097,-299 1089,-299"/>
<polygon fill="none" stroke="black" points="1089,-299 1089,-307 1097,-307 1097,-299 1089,-299"/>
<polygon fill="#eeeeee" stroke="transparent" points="1037,-286 1037,-295 1053,-295 1053,-286 1037,-286"/>
<polygon fill="none" stroke="black" points="1037,-286 1037,-295 1053,-295 1053,-286 1037,-286"/>
<text text-anchor="start" x="1043" y="-289.2" font-family="Courier,monospace" font-size="6.00">0</text>
<polygon fill="#eeeeee" stroke="transparent" points="1053,-286 1053,-295 1069,-295 1069,-286 1053,-286"/>
<polygon fill="none" stroke="black" points="1053,-286 1053,-295 1069,-295 1069,-286 1053,-286"/>
<text text-anchor="start" x="1059" y="-289.2" font-family="Courier,monospace" font-size="6.00">1</text>
<polygon fill="#eeeeee" stroke="transparent" points="1069,-286 1069,-295 1085,-295 1085,-286 1069,-286"/>
<polygon fill="none" stroke="black" points="1069,-286 1069,-295 1085,-295 1085,-286 1069,-286"/>
<text text-anchor="start" x="1075" y="-289.2" font-family="Courier,monospace" font-size="6.00">2</text>
<polygon fill="#eeeeee" stroke="transparent" points="1085,-286 1085,-295 1101,-295 1101,-286 1085,-286"/>
<polygon fill="none" stroke="black" points="1085,-286 1085,-295 1101,-295 1101,-286 1085,-286"/>
<text text-anchor="start" x="1091" y="-289.2" font-family="Courier,monospace" font-size="6.00">3</text>
<polygon fill="#eeeeee" stroke="transparent" points="958,-263 958,-282 1033,-282 1033,-263 958,-263"/>
<polygon fill="none" stroke="black" points="958,-263 958,-282 1033,-282 1033,-263 958,-263"/>
<text text-anchor="start" x="968" y="-270" font-family="Courier,monospace" font-size="10.00">max_epochs</text>
<polygon fill="none" stroke="black" points="1033,-263 1033,-282 1105,-282 1105,-263 1033,-263"/>
<text text-anchor="start" x="1037" y="-270" font-family="Courier,monospace" font-size="10.00">100</text>
</g>
<!-- 0&#45;&#45;7 -->
<g id="edge12" class="edge">
<title>0:c&#45;&#45;7:c</title>
<path fill="none" stroke="#8acb25" stroke-width="3" stroke-opacity="0.501961" d="M526.26,-470.81C582.04,-455.03 831.19,-384.54 957.33,-348.85"/>
</g>
<!-- 6 -->
<g id="node6" class="node">
<title>6</title>
<polygon fill="#8fbc8f" stroke="transparent" points="424,-169 424,-188 706,-188 706,-169 424,-169"/>
<polygon fill="none" stroke="black" stroke-dasharray="5,2" points="424,-169 424,-188 706,-188 706,-169 424,-169"/>
<text text-anchor="start" x="435" y="-177" font-family="Courier,monospace" font-size="8.00">Partial:</text>
<text text-anchor="start" x="472" y="-177" font-family="Courier,monospace" font-size="10.00"> SourceDataPrecomputedSamplingDataset</text>
<polygon fill="#eeeeee" stroke="transparent" stroke-dasharray="5,2" points="424,-150 424,-169 517,-169 517,-150 424,-150"/>
<polygon fill="none" stroke="black" points="424,-150 424,-169 517,-169 517,-150 424,-150"/>
<text text-anchor="start" x="458" y="-157" font-family="Courier,monospace" font-size="10.00">zarr_path</text>
<polygon fill="none" stroke="black" points="517,-150 517,-169 706,-169 706,-150 517,-150"/>
<text text-anchor="start" x="521" y="-157" font-family="Courier,monospace" font-size="10.00">&#39;./data/radar.zarr&#39;</text>
<polygon fill="#eeeeee" stroke="transparent" points="424,-131 424,-150 517,-150 517,-131 424,-131"/>
<polygon fill="none" stroke="black" points="424,-131 424,-150 517,-150 517,-131 424,-131"/>
<text text-anchor="start" x="464" y="-138" font-family="Courier,monospace" font-size="10.00">csv_path</text>
<polygon fill="none" stroke="black" points="517,-131 517,-150 706,-150 706,-131 517,-131"/>
<text text-anchor="start" x="521" y="-138" font-family="Courier,monospace" font-size="10.00">&#39;./data/sampled_datacubes.csv&#39;</text>
<polygon fill="#eeeeee" stroke="transparent" points="424,-76 424,-131 517,-131 517,-76 424,-76"/>
<polygon fill="none" stroke="black" points="424,-76 424,-131 517,-131 517,-76 424,-76"/>
<text text-anchor="start" x="428" y="-101" font-family="Courier,monospace" font-size="10.00">standard_names</text>
<polygon fill="none" stroke="black" points="517,-76 517,-131 706,-131 706,-76 517,-76"/>
<polygon fill="#eeeeee" stroke="transparent" points="521,-108 521,-127 702,-127 702,-108 521,-108"/>
<polygon fill="none" stroke="black" points="521,-108 521,-127 702,-127 702,-108 521,-108"/>
<text text-anchor="start" x="599" y="-115" font-family="Courier,monospace" font-size="10.00">list</text>
<polygon fill="none" stroke="black" points="521,-89 521,-108 702,-108 702,-89 521,-89"/>
<text text-anchor="start" x="566" y="-96" font-family="Courier,monospace" font-size="10.00">&#39;rainfall_rate&#39;</text>
<polygon fill="#eeeeee" stroke="transparent" points="521,-80 521,-89 702,-89 702,-80 521,-80"/>
<polygon fill="none" stroke="black" points="521,-80 521,-89 702,-89 702,-80 521,-80"/>
<text text-anchor="start" x="609.5" y="-83.2" font-family="Courier,monospace" font-size="6.00">0</text>
<polygon fill="#eeeeee" stroke="transparent" points="424,-57 424,-76 517,-76 517,-57 424,-57"/>
<polygon fill="none" stroke="black" points="424,-57 424,-76 517,-76 517,-57 424,-57"/>
<text text-anchor="start" x="446" y="-64" font-family="Courier,monospace" font-size="10.00">input_steps</text>
<polygon fill="none" stroke="black" points="517,-57 517,-76 706,-76 706,-57 517,-57"/>
<text text-anchor="start" x="521" y="-64" font-family="Courier,monospace" font-size="10.00">6</text>
<polygon fill="#eeeeee" stroke="transparent" points="424,-38 424,-57 517,-57 517,-38 424,-38"/>
<polygon fill="none" stroke="black" points="424,-38 424,-57 517,-57 517,-38 424,-38"/>
<text text-anchor="start" x="428" y="-45" font-family="Courier,monospace" font-size="10.00">forecast_steps</text>
<polygon fill="none" stroke="black" points="517,-38 517,-57 706,-57 706,-38 517,-38"/>
<text text-anchor="start" x="521" y="-45" font-family="Courier,monospace" font-size="10.00">12</text>
<polygon fill="#eeeeee" stroke="transparent" points="424,-19 424,-38 517,-38 517,-19 424,-19"/>
<polygon fill="none" stroke="black" points="424,-19 424,-38 517,-38 517,-19 424,-19"/>
<text text-anchor="start" x="446" y="-26" font-family="Courier,monospace" font-size="10.00">return_mask</text>
<polygon fill="none" stroke="black" points="517,-19 517,-38 706,-38 706,-19 517,-19"/>
<text text-anchor="start" x="521" y="-26" font-family="Courier,monospace" font-size="10.00">True</text>
<polygon fill="#eeeeee" stroke="transparent" points="424,0 424,-19 517,-19 517,0 424,0"/>
<polygon fill="none" stroke="black" points="424,0 424,-19 517,-19 517,0 424,0"/>
<text text-anchor="start" x="434" y="-7" font-family="Courier,monospace" font-size="10.00">deterministic</text>
<polygon fill="none" stroke="black" points="517,0 517,-19 706,-19 706,0 517,0"/>
<text text-anchor="start" x="521" y="-7" font-family="Courier,monospace" font-size="10.00">False</text>
</g>
<!-- 5&#45;&#45;6 -->
<g id="edge5" class="edge">
<title>5:c&#45;&#45;6:c</title>
<path fill="none" stroke="#729672" stroke-width="3" stroke-opacity="0.501961" d="M565,-395.69C565,-371.21 565,-267.06 565,-188.14"/>
</g>
<!-- 8 -->
<g id="node8" class="node">
<title>8</title>
<polygon fill="#ff6347" stroke="transparent" points="1084,-103 1084,-122 1233,-122 1233,-103 1084,-103"/>
<polygon fill="none" stroke="black" points="1084,-103 1084,-122 1233,-122 1233,-103 1084,-103"/>
<text text-anchor="start" x="1088" y="-111" font-family="Courier,monospace" font-size="8.00">Config:</text>
<text text-anchor="start" x="1120" y="-111" font-family="Courier,monospace" font-size="10.00"> TensorBoardLogger</text>
<polygon fill="#eeeeee" stroke="transparent" points="1084,-84 1084,-103 1158,-103 1158,-84 1084,-84"/>
<polygon fill="none" stroke="black" points="1084,-84 1084,-103 1158,-103 1158,-84 1084,-84"/>
<text text-anchor="start" x="1105" y="-91" font-family="Courier,monospace" font-size="10.00">save_dir</text>
<polygon fill="none" stroke="black" points="1158,-84 1158,-103 1233,-103 1233,-84 1158,-84"/>
<text text-anchor="start" x="1162" y="-91" font-family="Courier,monospace" font-size="10.00">&#39;logs&#39;</text>
<polygon fill="#eeeeee" stroke="transparent" points="1084,-65 1084,-84 1158,-84 1158,-65 1084,-65"/>
<polygon fill="none" stroke="black" points="1084,-65 1084,-84 1158,-84 1158,-65 1084,-65"/>
<text text-anchor="start" x="1129" y="-72" font-family="Courier,monospace" font-size="10.00">name</text>
<polygon fill="none" stroke="black" points="1158,-65 1158,-84 1233,-84 1233,-65 1158,-65"/>
<text text-anchor="start" x="1162" y="-72" font-family="Courier,monospace" font-size="10.00">&#39;mlcast&#39;</text>
</g>
<!-- 7&#45;&#45;8 -->
<g id="edge7" class="edge">
<title>7:c&#45;&#45;8:c</title>
<path fill="none" stroke="#cb4f38" stroke-width="3" stroke-opacity="0.501961" d="M1070.86,-337.82C1080.74,-310.28 1127.47,-180.08 1148.13,-122.5"/>
</g>
<!-- 9 -->
<g id="node10" class="node">
<title>9</title>
<polygon fill="#db7093" stroke="transparent" points="724,-113 724,-132 862,-132 862,-113 724,-113"/>
<polygon fill="none" stroke="black" points="724,-113 724,-132 862,-132 862,-113 724,-113"/>
<text text-anchor="start" x="728.5" y="-121" font-family="Courier,monospace" font-size="8.00">Config:</text>
<text text-anchor="start" x="760.5" y="-121" font-family="Courier,monospace" font-size="10.00"> ModelCheckpoint</text>
<polygon fill="#eeeeee" stroke="transparent" points="724,-94 724,-113 793,-113 793,-94 724,-94"/>
<polygon fill="none" stroke="black" points="724,-94 724,-113 793,-113 793,-94 724,-94"/>
<text text-anchor="start" x="746" y="-101" font-family="Courier,monospace" font-size="10.00">monitor</text>
<polygon fill="none" stroke="black" points="793,-94 793,-113 862,-113 862,-94 793,-94"/>
<text text-anchor="start" x="797" y="-101" font-family="Courier,monospace" font-size="10.00">&#39;val_loss&#39;</text>
<polygon fill="#eeeeee" stroke="transparent" points="724,-75 724,-94 793,-94 793,-75 724,-75"/>
<polygon fill="none" stroke="black" points="724,-75 724,-94 793,-94 793,-75 724,-75"/>
<text text-anchor="start" x="728" y="-82" font-family="Courier,monospace" font-size="10.00">save_top_k</text>
<polygon fill="none" stroke="black" points="793,-75 793,-94 862,-94 862,-75 793,-75"/>
<text text-anchor="start" x="797" y="-82" font-family="Courier,monospace" font-size="10.00">1</text>
<polygon fill="#eeeeee" stroke="transparent" points="724,-56 724,-75 793,-75 793,-56 724,-56"/>
<polygon fill="none" stroke="black" points="724,-56 724,-75 793,-75 793,-56 724,-56"/>
<text text-anchor="start" x="764" y="-63" font-family="Courier,monospace" font-size="10.00">mode</text>
<polygon fill="none" stroke="black" points="793,-56 793,-75 862,-75 862,-56 793,-56"/>
<text text-anchor="start" x="797" y="-63" font-family="Courier,monospace" font-size="10.00">&#39;min&#39;</text>
</g>
<!-- 7&#45;&#45;9 -->
<g id="edge8" class="edge">
<title>7:c&#45;&#45;9:c</title>
<path fill="none" stroke="#af5975" stroke-width="3" stroke-opacity="0.501961" d="M1040.91,-299.9C1020.91,-289.55 932.01,-242.21 871,-188 852.25,-171.34 834.08,-150.08 820,-132.09"/>
</g>
<!-- 10 -->
<g id="node11" class="node">
<title>10</title>
<polygon fill="#f0e68c" stroke="transparent" points="880,-113 880,-132 1066,-132 1066,-113 880,-113"/>
<polygon fill="none" stroke="black" points="880,-113 880,-132 1066,-132 1066,-113 880,-113"/>
<text text-anchor="start" x="908.5" y="-121" font-family="Courier,monospace" font-size="8.00">Config:</text>
<text text-anchor="start" x="940.5" y="-121" font-family="Courier,monospace" font-size="10.00"> ModelCheckpoint</text>
<polygon fill="#eeeeee" stroke="transparent" points="880,-94 880,-113 949,-113 949,-94 880,-94"/>
<polygon fill="none" stroke="black" points="880,-94 880,-113 949,-113 949,-94 880,-94"/>
<text text-anchor="start" x="902" y="-101" font-family="Courier,monospace" font-size="10.00">monitor</text>
<polygon fill="none" stroke="black" points="949,-94 949,-113 1066,-113 1066,-94 949,-94"/>
<text text-anchor="start" x="953" y="-101" font-family="Courier,monospace" font-size="10.00">&#39;train_loss_epoch&#39;</text>
<polygon fill="#eeeeee" stroke="transparent" points="880,-75 880,-94 949,-94 949,-75 880,-75"/>
<polygon fill="none" stroke="black" points="880,-75 880,-94 949,-94 949,-75 880,-75"/>
<text text-anchor="start" x="884" y="-82" font-family="Courier,monospace" font-size="10.00">save_top_k</text>
<polygon fill="none" stroke="black" points="949,-75 949,-94 1066,-94 1066,-75 949,-75"/>
<text text-anchor="start" x="953" y="-82" font-family="Courier,monospace" font-size="10.00">1</text>
<polygon fill="#eeeeee" stroke="transparent" points="880,-56 880,-75 949,-75 949,-56 880,-56"/>
<polygon fill="none" stroke="black" points="880,-56 880,-75 949,-75 949,-56 880,-56"/>
<text text-anchor="start" x="920" y="-63" font-family="Courier,monospace" font-size="10.00">mode</text>
<polygon fill="none" stroke="black" points="949,-56 949,-75 1066,-75 1066,-56 949,-56"/>
<text text-anchor="start" x="953" y="-63" font-family="Courier,monospace" font-size="10.00">&#39;min&#39;</text>
</g>
<!-- 7&#45;&#45;10 -->
<g id="edge9" class="edge">
<title>7:c&#45;&#45;10:c</title>
<path fill="none" stroke="#bfb770" stroke-width="3" stroke-opacity="0.501961" d="M1059.62,-298.75C1051.7,-280.13 1011.68,-185.99 988.91,-132.42"/>
</g>
<!-- 11 -->
<g id="node12" class="node">
<title>11</title>
<polygon fill="#32cd32" stroke="transparent" points="1251,-113 1251,-132 1377,-132 1377,-113 1251,-113"/>
<polygon fill="none" stroke="black" points="1251,-113 1251,-132 1377,-132 1377,-113 1251,-113"/>
<text text-anchor="start" x="1255.5" y="-121" font-family="Courier,monospace" font-size="8.00">Config:</text>
<text text-anchor="start" x="1287.5" y="-121" font-family="Courier,monospace" font-size="10.00"> EarlyStopping</text>
<polygon fill="#eeeeee" stroke="transparent" points="1251,-94 1251,-113 1308,-113 1308,-94 1251,-94"/>
<polygon fill="none" stroke="black" points="1251,-94 1251,-113 1308,-113 1308,-94 1251,-94"/>
<text text-anchor="start" x="1261" y="-101" font-family="Courier,monospace" font-size="10.00">monitor</text>
<polygon fill="none" stroke="black" points="1308,-94 1308,-113 1377,-113 1377,-94 1308,-94"/>
<text text-anchor="start" x="1312" y="-101" font-family="Courier,monospace" font-size="10.00">&#39;val_loss&#39;</text>
<polygon fill="#eeeeee" stroke="transparent" points="1251,-75 1251,-94 1308,-94 1308,-75 1251,-75"/>
<polygon fill="none" stroke="black" points="1251,-75 1251,-94 1308,-94 1308,-75 1251,-75"/>
<text text-anchor="start" x="1255" y="-82" font-family="Courier,monospace" font-size="10.00">patience</text>
<polygon fill="none" stroke="black" points="1308,-75 1308,-94 1377,-94 1377,-75 1308,-75"/>
<text text-anchor="start" x="1312" y="-82" font-family="Courier,monospace" font-size="10.00">100</text>
<polygon fill="#eeeeee" stroke="transparent" points="1251,-56 1251,-75 1308,-75 1308,-56 1251,-56"/>
<polygon fill="none" stroke="black" points="1251,-56 1251,-75 1308,-75 1308,-56 1251,-56"/>
<text text-anchor="start" x="1279" y="-63" font-family="Courier,monospace" font-size="10.00">mode</text>
<polygon fill="none" stroke="black" points="1308,-56 1308,-75 1377,-75 1377,-56 1308,-56"/>
<text text-anchor="start" x="1312" y="-63" font-family="Courier,monospace" font-size="10.00">&#39;min&#39;</text>
</g>
<!-- 7&#45;&#45;11 -->
<g id="edge10" class="edge">
<title>7:c&#45;&#45;11:c</title>
<path fill="none" stroke="#28a328" stroke-width="3" stroke-opacity="0.501961" d="M1081.44,-299.62C1101.52,-288.69 1185.38,-241.63 1242,-188 1259.64,-171.29 1276.44,-150.02 1289.37,-132.04"/>
</g>
<!-- 12 -->
<g id="node13" class="node">
<title>12</title>
<polygon fill="#00bfff" stroke="transparent" points="1396,-94 1396,-113 1557,-113 1557,-94 1396,-94"/>
<polygon fill="none" stroke="black" points="1396,-94 1396,-113 1557,-113 1557,-94 1396,-94"/>
<text text-anchor="start" x="1400" y="-102" font-family="Courier,monospace" font-size="8.00">Config:</text>
<text text-anchor="start" x="1432" y="-102" font-family="Courier,monospace" font-size="10.00"> LearningRateMonitor</text>
<polygon fill="#eeeeee" stroke="transparent" points="1396,-75 1396,-94 1506,-94 1506,-75 1396,-75"/>
<polygon fill="none" stroke="black" points="1396,-75 1396,-94 1506,-94 1506,-75 1396,-75"/>
<text text-anchor="start" x="1405" y="-82" font-family="Courier,monospace" font-size="10.00">logging_interval</text>
<polygon fill="none" stroke="black" points="1506,-75 1506,-94 1557,-94 1557,-75 1506,-75"/>
<text text-anchor="start" x="1510" y="-82" font-family="Courier,monospace" font-size="10.00">&#39;step&#39;</text>
</g>
<!-- 7&#45;&#45;12 -->
<g id="edge11" class="edge">
<title>7:c&#45;&#45;12:c</title>
<path fill="none" stroke="#0098cb" stroke-width="3" stroke-opacity="0.501961" d="M1097.11,-301.11C1124.25,-295.08 1280.07,-258.38 1386,-188 1417.44,-167.11 1446.38,-133.59 1462.55,-113.01"/>
</g>
</g>
</svg>
